%TF.GenerationSoftware,KiCad,Pcbnew,9.0.3+dfsg-1*%
%TF.CreationDate,2026-01-20T19:32:03+01:00*%
%TF.ProjectId,inki,696e6b69-2e6b-4696-9361-645f70636258,rev?*%
%TF.SameCoordinates,Original*%
%TF.FileFunction,Copper,L1,Top*%
%TF.FilePolarity,Positive*%
%FSLAX46Y46*%
G04 Gerber Fmt 4.6, Leading zero omitted, Abs format (unit mm)*
G04 Created by KiCad (PCBNEW 9.0.3+dfsg-1) date 2026-01-20 19:32:03*
%MOMM*%
%LPD*%
G01*
G04 APERTURE LIST*
G04 Aperture macros list*
%AMRoundRect*
0 Rectangle with rounded corners*
0 $1 Rounding radius*
0 $2 $3 $4 $5 $6 $7 $8 $9 X,Y pos of 4 corners*
0 Add a 4 corners polygon primitive as box body*
4,1,4,$2,$3,$4,$5,$6,$7,$8,$9,$2,$3,0*
0 Add four circle primitives for the rounded corners*
1,1,$1+$1,$2,$3*
1,1,$1+$1,$4,$5*
1,1,$1+$1,$6,$7*
1,1,$1+$1,$8,$9*
0 Add four rect primitives between the rounded corners*
20,1,$1+$1,$2,$3,$4,$5,0*
20,1,$1+$1,$4,$5,$6,$7,0*
20,1,$1+$1,$6,$7,$8,$9,0*
20,1,$1+$1,$8,$9,$2,$3,0*%
G04 Aperture macros list end*
%TA.AperFunction,SMDPad,CuDef*%
%ADD10R,5.100000X2.500000*%
%TD*%
%TA.AperFunction,SMDPad,CuDef*%
%ADD11C,10.200000*%
%TD*%
%TA.AperFunction,ComponentPad*%
%ADD12R,1.700000X1.700000*%
%TD*%
%TA.AperFunction,ComponentPad*%
%ADD13O,1.700000X1.700000*%
%TD*%
%TA.AperFunction,ComponentPad*%
%ADD14C,1.600000*%
%TD*%
%TA.AperFunction,ComponentPad*%
%ADD15RoundRect,0.200000X-0.600000X-0.600000X0.600000X-0.600000X0.600000X0.600000X-0.600000X0.600000X0*%
%TD*%
%TA.AperFunction,SMDPad,CuDef*%
%ADD16R,1.120000X2.440000*%
%TD*%
%TA.AperFunction,ViaPad*%
%ADD17C,0.600000*%
%TD*%
%TA.AperFunction,ViaPad*%
%ADD18C,3.000000*%
%TD*%
%TA.AperFunction,Conductor*%
%ADD19C,0.300000*%
%TD*%
G04 APERTURE END LIST*
D10*
%TO.P,battery_RTC1,1,+*%
%TO.N,Net-(D1-A)*%
X52100000Y-35800000D03*
X52100000Y-51000000D03*
D11*
%TO.P,battery_RTC1,2,-*%
%TO.N,GND*%
X52100000Y-43400000D03*
%TD*%
D12*
%TO.P,J1,1,Pin_1*%
%TO.N,Net-(J1-Pin_1)*%
X18000000Y-33770000D03*
D13*
%TO.P,J1,2,Pin_2*%
%TO.N,Net-(J1-Pin_2)*%
X18000000Y-36310000D03*
%TO.P,J1,3,Pin_3*%
%TO.N,Net-(J1-Pin_3)*%
X18000000Y-38850000D03*
%TO.P,J1,4,Pin_4*%
%TO.N,Net-(J1-Pin_4)*%
X18000000Y-41390000D03*
%TO.P,J1,5,Pin_5*%
%TO.N,Net-(J1-Pin_5)*%
X18000000Y-43930000D03*
%TO.P,J1,6,Pin_6*%
%TO.N,Net-(J1-Pin_6)*%
X18000000Y-46470000D03*
%TO.P,J1,7,Pin_7*%
%TO.N,GND*%
X18000000Y-49010000D03*
%TO.P,J1,8,Pin_8*%
%TO.N,3V3*%
X18000000Y-51550000D03*
%TD*%
D14*
%TO.P,pico1,1,GP0*%
%TO.N,Net-(pico1-GP0)*%
X22890000Y-18650000D03*
%TO.P,pico1,2,GP1*%
%TO.N,Net-(pico1-GP1)*%
X22890000Y-21190000D03*
D15*
%TO.P,pico1,3,GND*%
%TO.N,GND*%
X22890000Y-23730000D03*
D14*
%TO.P,pico1,4,GP2*%
%TO.N,Net-(pico1-GP2)*%
X22890000Y-26270000D03*
%TO.P,pico1,5,GP3*%
%TO.N,Net-(pico1-GP3)*%
X22890000Y-28810000D03*
%TO.P,pico1,6,GP4*%
%TO.N,unconnected-(pico1-GP4-Pad6)*%
X22890000Y-31350000D03*
%TO.P,pico1,7,GP5*%
%TO.N,Net-(pico1-GP5)*%
X22890000Y-33890000D03*
D15*
%TO.P,pico1,8,GND*%
%TO.N,GND*%
X22890000Y-36430000D03*
D14*
%TO.P,pico1,9,GP6*%
%TO.N,Net-(pico1-GP6)*%
X22890000Y-38970000D03*
%TO.P,pico1,10,GP7*%
%TO.N,Net-(pico1-GP7)*%
X22890000Y-41510000D03*
%TO.P,pico1,11,GP8*%
%TO.N,Net-(J1-Pin_3)*%
X22890000Y-44050000D03*
%TO.P,pico1,12,GP9*%
%TO.N,Net-(J1-Pin_4)*%
X22890000Y-46590000D03*
D15*
%TO.P,pico1,13,GND*%
%TO.N,GND*%
X22890000Y-49130000D03*
D14*
%TO.P,pico1,14,GP10*%
%TO.N,Net-(J1-Pin_5)*%
X22890000Y-51670000D03*
%TO.P,pico1,15,GP11*%
%TO.N,Net-(J1-Pin_6)*%
X22890000Y-54210000D03*
%TO.P,pico1,16,GP12*%
%TO.N,Net-(J1-Pin_2)*%
X22931881Y-56750000D03*
%TO.P,pico1,17,GP13*%
%TO.N,Net-(J1-Pin_1)*%
X22890000Y-59290000D03*
D15*
%TO.P,pico1,18,GND*%
%TO.N,GND*%
X22890000Y-61830000D03*
D14*
%TO.P,pico1,19,GP14*%
%TO.N,Net-(pico1-GP14)*%
X22890000Y-64370000D03*
%TO.P,pico1,20,GP15*%
%TO.N,unconnected-(pico1-GP15-Pad20)*%
X22890000Y-66910000D03*
%TO.P,pico1,21,GP16*%
%TO.N,Net-(pico1-GP16)*%
X40670000Y-66910000D03*
%TO.P,pico1,22,GP17*%
%TO.N,unconnected-(pico1-GP17-Pad22)*%
X40670000Y-64370000D03*
D15*
%TO.P,pico1,23,GND*%
%TO.N,GND*%
X40670000Y-61830000D03*
D14*
%TO.P,pico1,24,GP18*%
%TO.N,unconnected-(pico1-GP18-Pad24)*%
X40670000Y-59290000D03*
%TO.P,pico1,25,GP19*%
%TO.N,unconnected-(pico1-GP19-Pad25)*%
X40670000Y-56750000D03*
%TO.P,pico1,26,GP20*%
%TO.N,/optional i2c devices/SDA*%
X40670000Y-54210000D03*
%TO.P,pico1,27,GP21*%
%TO.N,/optional i2c devices/SCL*%
X40670000Y-51670000D03*
D15*
%TO.P,pico1,28,GND*%
%TO.N,GND*%
X40670000Y-49130000D03*
D14*
%TO.P,pico1,29,GP22*%
%TO.N,Net-(pico1-GP22)*%
X40670000Y-46590000D03*
%TO.P,pico1,30,RUN*%
%TO.N,unconnected-(pico1-RUN-Pad30)*%
X40670000Y-44050000D03*
%TO.P,pico1,31,GP26*%
%TO.N,Net-(pico1-GP26)*%
X40670000Y-41510000D03*
%TO.P,pico1,32,GP27*%
%TO.N,Net-(pico1-GP27)*%
X40670000Y-38970000D03*
D15*
%TO.P,pico1,33,AGND*%
%TO.N,GND*%
X40670000Y-36430000D03*
D14*
%TO.P,pico1,34,GP28*%
%TO.N,unconnected-(pico1-GP28-Pad34)*%
X40670000Y-33890000D03*
%TO.P,pico1,35,ADC_VREF*%
%TO.N,unconnected-(pico1-ADC_VREF-Pad35)*%
X40670000Y-31350000D03*
%TO.P,pico1,36,3V3_OUT*%
%TO.N,3V3*%
X40670000Y-28810000D03*
%TO.P,pico1,37,3V3_EN*%
%TO.N,unconnected-(pico1-3V3_EN-Pad37)*%
X40670000Y-26270000D03*
D15*
%TO.P,pico1,38,GND*%
%TO.N,GND*%
X40670000Y-23730000D03*
D14*
%TO.P,pico1,39,VSYS*%
%TO.N,Net-(Q1-D)*%
X40670000Y-21190000D03*
%TO.P,pico1,40,VBUS*%
%TO.N,unconnected-(pico1-VBUS-Pad40)*%
X40670000Y-18650000D03*
%TD*%
D12*
%TO.P,J4,1,Pin_1*%
%TO.N,Net-(D7-K)*%
X18000000Y-23375000D03*
D13*
%TO.P,J4,2,Pin_2*%
%TO.N,Net-(D5-K)*%
X18000000Y-25915000D03*
%TD*%
D12*
%TO.P,J5,1,Pin_1*%
%TO.N,GND*%
X18000000Y-55275000D03*
D13*
%TO.P,J5,2,Pin_2*%
%TO.N,Net-(D3-K)*%
X18000000Y-57815000D03*
%TD*%
D16*
%TO.P,SW1,1*%
%TO.N,Net-(Q2-C)*%
X47190000Y-30405000D03*
%TO.P,SW1,2*%
%TO.N,Net-(D4-A)*%
X49730000Y-30405000D03*
%TO.P,SW1,3*%
%TO.N,Net-(R17-Pad1)*%
X52270000Y-30405000D03*
%TO.P,SW1,4*%
%TO.N,Net-(R16-Pad2)*%
X54810000Y-30405000D03*
%TO.P,SW1,5*%
%TO.N,Net-(J3-Pin_2)*%
X54810000Y-21795000D03*
%TO.P,SW1,6*%
%TO.N,3V3*%
X52270000Y-21795000D03*
%TO.P,SW1,7*%
%TO.N,INT*%
X49730000Y-21795000D03*
%TO.P,SW1,8*%
X47190000Y-21795000D03*
%TD*%
D12*
%TO.P,J2,1,Pin_1*%
%TO.N,GND*%
X18000000Y-61475000D03*
D13*
%TO.P,J2,2,Pin_2*%
%TO.N,INT*%
X18000000Y-64015000D03*
%TD*%
D12*
%TO.P,J3,1,Pin_1*%
%TO.N,GND*%
X59350000Y-26650000D03*
D13*
%TO.P,J3,2,Pin_2*%
%TO.N,Net-(J3-Pin_2)*%
X59350000Y-24110000D03*
%TD*%
D12*
%TO.P,J7,1,Pin_1*%
%TO.N,GND*%
X57850000Y-66400000D03*
D13*
%TO.P,J7,2,Pin_2*%
%TO.N,Net-(J7-Pin_2)*%
X60390000Y-66400000D03*
%TD*%
D17*
%TO.N,*%
X17600000Y-18900000D03*
X17600000Y-18900000D03*
D18*
X59100000Y-18650000D03*
X17600000Y-18900000D03*
X60350000Y-59150000D03*
X17900000Y-67750000D03*
D17*
%TO.N,GND*%
X45350000Y-23150000D03*
X33400000Y-62850000D03*
X52825000Y-43400000D03*
X46350000Y-46900000D03*
X35500000Y-55250000D03*
X29300000Y-20800000D03*
X20500000Y-68200000D03*
X32900000Y-68100000D03*
X51150000Y-39650000D03*
X27500000Y-64100000D03*
%TO.N,3V3*%
X48300000Y-37100000D03*
X44480000Y-49900000D03*
X42330000Y-45870000D03*
%TO.N,Net-(pico1-GP27)*%
X38900000Y-62100000D03*
%TO.N,Net-(pico1-GP16)*%
X61100000Y-64500000D03*
%TO.N,Net-(Q1-D)*%
X44100000Y-21190000D03*
%TO.N,Net-(Q2-C)*%
X47500000Y-34000000D03*
%TO.N,Net-(D1-A)*%
X57400000Y-51900000D03*
%TO.N,Net-(J3-Pin_2)*%
X25200000Y-33100000D03*
%TO.N,Net-(R16-Pad2)*%
X54400000Y-28400000D03*
%TO.N,Net-(pico1-GP2)*%
X29600000Y-30200000D03*
%TO.N,Net-(R17-Pad1)*%
X48500000Y-26200000D03*
X31600000Y-20400000D03*
X33400000Y-25500000D03*
%TO.N,Net-(pico1-GP3)*%
X29500000Y-32200000D03*
%TO.N,Net-(D3-K)*%
X26700000Y-55200000D03*
X31600000Y-49400000D03*
%TO.N,Net-(D4-A)*%
X36300000Y-50000000D03*
X20800000Y-31300000D03*
X26100000Y-20200000D03*
X35600000Y-37700000D03*
X49700000Y-32400000D03*
%TO.N,/optional i2c devices/SDA*%
X47300000Y-50200000D03*
X43700000Y-54500000D03*
X50125000Y-52925000D03*
%TO.N,/optional i2c devices/SCL*%
X52050000Y-54125000D03*
X44300000Y-52500000D03*
X43270000Y-41750000D03*
%TO.N,INT*%
X36350000Y-61150000D03*
X48195000Y-59005000D03*
X38130000Y-42560000D03*
X31300000Y-34900000D03*
%TO.N,Vbat*%
X46180000Y-45750000D03*
X56300000Y-53300000D03*
X48195000Y-64700000D03*
X32100000Y-64500000D03*
X43500000Y-66200000D03*
%TD*%
D19*
%TO.N,GND*%
X33400000Y-62850000D02*
X33400000Y-67600000D01*
X35500000Y-55250000D02*
X34700000Y-55250000D01*
X20500000Y-68200000D02*
X20500000Y-64220000D01*
X34700000Y-55250000D02*
X33400000Y-56550000D01*
X26370000Y-23730000D02*
X22890000Y-23730000D01*
X20500000Y-64220000D02*
X22890000Y-61830000D01*
X33400000Y-56550000D02*
X33400000Y-62850000D01*
X25430000Y-51670000D02*
X22890000Y-49130000D01*
X27500000Y-64100000D02*
X25230000Y-61830000D01*
X25230000Y-61830000D02*
X22890000Y-61830000D01*
X25430000Y-59290000D02*
X25430000Y-51670000D01*
X42350000Y-23150000D02*
X41770000Y-23730000D01*
X57850000Y-66400000D02*
X57850000Y-66150000D01*
X45350000Y-23150000D02*
X42350000Y-23150000D01*
X52100000Y-43400000D02*
X49850000Y-43400000D01*
X22890000Y-61830000D02*
X25430000Y-59290000D01*
X41770000Y-23730000D02*
X40670000Y-23730000D01*
X29300000Y-20800000D02*
X26370000Y-23730000D01*
X49850000Y-43400000D02*
X46350000Y-46900000D01*
X33400000Y-67600000D02*
X32900000Y-68100000D01*
%TO.N,Net-(J1-Pin_1)*%
X17125000Y-54075000D02*
X16500000Y-53450000D01*
X19200000Y-54075000D02*
X17125000Y-54075000D01*
X21740000Y-58140000D02*
X21690000Y-58140000D01*
X17792894Y-33515000D02*
X18000000Y-33515000D01*
X20100000Y-56250000D02*
X19500000Y-55650000D01*
X16500000Y-53450000D02*
X16500000Y-34807894D01*
X16500000Y-34807894D02*
X17768947Y-33538947D01*
X22890000Y-59290000D02*
X21740000Y-58140000D01*
X20100000Y-56550000D02*
X20100000Y-56250000D01*
X21690000Y-58140000D02*
X20100000Y-56550000D01*
X19500000Y-54375000D02*
X19200000Y-54075000D01*
X19500000Y-55650000D02*
X19500000Y-54375000D01*
%TO.N,Net-(J1-Pin_2)*%
X20200000Y-54018119D02*
X20200000Y-52750000D01*
X19400000Y-37800000D02*
X18000000Y-36400000D01*
X22931881Y-56750000D02*
X20200000Y-54018119D01*
X18000000Y-36400000D02*
X18000000Y-36310000D01*
X20200000Y-52750000D02*
X19400000Y-51950000D01*
X19400000Y-51950000D02*
X19400000Y-37800000D01*
%TO.N,3V3*%
X44480000Y-40030000D02*
X44480000Y-37100000D01*
X44480000Y-37100000D02*
X44480000Y-28810000D01*
X50800000Y-24600000D02*
X52270000Y-23130000D01*
X44100000Y-40410000D02*
X44480000Y-40030000D01*
X42330000Y-41769346D02*
X42330000Y-45870000D01*
X44100000Y-49520000D02*
X44100000Y-40410000D01*
X44069346Y-40030000D02*
X42330000Y-41769346D01*
X52270000Y-23130000D02*
X52270000Y-21795000D01*
X46400000Y-24600000D02*
X50800000Y-24600000D01*
X44480000Y-28810000D02*
X40670000Y-28810000D01*
X44480000Y-40030000D02*
X44069346Y-40030000D01*
X48300000Y-37100000D02*
X44480000Y-37100000D01*
X44480000Y-28810000D02*
X46400000Y-26890000D01*
X46400000Y-26890000D02*
X46400000Y-24600000D01*
X44480000Y-49900000D02*
X44100000Y-49520000D01*
%TO.N,Net-(pico1-GP27)*%
X38900000Y-40740000D02*
X40670000Y-38970000D01*
X38900000Y-62100000D02*
X38900000Y-40740000D01*
%TO.N,Net-(pico1-GP16)*%
X51590000Y-66910000D02*
X54000000Y-64500000D01*
X40670000Y-66910000D02*
X51590000Y-66910000D01*
X54000000Y-64500000D02*
X61100000Y-64500000D01*
%TO.N,Net-(Q1-D)*%
X44100000Y-21190000D02*
X40670000Y-21190000D01*
%TO.N,Net-(Q2-C)*%
X47500000Y-34000000D02*
X47190000Y-33690000D01*
X47190000Y-33690000D02*
X47190000Y-30405000D01*
%TO.N,Net-(D1-A)*%
X52100000Y-35800000D02*
X50800000Y-35800000D01*
X44840000Y-48510000D02*
X47260000Y-48510000D01*
X49750000Y-51000000D02*
X52100000Y-51000000D01*
X47260000Y-48510000D02*
X49750000Y-51000000D01*
X50800000Y-35800000D02*
X44840000Y-41760000D01*
X56500000Y-51000000D02*
X52100000Y-51000000D01*
X57400000Y-51900000D02*
X56500000Y-51000000D01*
X44840000Y-41760000D02*
X44840000Y-48510000D01*
%TO.N,Net-(J3-Pin_2)*%
X54810000Y-17510000D02*
X54200000Y-16900000D01*
X57035000Y-21795000D02*
X54810000Y-21795000D01*
X38800000Y-16900000D02*
X34800000Y-20900000D01*
X34800000Y-20900000D02*
X34800000Y-33900000D01*
X26850000Y-33900000D02*
X26050000Y-33100000D01*
X34800000Y-33900000D02*
X26850000Y-33900000D01*
X26050000Y-33100000D02*
X25200000Y-33100000D01*
X54200000Y-16900000D02*
X38800000Y-16900000D01*
X54810000Y-21795000D02*
X54810000Y-17510000D01*
X59350000Y-24110000D02*
X57035000Y-21795000D01*
%TO.N,Net-(R16-Pad2)*%
X54810000Y-30405000D02*
X54810000Y-28810000D01*
X54810000Y-28810000D02*
X54400000Y-28400000D01*
%TO.N,Net-(pico1-GP2)*%
X29600000Y-30200000D02*
X25670000Y-26270000D01*
X25670000Y-26270000D02*
X22890000Y-26270000D01*
%TO.N,Net-(R17-Pad1)*%
X33400000Y-22200000D02*
X33400000Y-25500000D01*
X31600000Y-20400000D02*
X33400000Y-22200000D01*
X52270000Y-30405000D02*
X52270000Y-27370000D01*
X51100000Y-26200000D02*
X48500000Y-26200000D01*
X52270000Y-27370000D02*
X51100000Y-26200000D01*
%TO.N,Net-(pico1-GP3)*%
X29500000Y-32200000D02*
X26110000Y-28810000D01*
X26110000Y-28810000D02*
X22890000Y-28810000D01*
%TO.N,Net-(D3-K)*%
X31600000Y-49400000D02*
X29900000Y-51100000D01*
X26700000Y-51100000D02*
X26700000Y-55200000D01*
X29900000Y-51100000D02*
X26700000Y-51100000D01*
%TO.N,Net-(D4-A)*%
X49730000Y-30405000D02*
X49730000Y-32370000D01*
X35600000Y-37700000D02*
X35600000Y-49300000D01*
X20800000Y-21653654D02*
X20800000Y-31300000D01*
X23440000Y-32740000D02*
X28400000Y-37700000D01*
X28400000Y-37700000D02*
X35600000Y-37700000D01*
X26100000Y-20200000D02*
X25940000Y-20040000D01*
X35600000Y-49300000D02*
X36300000Y-50000000D01*
X22240000Y-32740000D02*
X23440000Y-32740000D01*
X20800000Y-31300000D02*
X22240000Y-32740000D01*
X25940000Y-20040000D02*
X22413654Y-20040000D01*
X22413654Y-20040000D02*
X20800000Y-21653654D01*
X49700000Y-32400000D02*
X49730000Y-32370000D01*
%TO.N,/optional i2c devices/SDA*%
X48200000Y-52925000D02*
X47300000Y-52025000D01*
X43410000Y-54210000D02*
X40670000Y-54210000D01*
X50125000Y-52925000D02*
X48200000Y-52925000D01*
X43700000Y-54500000D02*
X43410000Y-54210000D01*
X47300000Y-52025000D02*
X47300000Y-50200000D01*
%TO.N,/optional i2c devices/SCL*%
X43370000Y-51670000D02*
X41580000Y-51670000D01*
X41580000Y-51670000D02*
X43270000Y-49980000D01*
X44200000Y-52500000D02*
X43370000Y-51670000D01*
X44300000Y-52500000D02*
X44200000Y-52500000D01*
X52050000Y-54125000D02*
X45925000Y-54125000D01*
X43270000Y-49980000D02*
X43270000Y-41750000D01*
X41580000Y-51670000D02*
X40670000Y-51670000D01*
X45925000Y-54125000D02*
X44300000Y-52500000D01*
%TO.N,INT*%
X31300000Y-34900000D02*
X36400000Y-34900000D01*
X36500000Y-21715000D02*
X38257000Y-19958000D01*
X38257000Y-19958000D02*
X46358000Y-19958000D01*
X38130000Y-42560000D02*
X38130000Y-44050000D01*
X36350000Y-61150000D02*
X37150000Y-61150000D01*
X38130000Y-60170000D02*
X38130000Y-44050000D01*
X47190000Y-21795000D02*
X49730000Y-21795000D01*
X37700000Y-63100000D02*
X36350000Y-61750000D01*
X36350000Y-61750000D02*
X36350000Y-61150000D01*
X36400000Y-34900000D02*
X36500000Y-34800000D01*
X48195000Y-59005000D02*
X44100000Y-63100000D01*
X37150000Y-61150000D02*
X38130000Y-60170000D01*
X46358000Y-19958000D02*
X47190000Y-20790000D01*
X36500000Y-34800000D02*
X36500000Y-21715000D01*
X44100000Y-63100000D02*
X37700000Y-63100000D01*
X47190000Y-20790000D02*
X47190000Y-21795000D01*
X36500000Y-42420000D02*
X36500000Y-34800000D01*
X38130000Y-44050000D02*
X36500000Y-42420000D01*
%TO.N,Vbat*%
X49495000Y-63400000D02*
X48195000Y-64700000D01*
X56699000Y-49399000D02*
X59050000Y-51750000D01*
X48095000Y-64800000D02*
X48195000Y-64700000D01*
X43100000Y-64800000D02*
X42700000Y-65200000D01*
X42380000Y-65520000D02*
X39420000Y-65520000D01*
X46180000Y-45750000D02*
X45540000Y-46390000D01*
X43500000Y-66000000D02*
X42700000Y-65200000D01*
X43100000Y-64800000D02*
X48095000Y-64800000D01*
X59050000Y-51750000D02*
X57500000Y-53300000D01*
X45540000Y-46390000D02*
X45540000Y-47630000D01*
X43500000Y-66200000D02*
X43500000Y-66000000D01*
X52600000Y-57000000D02*
X52600000Y-63400000D01*
X45540000Y-47630000D02*
X47580000Y-47630000D01*
X57500000Y-53300000D02*
X56300000Y-53300000D01*
X32100000Y-69100000D02*
X35840000Y-69100000D01*
X32100000Y-64500000D02*
X32100000Y-69100000D01*
X42700000Y-65200000D02*
X42380000Y-65520000D01*
X56300000Y-53300000D02*
X52600000Y-57000000D01*
X35840000Y-69100000D02*
X39420000Y-65520000D01*
X49349000Y-49399000D02*
X56699000Y-49399000D01*
X47580000Y-47630000D02*
X49349000Y-49399000D01*
X52600000Y-63400000D02*
X49495000Y-63400000D01*
%TD*%
M02*
