%TF.GenerationSoftware,KiCad,Pcbnew,9.0.3+dfsg-1*%
%TF.CreationDate,2026-01-20T19:32:03+01:00*%
%TF.ProjectId,inki,696e6b69-2e6b-4696-9361-645f70636258,rev?*%
%TF.SameCoordinates,Original*%
%TF.FileFunction,Other,User*%
%FSLAX46Y46*%
G04 Gerber Fmt 4.6, Leading zero omitted, Abs format (unit mm)*
G04 Created by KiCad (PCBNEW 9.0.3+dfsg-1) date 2026-01-20 19:32:03*
%MOMM*%
%LPD*%
G01*
G04 APERTURE LIST*
%ADD10C,0.050000*%
G04 APERTURE END LIST*
D10*
%TO.C,battery_RTC1*%
X45350000Y-39850000D02*
X45350000Y-46950000D01*
X45350000Y-39850000D02*
X49050000Y-36150000D01*
X45350000Y-46950000D02*
X49050000Y-50650000D01*
X49050000Y-34050000D02*
X49050000Y-36150000D01*
X49050000Y-34050000D02*
X55150000Y-34050000D01*
X49050000Y-52750000D02*
X49050000Y-50650000D01*
X55150000Y-34050000D02*
X55150000Y-36150000D01*
X55150000Y-36150000D02*
X58850000Y-39850000D01*
X55150000Y-50650000D02*
X55150000Y-52750000D01*
X55150000Y-52750000D02*
X49050000Y-52750000D01*
X58850000Y-39850000D02*
X58850000Y-46950000D01*
X58850000Y-46950000D02*
X55150000Y-50650000D01*
%TO.C,J1*%
X16200000Y-31970000D02*
X16200000Y-53320000D01*
X16200000Y-53320000D02*
X19800000Y-53320000D01*
X19800000Y-31970000D02*
X16200000Y-31970000D01*
X19800000Y-53320000D02*
X19800000Y-31970000D01*
%TO.C,pico1*%
X20240000Y-15730000D02*
X20240000Y-69330000D01*
X20240000Y-69330000D02*
X43320000Y-69330000D01*
X43320000Y-15730000D02*
X20240000Y-15730000D01*
X43320000Y-69330000D02*
X43320000Y-15730000D01*
%TO.C,J4*%
X16200000Y-21575000D02*
X16200000Y-27725000D01*
X16200000Y-27725000D02*
X19800000Y-27725000D01*
X19800000Y-21575000D02*
X16200000Y-21575000D01*
X19800000Y-27725000D02*
X19800000Y-21575000D01*
%TO.C,J5*%
X16200000Y-53475000D02*
X16200000Y-59625000D01*
X16200000Y-59625000D02*
X19800000Y-59625000D01*
X19800000Y-53475000D02*
X16200000Y-53475000D01*
X19800000Y-59625000D02*
X19800000Y-53475000D01*
%TO.C,SW1*%
X44500000Y-20300000D02*
X44500000Y-31900000D01*
X44500000Y-31900000D02*
X57500000Y-31900000D01*
X57500000Y-20300000D02*
X44500000Y-20300000D01*
X57500000Y-31900000D02*
X57500000Y-20300000D01*
%TO.C,J2*%
X16200000Y-59675000D02*
X16200000Y-65825000D01*
X16200000Y-65825000D02*
X19800000Y-65825000D01*
X19800000Y-59675000D02*
X16200000Y-59675000D01*
X19800000Y-65825000D02*
X19800000Y-59675000D01*
%TO.C,J3*%
X57550000Y-22300000D02*
X57550000Y-28450000D01*
X57550000Y-28450000D02*
X61150000Y-28450000D01*
X61150000Y-22300000D02*
X57550000Y-22300000D01*
X61150000Y-28450000D02*
X61150000Y-22300000D01*
%TO.C,J7*%
X56050000Y-64600000D02*
X56050000Y-68200000D01*
X56050000Y-68200000D02*
X62200000Y-68200000D01*
X62200000Y-64600000D02*
X56050000Y-64600000D01*
X62200000Y-68200000D02*
X62200000Y-64600000D01*
%TD*%
M02*
