%TF.GenerationSoftware,KiCad,Pcbnew,9.0.3+dfsg-1*%
%TF.CreationDate,2026-01-20T19:32:03+01:00*%
%TF.ProjectId,inki,696e6b69-2e6b-4696-9361-645f70636258,rev?*%
%TF.SameCoordinates,Original*%
%TF.FileFunction,Legend,Top*%
%TF.FilePolarity,Positive*%
%FSLAX46Y46*%
G04 Gerber Fmt 4.6, Leading zero omitted, Abs format (unit mm)*
G04 Created by KiCad (PCBNEW 9.0.3+dfsg-1) date 2026-01-20 19:32:03*
%MOMM*%
%LPD*%
G01*
G04 APERTURE LIST*
%ADD10C,0.000000*%
%ADD11C,0.150000*%
%ADD12C,0.400000*%
%ADD13C,0.120000*%
%ADD14C,0.127000*%
%ADD15C,0.300000*%
G04 APERTURE END LIST*
D10*
G36*
X50412403Y-60725096D02*
G01*
X50419196Y-60725597D01*
X50425926Y-60726423D01*
X50432568Y-60727576D01*
X50439101Y-60729054D01*
X50445499Y-60730859D01*
X50451739Y-60732989D01*
X50457799Y-60735445D01*
X50463654Y-60738227D01*
X50469281Y-60741335D01*
X50474657Y-60744768D01*
X50479757Y-60748527D01*
X50484559Y-60752611D01*
X50489038Y-60757021D01*
X50493172Y-60761757D01*
X50496937Y-60766818D01*
X50502739Y-60774382D01*
X50512120Y-60785458D01*
X50524589Y-60799517D01*
X50539657Y-60816029D01*
X50575638Y-60854292D01*
X50595572Y-60874983D01*
X50616149Y-60896008D01*
X50637431Y-60918139D01*
X50658708Y-60941325D01*
X50679452Y-60964924D01*
X50699136Y-60988295D01*
X50717231Y-61010798D01*
X50733210Y-61031791D01*
X50740241Y-61041522D01*
X50746545Y-61050635D01*
X50752056Y-61059050D01*
X50756708Y-61066687D01*
X50764945Y-61081458D01*
X50773125Y-61097327D01*
X50781210Y-61114174D01*
X50789158Y-61131882D01*
X50804483Y-61169403D01*
X50818779Y-61208942D01*
X50831724Y-61249550D01*
X50842994Y-61290280D01*
X50852269Y-61330184D01*
X50856057Y-61349529D01*
X50859225Y-61368312D01*
X50861377Y-61384736D01*
X50863059Y-61402828D01*
X50864282Y-61422356D01*
X50865057Y-61443089D01*
X50865306Y-61487244D01*
X50863896Y-61533443D01*
X50860912Y-61579836D01*
X50856444Y-61624575D01*
X50850579Y-61665808D01*
X50847150Y-61684532D01*
X50843405Y-61701686D01*
X50835564Y-61731150D01*
X50826188Y-61760555D01*
X50815345Y-61789803D01*
X50803100Y-61818794D01*
X50789519Y-61847428D01*
X50774669Y-61875607D01*
X50758616Y-61903230D01*
X50741427Y-61930198D01*
X50723167Y-61956411D01*
X50703904Y-61981771D01*
X50683703Y-62006177D01*
X50662631Y-62029531D01*
X50640754Y-62051732D01*
X50618138Y-62072681D01*
X50594849Y-62092279D01*
X50570955Y-62110426D01*
X50558793Y-62119379D01*
X50545427Y-62129581D01*
X50531296Y-62140675D01*
X50516836Y-62152307D01*
X50502484Y-62164120D01*
X50488676Y-62175760D01*
X50475850Y-62186871D01*
X50464442Y-62197096D01*
X50448015Y-62211941D01*
X50441028Y-62217988D01*
X50434683Y-62223190D01*
X50428850Y-62227598D01*
X50423397Y-62231267D01*
X50420772Y-62232841D01*
X50418193Y-62234249D01*
X50415643Y-62235499D01*
X50413106Y-62236597D01*
X50410567Y-62237550D01*
X50408007Y-62238364D01*
X50405411Y-62239047D01*
X50402762Y-62239604D01*
X50400045Y-62240042D01*
X50397242Y-62240369D01*
X50391315Y-62240712D01*
X50384849Y-62240686D01*
X50377714Y-62240344D01*
X50369778Y-62239740D01*
X50360910Y-62238926D01*
X50349433Y-62237509D01*
X50338550Y-62235517D01*
X50333330Y-62234304D01*
X50328256Y-62232946D01*
X50323328Y-62231442D01*
X50318545Y-62229791D01*
X50313906Y-62227992D01*
X50309410Y-62226046D01*
X50305057Y-62223952D01*
X50300846Y-62221708D01*
X50296777Y-62219315D01*
X50292847Y-62216772D01*
X50289058Y-62214078D01*
X50285408Y-62211232D01*
X50281895Y-62208234D01*
X50278521Y-62205084D01*
X50275283Y-62201780D01*
X50272182Y-62198323D01*
X50269215Y-62194711D01*
X50266384Y-62190944D01*
X50263686Y-62187022D01*
X50261121Y-62182943D01*
X50258689Y-62178708D01*
X50256389Y-62174315D01*
X50254219Y-62169764D01*
X50252180Y-62165054D01*
X50248489Y-62155157D01*
X50245310Y-62144618D01*
X50243718Y-62137951D01*
X50242519Y-62131271D01*
X50241705Y-62124595D01*
X50241265Y-62117935D01*
X50241190Y-62111307D01*
X50241470Y-62104725D01*
X50242096Y-62098205D01*
X50243057Y-62091760D01*
X50244345Y-62085406D01*
X50245949Y-62079157D01*
X50247859Y-62073028D01*
X50250067Y-62067034D01*
X50252563Y-62061189D01*
X50255336Y-62055507D01*
X50258377Y-62050005D01*
X50261677Y-62044695D01*
X50265226Y-62039594D01*
X50269014Y-62034715D01*
X50273032Y-62030074D01*
X50277269Y-62025685D01*
X50281717Y-62021562D01*
X50286365Y-62017721D01*
X50291204Y-62014176D01*
X50296224Y-62010942D01*
X50301415Y-62008034D01*
X50306769Y-62005465D01*
X50312275Y-62003251D01*
X50317923Y-62001407D01*
X50323705Y-61999947D01*
X50329609Y-61998886D01*
X50335627Y-61998239D01*
X50341749Y-61998020D01*
X50346686Y-61997749D01*
X50351919Y-61996945D01*
X50357432Y-61995623D01*
X50363207Y-61993799D01*
X50375481Y-61988700D01*
X50388608Y-61981766D01*
X50402456Y-61973117D01*
X50416893Y-61962871D01*
X50431786Y-61951145D01*
X50447003Y-61938060D01*
X50462412Y-61923732D01*
X50477879Y-61908281D01*
X50493274Y-61891825D01*
X50508463Y-61874482D01*
X50523315Y-61856371D01*
X50537696Y-61837611D01*
X50551475Y-61818319D01*
X50564519Y-61798615D01*
X50577211Y-61776827D01*
X50588882Y-61753109D01*
X50599502Y-61727681D01*
X50609042Y-61700765D01*
X50617469Y-61672580D01*
X50624753Y-61643347D01*
X50630865Y-61613286D01*
X50635772Y-61582617D01*
X50639445Y-61551562D01*
X50641853Y-61520340D01*
X50642964Y-61489172D01*
X50642750Y-61458278D01*
X50641178Y-61427879D01*
X50638218Y-61398195D01*
X50633841Y-61369447D01*
X50628014Y-61341854D01*
X50620242Y-61313365D01*
X50610858Y-61284932D01*
X50599958Y-61256688D01*
X50587638Y-61228770D01*
X50573994Y-61201314D01*
X50559122Y-61174455D01*
X50543118Y-61148329D01*
X50526078Y-61123071D01*
X50508098Y-61098818D01*
X50489273Y-61075705D01*
X50469700Y-61053867D01*
X50449475Y-61033440D01*
X50428693Y-61014560D01*
X50407451Y-60997363D01*
X50385845Y-60981984D01*
X50374935Y-60975018D01*
X50363970Y-60968559D01*
X50355915Y-60963811D01*
X50348251Y-60958885D01*
X50340978Y-60953788D01*
X50334100Y-60948528D01*
X50327619Y-60943112D01*
X50321535Y-60937548D01*
X50315852Y-60931845D01*
X50310572Y-60926010D01*
X50305696Y-60920050D01*
X50301227Y-60913973D01*
X50297166Y-60907788D01*
X50293517Y-60901501D01*
X50290280Y-60895121D01*
X50287458Y-60888656D01*
X50285054Y-60882113D01*
X50283068Y-60875500D01*
X50281504Y-60868824D01*
X50280363Y-60862094D01*
X50279647Y-60855318D01*
X50279359Y-60848502D01*
X50279500Y-60841655D01*
X50280073Y-60834785D01*
X50281079Y-60827899D01*
X50282521Y-60821005D01*
X50284401Y-60814111D01*
X50286721Y-60807224D01*
X50289482Y-60800353D01*
X50292688Y-60793505D01*
X50296340Y-60786688D01*
X50300439Y-60779910D01*
X50304990Y-60773178D01*
X50309992Y-60766500D01*
X50314267Y-60761453D01*
X50318878Y-60756732D01*
X50323801Y-60752338D01*
X50329014Y-60748271D01*
X50334493Y-60744530D01*
X50340214Y-60741115D01*
X50346153Y-60738027D01*
X50352288Y-60735266D01*
X50358594Y-60732831D01*
X50365049Y-60730722D01*
X50371628Y-60728940D01*
X50378308Y-60727484D01*
X50385066Y-60726354D01*
X50391878Y-60725550D01*
X50398720Y-60725073D01*
X50405570Y-60724921D01*
X50412403Y-60725096D01*
G37*
G36*
X47633140Y-63651614D02*
G01*
X47643368Y-63652632D01*
X47653544Y-63654156D01*
X47663573Y-63656175D01*
X47673362Y-63658678D01*
X47682816Y-63661652D01*
X47691841Y-63665087D01*
X47700342Y-63668969D01*
X47708227Y-63673289D01*
X47715399Y-63678032D01*
X47722741Y-63683873D01*
X47729770Y-63690413D01*
X47736449Y-63697574D01*
X47742745Y-63705279D01*
X47748621Y-63713448D01*
X47754043Y-63722004D01*
X47758975Y-63730868D01*
X47763383Y-63739961D01*
X47767229Y-63749206D01*
X47770480Y-63758523D01*
X47773100Y-63767835D01*
X47775054Y-63777063D01*
X47776307Y-63786129D01*
X47776822Y-63794954D01*
X47776566Y-63803460D01*
X47776137Y-63807569D01*
X47775502Y-63811569D01*
X47774543Y-63815546D01*
X47773027Y-63820294D01*
X47770986Y-63825750D01*
X47768454Y-63831853D01*
X47762047Y-63845750D01*
X47754066Y-63861487D01*
X47744774Y-63878565D01*
X47734432Y-63896488D01*
X47723303Y-63914758D01*
X47711649Y-63932877D01*
X47699992Y-63950802D01*
X47689116Y-63968185D01*
X47678987Y-63985108D01*
X47669570Y-64001653D01*
X47660832Y-64017900D01*
X47652738Y-64033931D01*
X47645254Y-64049829D01*
X47638346Y-64065675D01*
X47631980Y-64081550D01*
X47626121Y-64097536D01*
X47620736Y-64113714D01*
X47615790Y-64130167D01*
X47611249Y-64146976D01*
X47607079Y-64164222D01*
X47603246Y-64181988D01*
X47599716Y-64200354D01*
X47595371Y-64229922D01*
X47592938Y-64259951D01*
X47592380Y-64290319D01*
X47593659Y-64320902D01*
X47596739Y-64351578D01*
X47601581Y-64382222D01*
X47608150Y-64412713D01*
X47616407Y-64442928D01*
X47626316Y-64472742D01*
X47637838Y-64502034D01*
X47650938Y-64530680D01*
X47665578Y-64558557D01*
X47681720Y-64585543D01*
X47699327Y-64611514D01*
X47718362Y-64636347D01*
X47738788Y-64659919D01*
X47747238Y-64669360D01*
X47755757Y-64679386D01*
X47764112Y-64689691D01*
X47772073Y-64699969D01*
X47779406Y-64709912D01*
X47785881Y-64719215D01*
X47788724Y-64723530D01*
X47791265Y-64727569D01*
X47793475Y-64731296D01*
X47795326Y-64734670D01*
X47798662Y-64741221D01*
X47801577Y-64747327D01*
X47804077Y-64753073D01*
X47806166Y-64758549D01*
X47807849Y-64763842D01*
X47809131Y-64769038D01*
X47810017Y-64774225D01*
X47810512Y-64779491D01*
X47810621Y-64784924D01*
X47810349Y-64790610D01*
X47809701Y-64796638D01*
X47808682Y-64803094D01*
X47807296Y-64810066D01*
X47805549Y-64817642D01*
X47803445Y-64825909D01*
X47800990Y-64834955D01*
X47798800Y-64842051D01*
X47796225Y-64848985D01*
X47793280Y-64855748D01*
X47789980Y-64862333D01*
X47786339Y-64868730D01*
X47782371Y-64874932D01*
X47778092Y-64880930D01*
X47773517Y-64886717D01*
X47768659Y-64892284D01*
X47763533Y-64897623D01*
X47758154Y-64902725D01*
X47752536Y-64907583D01*
X47746695Y-64912188D01*
X47740644Y-64916532D01*
X47727974Y-64924405D01*
X47714641Y-64931136D01*
X47700763Y-64936658D01*
X47693657Y-64938946D01*
X47686457Y-64940908D01*
X47679181Y-64942534D01*
X47671840Y-64943818D01*
X47664452Y-64944750D01*
X47657029Y-64945323D01*
X47649587Y-64945529D01*
X47642140Y-64945359D01*
X47634703Y-64944804D01*
X47627290Y-64943858D01*
X47619917Y-64942511D01*
X47612597Y-64940755D01*
X47603080Y-64937663D01*
X47593316Y-64933468D01*
X47573154Y-64921924D01*
X47552314Y-64906433D01*
X47531003Y-64887305D01*
X47509426Y-64864851D01*
X47487787Y-64839382D01*
X47466291Y-64811209D01*
X47445144Y-64780642D01*
X47424551Y-64747992D01*
X47404717Y-64713569D01*
X47385847Y-64677684D01*
X47368146Y-64640648D01*
X47351820Y-64602772D01*
X47337072Y-64564365D01*
X47324109Y-64525739D01*
X47313135Y-64487204D01*
X47308406Y-64466918D01*
X47304251Y-64445064D01*
X47300673Y-64421866D01*
X47297675Y-64397549D01*
X47295260Y-64372339D01*
X47293432Y-64346460D01*
X47292192Y-64320136D01*
X47291545Y-64293594D01*
X47291492Y-64267058D01*
X47292038Y-64240753D01*
X47293185Y-64214903D01*
X47294935Y-64189734D01*
X47297292Y-64165471D01*
X47300259Y-64142338D01*
X47303839Y-64120560D01*
X47308035Y-64100363D01*
X47317338Y-64064152D01*
X47328340Y-64027784D01*
X47340877Y-63991541D01*
X47354782Y-63955703D01*
X47369889Y-63920553D01*
X47386033Y-63886372D01*
X47403047Y-63853439D01*
X47420766Y-63822038D01*
X47439024Y-63792448D01*
X47457655Y-63764951D01*
X47476493Y-63739829D01*
X47495372Y-63717362D01*
X47514127Y-63697831D01*
X47523406Y-63689255D01*
X47532592Y-63681519D01*
X47541663Y-63674657D01*
X47550600Y-63668705D01*
X47559381Y-63663698D01*
X47567986Y-63659672D01*
X47575944Y-63656812D01*
X47584509Y-63654542D01*
X47593586Y-63652849D01*
X47603082Y-63651721D01*
X47612903Y-63651147D01*
X47622953Y-63651116D01*
X47633140Y-63651614D01*
G37*
G36*
X47165106Y-57648348D02*
G01*
X47168490Y-57648577D01*
X47171948Y-57648953D01*
X47175471Y-57649471D01*
X47182672Y-57650910D01*
X47190015Y-57652854D01*
X47197422Y-57655262D01*
X47204816Y-57658092D01*
X47212119Y-57661303D01*
X47219253Y-57664855D01*
X47226140Y-57668707D01*
X47232703Y-57672816D01*
X47238865Y-57677143D01*
X47244546Y-57681646D01*
X47249670Y-57686285D01*
X47251998Y-57688642D01*
X47254158Y-57691017D01*
X47256140Y-57693406D01*
X47257934Y-57695803D01*
X47259530Y-57698203D01*
X47260919Y-57700601D01*
X47263994Y-57706864D01*
X47266513Y-57713273D01*
X47268449Y-57720005D01*
X47269774Y-57727237D01*
X47270464Y-57735149D01*
X47270490Y-57743916D01*
X47269827Y-57753718D01*
X47268447Y-57764731D01*
X47266325Y-57777134D01*
X47263434Y-57791104D01*
X47255237Y-57824456D01*
X47243645Y-57866210D01*
X47228443Y-57917788D01*
X47219806Y-57946919D01*
X47211893Y-57974227D01*
X47204868Y-57999105D01*
X47198894Y-58020946D01*
X47194133Y-58039142D01*
X47190747Y-58053086D01*
X47189621Y-58058275D01*
X47188901Y-58062173D01*
X47188605Y-58064704D01*
X47188624Y-58065434D01*
X47188756Y-58065793D01*
X47194464Y-58064214D01*
X47209394Y-58058397D01*
X47262862Y-58035802D01*
X47341053Y-58001512D01*
X47435858Y-57959028D01*
X47537174Y-57913345D01*
X47578598Y-57894878D01*
X47614501Y-57879123D01*
X47630531Y-57872215D01*
X47645359Y-57865927D01*
X47659046Y-57860241D01*
X47671650Y-57855138D01*
X47683231Y-57850597D01*
X47693849Y-57846601D01*
X47703563Y-57843130D01*
X47712433Y-57840166D01*
X47720518Y-57837688D01*
X47727878Y-57835677D01*
X47734572Y-57834116D01*
X47740660Y-57832983D01*
X47746202Y-57832262D01*
X47751257Y-57831931D01*
X47755885Y-57831973D01*
X47760144Y-57832368D01*
X47764096Y-57833096D01*
X47767799Y-57834140D01*
X47771312Y-57835479D01*
X47774696Y-57837095D01*
X47778010Y-57838968D01*
X47781314Y-57841079D01*
X47784666Y-57843410D01*
X47788127Y-57845941D01*
X47791122Y-57848245D01*
X47794165Y-57850744D01*
X47797237Y-57853414D01*
X47800314Y-57856229D01*
X47803377Y-57859167D01*
X47806402Y-57862204D01*
X47809370Y-57865315D01*
X47812258Y-57868476D01*
X47815046Y-57871664D01*
X47817710Y-57874855D01*
X47820232Y-57878023D01*
X47822588Y-57881147D01*
X47824757Y-57884201D01*
X47826718Y-57887162D01*
X47828450Y-57890005D01*
X47829931Y-57892707D01*
X47832560Y-57898007D01*
X47835019Y-57903318D01*
X47837254Y-57908497D01*
X47839210Y-57913403D01*
X47840066Y-57915709D01*
X47840832Y-57917893D01*
X47841502Y-57919937D01*
X47842068Y-57921824D01*
X47842523Y-57923535D01*
X47842862Y-57925054D01*
X47843076Y-57926361D01*
X47843160Y-57927440D01*
X47836481Y-57953698D01*
X47818180Y-58018322D01*
X47757904Y-58223773D01*
X47737798Y-58290524D01*
X47719507Y-58349545D01*
X47703074Y-58400717D01*
X47688539Y-58443919D01*
X47675946Y-58479031D01*
X47670390Y-58493516D01*
X47665335Y-58505933D01*
X47660785Y-58516267D01*
X47656747Y-58524504D01*
X47653226Y-58530628D01*
X47650226Y-58534624D01*
X47646989Y-58537884D01*
X47643592Y-58540913D01*
X47640047Y-58543714D01*
X47636362Y-58546286D01*
X47632547Y-58548630D01*
X47628610Y-58550746D01*
X47624562Y-58552636D01*
X47620411Y-58554299D01*
X47616168Y-58555735D01*
X47611840Y-58556946D01*
X47607439Y-58557932D01*
X47602972Y-58558693D01*
X47598450Y-58559230D01*
X47593882Y-58559544D01*
X47589277Y-58559634D01*
X47584644Y-58559502D01*
X47579993Y-58559147D01*
X47575334Y-58558571D01*
X47570675Y-58557774D01*
X47566026Y-58556755D01*
X47561396Y-58555517D01*
X47556795Y-58554059D01*
X47552232Y-58552382D01*
X47547716Y-58550485D01*
X47543257Y-58548371D01*
X47538864Y-58546039D01*
X47534546Y-58543490D01*
X47530314Y-58540724D01*
X47526175Y-58537741D01*
X47522140Y-58534543D01*
X47518218Y-58531129D01*
X47514418Y-58527501D01*
X47511267Y-58524255D01*
X47508204Y-58520916D01*
X47505245Y-58517508D01*
X47502406Y-58514057D01*
X47499704Y-58510587D01*
X47497153Y-58507124D01*
X47494769Y-58503693D01*
X47492570Y-58500320D01*
X47490569Y-58497029D01*
X47488784Y-58493845D01*
X47487230Y-58490794D01*
X47485923Y-58487901D01*
X47484879Y-58485191D01*
X47484114Y-58482689D01*
X47483643Y-58480421D01*
X47483523Y-58479382D01*
X47483482Y-58478411D01*
X47484473Y-58471448D01*
X47487312Y-58458541D01*
X47497740Y-58417860D01*
X47513174Y-58362295D01*
X47532020Y-58297773D01*
X47541698Y-58264933D01*
X47550586Y-58233908D01*
X47558499Y-58205405D01*
X47565255Y-58180132D01*
X47570667Y-58158794D01*
X47574551Y-58142098D01*
X47575863Y-58135712D01*
X47576724Y-58130752D01*
X47577110Y-58127305D01*
X47576999Y-58125461D01*
X47575264Y-58125087D01*
X47570884Y-58125952D01*
X47554740Y-58131174D01*
X47529667Y-58140674D01*
X47496765Y-58153995D01*
X47411871Y-58190283D01*
X47308857Y-58236397D01*
X47255098Y-58260658D01*
X47203764Y-58283295D01*
X47156065Y-58303812D01*
X47113207Y-58321714D01*
X47076400Y-58336505D01*
X47046850Y-58347690D01*
X47035174Y-58351775D01*
X47025766Y-58354772D01*
X47018776Y-58356620D01*
X47014356Y-58357257D01*
X47010544Y-58357120D01*
X47006678Y-58356690D01*
X47002770Y-58355979D01*
X46998831Y-58355000D01*
X46994873Y-58353762D01*
X46990907Y-58352279D01*
X46986945Y-58350561D01*
X46982997Y-58348621D01*
X46979077Y-58346468D01*
X46975194Y-58344116D01*
X46967588Y-58338857D01*
X46960271Y-58332936D01*
X46953335Y-58326445D01*
X46946872Y-58319476D01*
X46940974Y-58312121D01*
X46935731Y-58304473D01*
X46933384Y-58300568D01*
X46931236Y-58296623D01*
X46929297Y-58292652D01*
X46927580Y-58288664D01*
X46926096Y-58284672D01*
X46924856Y-58280687D01*
X46923871Y-58276721D01*
X46923154Y-58272785D01*
X46922715Y-58268890D01*
X46922566Y-58265049D01*
X46924196Y-58253438D01*
X46928866Y-58231978D01*
X46946021Y-58164431D01*
X46971410Y-58072245D01*
X47002414Y-57965256D01*
X47017515Y-57914606D01*
X47031164Y-57869594D01*
X47043524Y-57829893D01*
X47054761Y-57795176D01*
X47060009Y-57779585D01*
X47065038Y-57765116D01*
X47069868Y-57751731D01*
X47074520Y-57739386D01*
X47079014Y-57728043D01*
X47083372Y-57717659D01*
X47087613Y-57708194D01*
X47091758Y-57699607D01*
X47095828Y-57691857D01*
X47099842Y-57684904D01*
X47103823Y-57678706D01*
X47107790Y-57673222D01*
X47111763Y-57668412D01*
X47115765Y-57664235D01*
X47119814Y-57660650D01*
X47123931Y-57657616D01*
X47128138Y-57655091D01*
X47132455Y-57653036D01*
X47136901Y-57651410D01*
X47141499Y-57650170D01*
X47146267Y-57649278D01*
X47151228Y-57648691D01*
X47156401Y-57648368D01*
X47161807Y-57648270D01*
X47165106Y-57648348D01*
G37*
G36*
X47128614Y-63184859D02*
G01*
X47141647Y-63185736D01*
X47150924Y-63186564D01*
X47159357Y-63187460D01*
X47167029Y-63188463D01*
X47174025Y-63189612D01*
X47180431Y-63190945D01*
X47183439Y-63191692D01*
X47186331Y-63192500D01*
X47189118Y-63193374D01*
X47191810Y-63194318D01*
X47194419Y-63195337D01*
X47196953Y-63196435D01*
X47199425Y-63197619D01*
X47201845Y-63198892D01*
X47204224Y-63200260D01*
X47206571Y-63201727D01*
X47208898Y-63203297D01*
X47211215Y-63204977D01*
X47213533Y-63206771D01*
X47215863Y-63208683D01*
X47220599Y-63212883D01*
X47225508Y-63217615D01*
X47230676Y-63222918D01*
X47236186Y-63228832D01*
X47247893Y-63242422D01*
X47253105Y-63249143D01*
X47257889Y-63255825D01*
X47262244Y-63262475D01*
X47266169Y-63269101D01*
X47269663Y-63275713D01*
X47272726Y-63282316D01*
X47275357Y-63288919D01*
X47277555Y-63295530D01*
X47279320Y-63302157D01*
X47280650Y-63308808D01*
X47281546Y-63315490D01*
X47282006Y-63322211D01*
X47282029Y-63328980D01*
X47281615Y-63335803D01*
X47280764Y-63342689D01*
X47279474Y-63349646D01*
X47277745Y-63356682D01*
X47275576Y-63363804D01*
X47272966Y-63371020D01*
X47269914Y-63378338D01*
X47266421Y-63385766D01*
X47262484Y-63393312D01*
X47253279Y-63408789D01*
X47242295Y-63424831D01*
X47229524Y-63441501D01*
X47214961Y-63458862D01*
X47194236Y-63483535D01*
X47173922Y-63509533D01*
X47154063Y-63536766D01*
X47134704Y-63565148D01*
X47115891Y-63594590D01*
X47097667Y-63625004D01*
X47080079Y-63656301D01*
X47063171Y-63688394D01*
X47046988Y-63721195D01*
X47031575Y-63754615D01*
X47016977Y-63788566D01*
X47003238Y-63822960D01*
X46990404Y-63857710D01*
X46978520Y-63892726D01*
X46967631Y-63927921D01*
X46957781Y-63963206D01*
X46951182Y-63990737D01*
X46945239Y-64020637D01*
X46939964Y-64052570D01*
X46935370Y-64086199D01*
X46931468Y-64121188D01*
X46928273Y-64157201D01*
X46924048Y-64230953D01*
X46922796Y-64304764D01*
X46923315Y-64340850D01*
X46924615Y-64375943D01*
X46926708Y-64409705D01*
X46929607Y-64441800D01*
X46933323Y-64471892D01*
X46937870Y-64499645D01*
X46947169Y-64545043D01*
X46957946Y-64590086D01*
X46970161Y-64634687D01*
X46983772Y-64678760D01*
X46998738Y-64722219D01*
X47015019Y-64764977D01*
X47032572Y-64806948D01*
X47051357Y-64848046D01*
X47071332Y-64888183D01*
X47092456Y-64927274D01*
X47114688Y-64965233D01*
X47137987Y-65001972D01*
X47162311Y-65037407D01*
X47187620Y-65071449D01*
X47213871Y-65104013D01*
X47241025Y-65135013D01*
X47251819Y-65147074D01*
X47262534Y-65159519D01*
X47272889Y-65171988D01*
X47282604Y-65184124D01*
X47291398Y-65195571D01*
X47298991Y-65205969D01*
X47302249Y-65210664D01*
X47305101Y-65214962D01*
X47307513Y-65218820D01*
X47309449Y-65222192D01*
X47309449Y-65222193D01*
X47313101Y-65229885D01*
X47316103Y-65238199D01*
X47318462Y-65247051D01*
X47320189Y-65256352D01*
X47321290Y-65266019D01*
X47321775Y-65275964D01*
X47321652Y-65286102D01*
X47320930Y-65296346D01*
X47319617Y-65306612D01*
X47317722Y-65316812D01*
X47315253Y-65326861D01*
X47312218Y-65336674D01*
X47308627Y-65346163D01*
X47304488Y-65355243D01*
X47299810Y-65363829D01*
X47294600Y-65371833D01*
X47290453Y-65377338D01*
X47286013Y-65382628D01*
X47281297Y-65387697D01*
X47276319Y-65392543D01*
X47271095Y-65397162D01*
X47265640Y-65401549D01*
X47254097Y-65409616D01*
X47241812Y-65416712D01*
X47228907Y-65422808D01*
X47215504Y-65427874D01*
X47201725Y-65431878D01*
X47187692Y-65434791D01*
X47173527Y-65436583D01*
X47159351Y-65437222D01*
X47145287Y-65436680D01*
X47131455Y-65434925D01*
X47124665Y-65433583D01*
X47117979Y-65431927D01*
X47111413Y-65429952D01*
X47104980Y-65427656D01*
X47098698Y-65425033D01*
X47092580Y-65422081D01*
X47077647Y-65412939D01*
X47061153Y-65400259D01*
X47043296Y-65384302D01*
X47024269Y-65365331D01*
X47004268Y-65343607D01*
X46983490Y-65319392D01*
X46962129Y-65292948D01*
X46940380Y-65264536D01*
X46918441Y-65234420D01*
X46896505Y-65202860D01*
X46874768Y-65170119D01*
X46853426Y-65136458D01*
X46832675Y-65102140D01*
X46812710Y-65067425D01*
X46793725Y-65032577D01*
X46775918Y-64997857D01*
X46727205Y-64889865D01*
X46686859Y-64779515D01*
X46654821Y-64667333D01*
X46631033Y-64553845D01*
X46615436Y-64439576D01*
X46607971Y-64325052D01*
X46608579Y-64210798D01*
X46617202Y-64097341D01*
X46633781Y-63985205D01*
X46658257Y-63874916D01*
X46690571Y-63767000D01*
X46730666Y-63661983D01*
X46778481Y-63560390D01*
X46833959Y-63462746D01*
X46897041Y-63369578D01*
X46967667Y-63281411D01*
X46981407Y-63265810D01*
X46994095Y-63251861D01*
X47005875Y-63239484D01*
X47016889Y-63228600D01*
X47027281Y-63219130D01*
X47037196Y-63210997D01*
X47042019Y-63207406D01*
X47046776Y-63204119D01*
X47051486Y-63201127D01*
X47056166Y-63198419D01*
X47060834Y-63195986D01*
X47065509Y-63193818D01*
X47070207Y-63191905D01*
X47074948Y-63190236D01*
X47079748Y-63188803D01*
X47084627Y-63187595D01*
X47089601Y-63186603D01*
X47094689Y-63185816D01*
X47099909Y-63185225D01*
X47105279Y-63184819D01*
X47116539Y-63184527D01*
X47128614Y-63184859D01*
G37*
G36*
X49724909Y-60104068D02*
G01*
X49738135Y-60105444D01*
X49751571Y-60107704D01*
X49765185Y-60110819D01*
X49778945Y-60114761D01*
X49792818Y-60119502D01*
X49806773Y-60125015D01*
X49820777Y-60131271D01*
X49848806Y-60145902D01*
X49876648Y-60163170D01*
X49904046Y-60182852D01*
X49930743Y-60204724D01*
X49956483Y-60228563D01*
X49981008Y-60254144D01*
X50004063Y-60281244D01*
X50025389Y-60309638D01*
X50044731Y-60339103D01*
X50061832Y-60369416D01*
X50076435Y-60400352D01*
X50082720Y-60415983D01*
X50088283Y-60431687D01*
X50089158Y-60434988D01*
X50089977Y-60439386D01*
X50091440Y-60451178D01*
X50092649Y-60466474D01*
X50093580Y-60484687D01*
X50094210Y-60505229D01*
X50094513Y-60527513D01*
X50094468Y-60550952D01*
X50094051Y-60574957D01*
X50092960Y-60610446D01*
X50092290Y-60625660D01*
X50091490Y-60639436D01*
X50090524Y-60651962D01*
X50089358Y-60663425D01*
X50087955Y-60674010D01*
X50086280Y-60683905D01*
X50084298Y-60693298D01*
X50081973Y-60702375D01*
X50079271Y-60711322D01*
X50076154Y-60720328D01*
X50072588Y-60729578D01*
X50068538Y-60739260D01*
X50063969Y-60749560D01*
X50058843Y-60760667D01*
X50048181Y-60782340D01*
X50037019Y-60802801D01*
X50025283Y-60822114D01*
X50012901Y-60840340D01*
X49999801Y-60857545D01*
X49985909Y-60873791D01*
X49971154Y-60889142D01*
X49955462Y-60903661D01*
X49938760Y-60917412D01*
X49920977Y-60930457D01*
X49902039Y-60942861D01*
X49881874Y-60954687D01*
X49860408Y-60965998D01*
X49837571Y-60976858D01*
X49813288Y-60987330D01*
X49787487Y-60997477D01*
X49766377Y-61004987D01*
X49746263Y-61011243D01*
X49736574Y-61013900D01*
X49727126Y-61016242D01*
X49717916Y-61018268D01*
X49708942Y-61019980D01*
X49700201Y-61021375D01*
X49691691Y-61022455D01*
X49683408Y-61023217D01*
X49675350Y-61023663D01*
X49667514Y-61023791D01*
X49659898Y-61023602D01*
X49652498Y-61023094D01*
X49645313Y-61022268D01*
X49638339Y-61021124D01*
X49631573Y-61019660D01*
X49625014Y-61017876D01*
X49618658Y-61015772D01*
X49612502Y-61013348D01*
X49606544Y-61010603D01*
X49600781Y-61007538D01*
X49595211Y-61004150D01*
X49589830Y-61000441D01*
X49584636Y-60996409D01*
X49579627Y-60992055D01*
X49574799Y-60987378D01*
X49570150Y-60982377D01*
X49565677Y-60977053D01*
X49561377Y-60971405D01*
X49557248Y-60965432D01*
X49552960Y-60958605D01*
X49549157Y-60951873D01*
X49545838Y-60945238D01*
X49543003Y-60938700D01*
X49540650Y-60932260D01*
X49538779Y-60925922D01*
X49537388Y-60919685D01*
X49536477Y-60913552D01*
X49536046Y-60907524D01*
X49536092Y-60901602D01*
X49536615Y-60895788D01*
X49537614Y-60890083D01*
X49539089Y-60884489D01*
X49541039Y-60879007D01*
X49543462Y-60873639D01*
X49546357Y-60868386D01*
X49549725Y-60863250D01*
X49553563Y-60858232D01*
X49557872Y-60853333D01*
X49562649Y-60848555D01*
X49567895Y-60843900D01*
X49573609Y-60839369D01*
X49579788Y-60834964D01*
X49586434Y-60830685D01*
X49593544Y-60826535D01*
X49601118Y-60822514D01*
X49609155Y-60818625D01*
X49617655Y-60814869D01*
X49636036Y-60807760D01*
X49656255Y-60801201D01*
X49684409Y-60792436D01*
X49710134Y-60783554D01*
X49733533Y-60774456D01*
X49754708Y-60765041D01*
X49764493Y-60760184D01*
X49773760Y-60755211D01*
X49782522Y-60750110D01*
X49790791Y-60744868D01*
X49798581Y-60739473D01*
X49805904Y-60733912D01*
X49812773Y-60728173D01*
X49819200Y-60722244D01*
X49825199Y-60716112D01*
X49830782Y-60709765D01*
X49835961Y-60703191D01*
X49840751Y-60696377D01*
X49845162Y-60689311D01*
X49849209Y-60681980D01*
X49852903Y-60674372D01*
X49856259Y-60666475D01*
X49859287Y-60658276D01*
X49862002Y-60649763D01*
X49864415Y-60640923D01*
X49866540Y-60631745D01*
X49869976Y-60612323D01*
X49872411Y-60591397D01*
X49873309Y-60579136D01*
X49873769Y-60567043D01*
X49873796Y-60555128D01*
X49873396Y-60543398D01*
X49872574Y-60531863D01*
X49871335Y-60520532D01*
X49869686Y-60509414D01*
X49867632Y-60498517D01*
X49865177Y-60487852D01*
X49862328Y-60477426D01*
X49859090Y-60467249D01*
X49855468Y-60457330D01*
X49851469Y-60447677D01*
X49847097Y-60438300D01*
X49842357Y-60429207D01*
X49837257Y-60420408D01*
X49831799Y-60411912D01*
X49825992Y-60403727D01*
X49819839Y-60395862D01*
X49813346Y-60388327D01*
X49806519Y-60381130D01*
X49799363Y-60374280D01*
X49791884Y-60367787D01*
X49784087Y-60361659D01*
X49775978Y-60355905D01*
X49767562Y-60350535D01*
X49758844Y-60345556D01*
X49749830Y-60340979D01*
X49740526Y-60336812D01*
X49730937Y-60333064D01*
X49721068Y-60329744D01*
X49710925Y-60326860D01*
X49695075Y-60322684D01*
X49680684Y-60318728D01*
X49667666Y-60314947D01*
X49655933Y-60311297D01*
X49645400Y-60307733D01*
X49640556Y-60305970D01*
X49635978Y-60304211D01*
X49631657Y-60302451D01*
X49627582Y-60300684D01*
X49623741Y-60298906D01*
X49620123Y-60297109D01*
X49616718Y-60295290D01*
X49613515Y-60293441D01*
X49610503Y-60291558D01*
X49607671Y-60289635D01*
X49605008Y-60287666D01*
X49602504Y-60285645D01*
X49600147Y-60283568D01*
X49597926Y-60281429D01*
X49595832Y-60279221D01*
X49593852Y-60276939D01*
X49591976Y-60274578D01*
X49590193Y-60272133D01*
X49588493Y-60269596D01*
X49586863Y-60266964D01*
X49585294Y-60264230D01*
X49583775Y-60261388D01*
X49579999Y-60253537D01*
X49576820Y-60245758D01*
X49574227Y-60238064D01*
X49572211Y-60230465D01*
X49570764Y-60222973D01*
X49569874Y-60215600D01*
X49569534Y-60208358D01*
X49569733Y-60201258D01*
X49570463Y-60194311D01*
X49571713Y-60187530D01*
X49573475Y-60180926D01*
X49575738Y-60174510D01*
X49578494Y-60168293D01*
X49581734Y-60162289D01*
X49585447Y-60156508D01*
X49589624Y-60150961D01*
X49594256Y-60145661D01*
X49599334Y-60140619D01*
X49604847Y-60135846D01*
X49610788Y-60131355D01*
X49617145Y-60127156D01*
X49623911Y-60123261D01*
X49631075Y-60119683D01*
X49638628Y-60116432D01*
X49646560Y-60113520D01*
X49654863Y-60110958D01*
X49663526Y-60108759D01*
X49672541Y-60106934D01*
X49681898Y-60105494D01*
X49691587Y-60104451D01*
X49701599Y-60103817D01*
X49711925Y-60103603D01*
X49724909Y-60104068D01*
G37*
G36*
X46809367Y-58579668D02*
G01*
X46814152Y-58579858D01*
X46823652Y-58580606D01*
X46833011Y-58581824D01*
X46842175Y-58583488D01*
X46851092Y-58585573D01*
X46859706Y-58588055D01*
X46867963Y-58590912D01*
X46875809Y-58594118D01*
X46879561Y-58595845D01*
X46883190Y-58597650D01*
X46886690Y-58599531D01*
X46890053Y-58601484D01*
X46893272Y-58603506D01*
X46896341Y-58605596D01*
X46899254Y-58607748D01*
X46902003Y-58609961D01*
X46904581Y-58612232D01*
X46906982Y-58614557D01*
X46909200Y-58616933D01*
X46911226Y-58619358D01*
X46913055Y-58621828D01*
X46914680Y-58624341D01*
X46916094Y-58626894D01*
X46917290Y-58629483D01*
X46919577Y-58638790D01*
X46923077Y-58658121D01*
X46933013Y-58722115D01*
X46945706Y-58811990D01*
X46959762Y-58918270D01*
X46974618Y-59034483D01*
X46980458Y-59081348D01*
X46985240Y-59121535D01*
X46987235Y-59139315D01*
X46988966Y-59155656D01*
X46990433Y-59170632D01*
X46991637Y-59184322D01*
X46992578Y-59196801D01*
X46993255Y-59208146D01*
X46993670Y-59218433D01*
X46993822Y-59227739D01*
X46993711Y-59236141D01*
X46993338Y-59243714D01*
X46992703Y-59250536D01*
X46991806Y-59256683D01*
X46991259Y-59259527D01*
X46990647Y-59262230D01*
X46989969Y-59264804D01*
X46989226Y-59267256D01*
X46988418Y-59269597D01*
X46987544Y-59271836D01*
X46986605Y-59273983D01*
X46985600Y-59276047D01*
X46983396Y-59279965D01*
X46980930Y-59283667D01*
X46978203Y-59287229D01*
X46975216Y-59290727D01*
X46971969Y-59294239D01*
X46968461Y-59297841D01*
X46960666Y-59305620D01*
X46955317Y-59310870D01*
X46950261Y-59315609D01*
X46945445Y-59319860D01*
X46940816Y-59323648D01*
X46936321Y-59326995D01*
X46931908Y-59329927D01*
X46927523Y-59332467D01*
X46923114Y-59334639D01*
X46918627Y-59336465D01*
X46914009Y-59337971D01*
X46909208Y-59339180D01*
X46904170Y-59340116D01*
X46898843Y-59340802D01*
X46893173Y-59341263D01*
X46887108Y-59341522D01*
X46880595Y-59341603D01*
X46864983Y-59341430D01*
X46851169Y-59340690D01*
X46838993Y-59339058D01*
X46828298Y-59336205D01*
X46823456Y-59334219D01*
X46818926Y-59331804D01*
X46814686Y-59328921D01*
X46810718Y-59325528D01*
X46807001Y-59321585D01*
X46803516Y-59317050D01*
X46797162Y-59306041D01*
X46791498Y-59292175D01*
X46786365Y-59275124D01*
X46781606Y-59254561D01*
X46777062Y-59230158D01*
X46772575Y-59201589D01*
X46767988Y-59168525D01*
X46757876Y-59087603D01*
X46750356Y-59027639D01*
X46746834Y-59001134D01*
X46743593Y-58977812D01*
X46740727Y-58958322D01*
X46738328Y-58943314D01*
X46736488Y-58933437D01*
X46735807Y-58930625D01*
X46735301Y-58929339D01*
X46733690Y-58930049D01*
X46729770Y-58933092D01*
X46715484Y-58945712D01*
X46664504Y-58993845D01*
X46590084Y-59066311D01*
X46499946Y-59155682D01*
X46423715Y-59231755D01*
X46392642Y-59262579D01*
X46365715Y-59289051D01*
X46342524Y-59311513D01*
X46322659Y-59330307D01*
X46313845Y-59338436D01*
X46305708Y-59345776D01*
X46298197Y-59352371D01*
X46291261Y-59358263D01*
X46284848Y-59363494D01*
X46278907Y-59368108D01*
X46273387Y-59372148D01*
X46268235Y-59375655D01*
X46263402Y-59378674D01*
X46258835Y-59381246D01*
X46254484Y-59383415D01*
X46250296Y-59385223D01*
X46246221Y-59386713D01*
X46242206Y-59387928D01*
X46238202Y-59388910D01*
X46234156Y-59389703D01*
X46230018Y-59390350D01*
X46225735Y-59390892D01*
X46216531Y-59391835D01*
X46208673Y-59392535D01*
X46201475Y-59393046D01*
X46194876Y-59393353D01*
X46188814Y-59393440D01*
X46183227Y-59393293D01*
X46178052Y-59392896D01*
X46175600Y-59392599D01*
X46173228Y-59392234D01*
X46170928Y-59391799D01*
X46168692Y-59391291D01*
X46166514Y-59390710D01*
X46164383Y-59390053D01*
X46162295Y-59389318D01*
X46160239Y-59388503D01*
X46158209Y-59387607D01*
X46156197Y-59386627D01*
X46154195Y-59385562D01*
X46152195Y-59384409D01*
X46148171Y-59381835D01*
X46144064Y-59378887D01*
X46139811Y-59375553D01*
X46135350Y-59371815D01*
X46125805Y-59362816D01*
X46121745Y-59357756D01*
X46118032Y-59351696D01*
X46114570Y-59344165D01*
X46111265Y-59334693D01*
X46108019Y-59322810D01*
X46104738Y-59308046D01*
X46097685Y-59267994D01*
X46089342Y-59210774D01*
X46065717Y-59029790D01*
X46057320Y-58962490D01*
X46049985Y-58900388D01*
X46043804Y-58844453D01*
X46038870Y-58795652D01*
X46035276Y-58754955D01*
X46033112Y-58723330D01*
X46032596Y-58711223D01*
X46032473Y-58701748D01*
X46032753Y-58695025D01*
X46033449Y-58691176D01*
X46036449Y-58684173D01*
X46039948Y-58677527D01*
X46043940Y-58671243D01*
X46048417Y-58665324D01*
X46053373Y-58659776D01*
X46058799Y-58654603D01*
X46064689Y-58649809D01*
X46071036Y-58645400D01*
X46077832Y-58641380D01*
X46085069Y-58637754D01*
X46092742Y-58634526D01*
X46100842Y-58631701D01*
X46109362Y-58629283D01*
X46118296Y-58627278D01*
X46127635Y-58625690D01*
X46137373Y-58624523D01*
X46145753Y-58623757D01*
X46153259Y-58623183D01*
X46159982Y-58622831D01*
X46166012Y-58622735D01*
X46168794Y-58622792D01*
X46171437Y-58622926D01*
X46173951Y-58623140D01*
X46176347Y-58623439D01*
X46178638Y-58623825D01*
X46180833Y-58624304D01*
X46182944Y-58624879D01*
X46184983Y-58625555D01*
X46186960Y-58626335D01*
X46188887Y-58627224D01*
X46190774Y-58628225D01*
X46192634Y-58629343D01*
X46194478Y-58630582D01*
X46196315Y-58631945D01*
X46198159Y-58633438D01*
X46200019Y-58635063D01*
X46201908Y-58636825D01*
X46203836Y-58638728D01*
X46207854Y-58642974D01*
X46212164Y-58647833D01*
X46216855Y-58653337D01*
X46219746Y-58656836D01*
X46222556Y-58660364D01*
X46225270Y-58663897D01*
X46227875Y-58667411D01*
X46230354Y-58670882D01*
X46232695Y-58674286D01*
X46234882Y-58677601D01*
X46236900Y-58680802D01*
X46238736Y-58683865D01*
X46240374Y-58686768D01*
X46241801Y-58689486D01*
X46243001Y-58691995D01*
X46243960Y-58694273D01*
X46244663Y-58696295D01*
X46245096Y-58698038D01*
X46245207Y-58698797D01*
X46245244Y-58699478D01*
X46246917Y-58717243D01*
X46251464Y-58756435D01*
X46266399Y-58875937D01*
X46281335Y-58993254D01*
X46285881Y-59030081D01*
X46287554Y-59044959D01*
X46292374Y-59041159D01*
X46306182Y-59028336D01*
X46356893Y-58979396D01*
X46431941Y-58905690D01*
X46523584Y-58814771D01*
X46600847Y-58737894D01*
X46632377Y-58706707D01*
X46659703Y-58679911D01*
X46683224Y-58657173D01*
X46693681Y-58647222D01*
X46703336Y-58638160D01*
X46712238Y-58629945D01*
X46720438Y-58622538D01*
X46727985Y-58615894D01*
X46734928Y-58609974D01*
X46741318Y-58604735D01*
X46747204Y-58600136D01*
X46752636Y-58596135D01*
X46757664Y-58592690D01*
X46762337Y-58589760D01*
X46766705Y-58587304D01*
X46770818Y-58585279D01*
X46774726Y-58583643D01*
X46778479Y-58582356D01*
X46782125Y-58581376D01*
X46785716Y-58580661D01*
X46789300Y-58580169D01*
X46792927Y-58579859D01*
X46796648Y-58579689D01*
X46804567Y-58579603D01*
X46809367Y-58579668D01*
G37*
G36*
X49602095Y-61881920D02*
G01*
X49610231Y-61882240D01*
X49629639Y-61883489D01*
X49644608Y-61884962D01*
X49659672Y-61887210D01*
X49674805Y-61890209D01*
X49689978Y-61893937D01*
X49705164Y-61898371D01*
X49720334Y-61903489D01*
X49735462Y-61909268D01*
X49750520Y-61915685D01*
X49780312Y-61930342D01*
X49809490Y-61947280D01*
X49837832Y-61966316D01*
X49865116Y-61987269D01*
X49891121Y-62009958D01*
X49915625Y-62034201D01*
X49938406Y-62059817D01*
X49959243Y-62086624D01*
X49977913Y-62114440D01*
X49986367Y-62128670D01*
X49994196Y-62143084D01*
X50001373Y-62157660D01*
X50007870Y-62172375D01*
X50013659Y-62187206D01*
X50018712Y-62202130D01*
X50022492Y-62215896D01*
X50025702Y-62231048D01*
X50028344Y-62247407D01*
X50030423Y-62264792D01*
X50031942Y-62283023D01*
X50032906Y-62301922D01*
X50033317Y-62321307D01*
X50033180Y-62341000D01*
X50032498Y-62360820D01*
X50031275Y-62380587D01*
X50029515Y-62400122D01*
X50027221Y-62419245D01*
X50024398Y-62437776D01*
X50021048Y-62455535D01*
X50017176Y-62472343D01*
X50012786Y-62488019D01*
X50007872Y-62502517D01*
X50001957Y-62517538D01*
X49995127Y-62532954D01*
X49987469Y-62548635D01*
X49979070Y-62564455D01*
X49970017Y-62580282D01*
X49960396Y-62595990D01*
X49950294Y-62611448D01*
X49939798Y-62626529D01*
X49928996Y-62641103D01*
X49917973Y-62655043D01*
X49906817Y-62668218D01*
X49895614Y-62680501D01*
X49884451Y-62691763D01*
X49873416Y-62701874D01*
X49862594Y-62710707D01*
X49843176Y-62724511D01*
X49822484Y-62737355D01*
X49800747Y-62749187D01*
X49778193Y-62759955D01*
X49755053Y-62769606D01*
X49731556Y-62778088D01*
X49707930Y-62785350D01*
X49684405Y-62791338D01*
X49661210Y-62796000D01*
X49638574Y-62799285D01*
X49616726Y-62801139D01*
X49595896Y-62801512D01*
X49576312Y-62800350D01*
X49558205Y-62797601D01*
X49549776Y-62795615D01*
X49541802Y-62793213D01*
X49534312Y-62790388D01*
X49527334Y-62787134D01*
X49518395Y-62782073D01*
X49510224Y-62776560D01*
X49502814Y-62770633D01*
X49496153Y-62764328D01*
X49490235Y-62757683D01*
X49485048Y-62750735D01*
X49480585Y-62743520D01*
X49476836Y-62736076D01*
X49473791Y-62728440D01*
X49471443Y-62720649D01*
X49469781Y-62712740D01*
X49468796Y-62704749D01*
X49468479Y-62696714D01*
X49468822Y-62688672D01*
X49469815Y-62680661D01*
X49471448Y-62672716D01*
X49473713Y-62664875D01*
X49476601Y-62657176D01*
X49480102Y-62649654D01*
X49484207Y-62642348D01*
X49488908Y-62635293D01*
X49494194Y-62628528D01*
X49500057Y-62622090D01*
X49506488Y-62616014D01*
X49513477Y-62610339D01*
X49521016Y-62605102D01*
X49529094Y-62600338D01*
X49537704Y-62596087D01*
X49546836Y-62592383D01*
X49556481Y-62589265D01*
X49566629Y-62586770D01*
X49577271Y-62584934D01*
X49606921Y-62579941D01*
X49620996Y-62576852D01*
X49634570Y-62573371D01*
X49647643Y-62569495D01*
X49660214Y-62565227D01*
X49672284Y-62560566D01*
X49683852Y-62555513D01*
X49694917Y-62550068D01*
X49705480Y-62544231D01*
X49715541Y-62538002D01*
X49725098Y-62531383D01*
X49734152Y-62524373D01*
X49742702Y-62516973D01*
X49750748Y-62509183D01*
X49758289Y-62501004D01*
X49765326Y-62492435D01*
X49771859Y-62483477D01*
X49777886Y-62474131D01*
X49783407Y-62464397D01*
X49788423Y-62454274D01*
X49792932Y-62443764D01*
X49796935Y-62432867D01*
X49800432Y-62421583D01*
X49803421Y-62409913D01*
X49805903Y-62397856D01*
X49807878Y-62385414D01*
X49809344Y-62372586D01*
X49810303Y-62359373D01*
X49810753Y-62345775D01*
X49810694Y-62331793D01*
X49810126Y-62317427D01*
X49809462Y-62306839D01*
X49808700Y-62297016D01*
X49807819Y-62287890D01*
X49806801Y-62279393D01*
X49805625Y-62271459D01*
X49804273Y-62264018D01*
X49802724Y-62257004D01*
X49800959Y-62250349D01*
X49798958Y-62243985D01*
X49796702Y-62237844D01*
X49794171Y-62231859D01*
X49791346Y-62225962D01*
X49788207Y-62220085D01*
X49784735Y-62214160D01*
X49780909Y-62208120D01*
X49776711Y-62201898D01*
X49769861Y-62192761D01*
X49762101Y-62183764D01*
X49753506Y-62174954D01*
X49744151Y-62166372D01*
X49734110Y-62158063D01*
X49723456Y-62150071D01*
X49712265Y-62142440D01*
X49700611Y-62135214D01*
X49688567Y-62128437D01*
X49676209Y-62122152D01*
X49663611Y-62116404D01*
X49650846Y-62111236D01*
X49637990Y-62106693D01*
X49625116Y-62102818D01*
X49612299Y-62099655D01*
X49599614Y-62097248D01*
X49590048Y-62095465D01*
X49580894Y-62093252D01*
X49572159Y-62090628D01*
X49563851Y-62087609D01*
X49555974Y-62084215D01*
X49548537Y-62080463D01*
X49541546Y-62076371D01*
X49535008Y-62071958D01*
X49528929Y-62067241D01*
X49523317Y-62062238D01*
X49518178Y-62056967D01*
X49513519Y-62051447D01*
X49509347Y-62045695D01*
X49505668Y-62039729D01*
X49502489Y-62033568D01*
X49499818Y-62027228D01*
X49497660Y-62020730D01*
X49496023Y-62014089D01*
X49494913Y-62007325D01*
X49494337Y-62000455D01*
X49494303Y-61993498D01*
X49494815Y-61986470D01*
X49495883Y-61979392D01*
X49497511Y-61972279D01*
X49499708Y-61965151D01*
X49502479Y-61958025D01*
X49505832Y-61950920D01*
X49509773Y-61943853D01*
X49514310Y-61936842D01*
X49519448Y-61929906D01*
X49525195Y-61923062D01*
X49531557Y-61916329D01*
X49543584Y-61904555D01*
X49548820Y-61899758D01*
X49553702Y-61895633D01*
X49558354Y-61892139D01*
X49562899Y-61889233D01*
X49565170Y-61887989D01*
X49567461Y-61886876D01*
X49569786Y-61885890D01*
X49572162Y-61885025D01*
X49574604Y-61884277D01*
X49577128Y-61883639D01*
X49582480Y-61882677D01*
X49588343Y-61882098D01*
X49594840Y-61881859D01*
X49602095Y-61881920D01*
G37*
G36*
X46641166Y-62697478D02*
G01*
X46648289Y-62697820D01*
X46655409Y-62698499D01*
X46662514Y-62699510D01*
X46669589Y-62700850D01*
X46676623Y-62702515D01*
X46683600Y-62704503D01*
X46690509Y-62706809D01*
X46697335Y-62709431D01*
X46704065Y-62712364D01*
X46710686Y-62715606D01*
X46717185Y-62719152D01*
X46723547Y-62722999D01*
X46729760Y-62727144D01*
X46735811Y-62731583D01*
X46741685Y-62736313D01*
X46747370Y-62741330D01*
X46752852Y-62746631D01*
X46758118Y-62752212D01*
X46763154Y-62758070D01*
X46767948Y-62764202D01*
X46772485Y-62770603D01*
X46776098Y-62776104D01*
X46779340Y-62781359D01*
X46782223Y-62786428D01*
X46784761Y-62791367D01*
X46786967Y-62796237D01*
X46788854Y-62801095D01*
X46790436Y-62806001D01*
X46791725Y-62811012D01*
X46792735Y-62816187D01*
X46793479Y-62821584D01*
X46793970Y-62827263D01*
X46794222Y-62833282D01*
X46794248Y-62839699D01*
X46794060Y-62846573D01*
X46793672Y-62853962D01*
X46793098Y-62861925D01*
X46792302Y-62870919D01*
X46791365Y-62879134D01*
X46790190Y-62886733D01*
X46788684Y-62893876D01*
X46786752Y-62900725D01*
X46784299Y-62907441D01*
X46781229Y-62914185D01*
X46777449Y-62921117D01*
X46772864Y-62928401D01*
X46767377Y-62936195D01*
X46760896Y-62944663D01*
X46753324Y-62953964D01*
X46744567Y-62964260D01*
X46734531Y-62975712D01*
X46710239Y-63002728D01*
X46618190Y-63112865D01*
X46535594Y-63229555D01*
X46462546Y-63352097D01*
X46399139Y-63479785D01*
X46345466Y-63611915D01*
X46301621Y-63747783D01*
X46267697Y-63886685D01*
X46243787Y-64027917D01*
X46229986Y-64170775D01*
X46226386Y-64314554D01*
X46233082Y-64458550D01*
X46250166Y-64602059D01*
X46277732Y-64744377D01*
X46315874Y-64884800D01*
X46364685Y-65022624D01*
X46424258Y-65157144D01*
X46441413Y-65191464D01*
X46458944Y-65225160D01*
X46476863Y-65258249D01*
X46495182Y-65290749D01*
X46513913Y-65322679D01*
X46533068Y-65354058D01*
X46552661Y-65384903D01*
X46572703Y-65415232D01*
X46593207Y-65445064D01*
X46614184Y-65474417D01*
X46635648Y-65503310D01*
X46657610Y-65531760D01*
X46680083Y-65559786D01*
X46703079Y-65587406D01*
X46726610Y-65614638D01*
X46750689Y-65641501D01*
X46755459Y-65646816D01*
X46760253Y-65652331D01*
X46769783Y-65663786D01*
X46779029Y-65675517D01*
X46787738Y-65687178D01*
X46795658Y-65698420D01*
X46799243Y-65703776D01*
X46802536Y-65708898D01*
X46805506Y-65713741D01*
X46808122Y-65718262D01*
X46810350Y-65722419D01*
X46812161Y-65726167D01*
X46812161Y-65726166D01*
X46816856Y-65737950D01*
X46820384Y-65749794D01*
X46822788Y-65761657D01*
X46824110Y-65773500D01*
X46824394Y-65785280D01*
X46823682Y-65796958D01*
X46822018Y-65808492D01*
X46819445Y-65819841D01*
X46816005Y-65830966D01*
X46811742Y-65841824D01*
X46806698Y-65852376D01*
X46800917Y-65862580D01*
X46794441Y-65872395D01*
X46787314Y-65881781D01*
X46779578Y-65890697D01*
X46771277Y-65899103D01*
X46762453Y-65906957D01*
X46753149Y-65914218D01*
X46743409Y-65920846D01*
X46733275Y-65926800D01*
X46722790Y-65932039D01*
X46711998Y-65936522D01*
X46700940Y-65940209D01*
X46689661Y-65943059D01*
X46678203Y-65945031D01*
X46666610Y-65946084D01*
X46654923Y-65946177D01*
X46643187Y-65945269D01*
X46631444Y-65943321D01*
X46619737Y-65940290D01*
X46608109Y-65936137D01*
X46596603Y-65930819D01*
X46583771Y-65923018D01*
X46569166Y-65912048D01*
X46552955Y-65898111D01*
X46535304Y-65881407D01*
X46516378Y-65862137D01*
X46496344Y-65840501D01*
X46453614Y-65790933D01*
X46408443Y-65734310D01*
X46362158Y-65672234D01*
X46316088Y-65606310D01*
X46271561Y-65538143D01*
X46241152Y-65488191D01*
X46211717Y-65436469D01*
X46183319Y-65383148D01*
X46156021Y-65328400D01*
X46129886Y-65272397D01*
X46104976Y-65215312D01*
X46081354Y-65157315D01*
X46059083Y-65098578D01*
X46038225Y-65039274D01*
X46018844Y-64979574D01*
X46001002Y-64919651D01*
X45984762Y-64859675D01*
X45970187Y-64799818D01*
X45957340Y-64740253D01*
X45946283Y-64681152D01*
X45937079Y-64622685D01*
X45930114Y-64556593D01*
X45925381Y-64475587D01*
X45922844Y-64384755D01*
X45922465Y-64289182D01*
X45924209Y-64193956D01*
X45928039Y-64104164D01*
X45933920Y-64024892D01*
X45937617Y-63990791D01*
X45941813Y-63961228D01*
X45953384Y-63895252D01*
X45966218Y-63830704D01*
X45980342Y-63767518D01*
X45995779Y-63705630D01*
X46012555Y-63644973D01*
X46030694Y-63585484D01*
X46050221Y-63527097D01*
X46071161Y-63469748D01*
X46093538Y-63413370D01*
X46117378Y-63357899D01*
X46142705Y-63303270D01*
X46169543Y-63249418D01*
X46197919Y-63196278D01*
X46227856Y-63143785D01*
X46259379Y-63091873D01*
X46292513Y-63040478D01*
X46309434Y-63015491D01*
X46327315Y-62990036D01*
X46345957Y-62964351D01*
X46365159Y-62938670D01*
X46384721Y-62913232D01*
X46404444Y-62888270D01*
X46424127Y-62864023D01*
X46443570Y-62840726D01*
X46462574Y-62818615D01*
X46480939Y-62797926D01*
X46498463Y-62778896D01*
X46514949Y-62761761D01*
X46530195Y-62746756D01*
X46544001Y-62734119D01*
X46556168Y-62724085D01*
X46566496Y-62716890D01*
X46572760Y-62713306D01*
X46579170Y-62710096D01*
X46585710Y-62707256D01*
X46592369Y-62704785D01*
X46599133Y-62702677D01*
X46605988Y-62700929D01*
X46612921Y-62699539D01*
X46619919Y-62698502D01*
X46626968Y-62697816D01*
X46634055Y-62697475D01*
X46641166Y-62697478D01*
G37*
G36*
X50952100Y-56962372D02*
G01*
X51002441Y-56963600D01*
X51029887Y-56965124D01*
X51056476Y-56967119D01*
X51082292Y-56969605D01*
X51107423Y-56972603D01*
X51131953Y-56976133D01*
X51155969Y-56980217D01*
X51179556Y-56984873D01*
X51202801Y-56990124D01*
X51225789Y-56995991D01*
X51248606Y-57002492D01*
X51271338Y-57009650D01*
X51294071Y-57017485D01*
X51316891Y-57026018D01*
X51339884Y-57035268D01*
X51363135Y-57045258D01*
X51386730Y-57056007D01*
X51446472Y-57085954D01*
X51503987Y-57118817D01*
X51559230Y-57154540D01*
X51612152Y-57193066D01*
X51662710Y-57234341D01*
X51710855Y-57278308D01*
X51756541Y-57324912D01*
X51799723Y-57374097D01*
X51840353Y-57425807D01*
X51878387Y-57479987D01*
X51913776Y-57536579D01*
X51946475Y-57595530D01*
X51976438Y-57656782D01*
X52003618Y-57720281D01*
X52027969Y-57785970D01*
X52049444Y-57853793D01*
X52057400Y-57880941D01*
X52060704Y-57891862D01*
X52063634Y-57901123D01*
X52064976Y-57905155D01*
X52066245Y-57908803D01*
X52067449Y-57912075D01*
X52068594Y-57914983D01*
X52069688Y-57917536D01*
X52070737Y-57919744D01*
X52071748Y-57921617D01*
X52072729Y-57923166D01*
X52073686Y-57924400D01*
X52074158Y-57924902D01*
X52074627Y-57925329D01*
X52075093Y-57925683D01*
X52075558Y-57925964D01*
X52076022Y-57926175D01*
X52076486Y-57926315D01*
X52076952Y-57926387D01*
X52077419Y-57926391D01*
X52077890Y-57926330D01*
X52078364Y-57926203D01*
X52078843Y-57926013D01*
X52079327Y-57925761D01*
X52080316Y-57925075D01*
X52081337Y-57924154D01*
X52082397Y-57923010D01*
X52083504Y-57921651D01*
X52084665Y-57920089D01*
X52087175Y-57916393D01*
X52089983Y-57912002D01*
X52119224Y-57864833D01*
X52166815Y-57787387D01*
X52201401Y-57732487D01*
X52236523Y-57679823D01*
X52272190Y-57629385D01*
X52308410Y-57581165D01*
X52345193Y-57535153D01*
X52382547Y-57491340D01*
X52420482Y-57449718D01*
X52459007Y-57410278D01*
X52498131Y-57373011D01*
X52537863Y-57337907D01*
X52578211Y-57304959D01*
X52619185Y-57274157D01*
X52660794Y-57245491D01*
X52703047Y-57218954D01*
X52745953Y-57194537D01*
X52789521Y-57172229D01*
X52843545Y-57146911D01*
X52868061Y-57136194D01*
X52891288Y-57126684D01*
X52913508Y-57118315D01*
X52935002Y-57111021D01*
X52956053Y-57104736D01*
X52976942Y-57099395D01*
X52997951Y-57094931D01*
X53019361Y-57091278D01*
X53041454Y-57088371D01*
X53064512Y-57086144D01*
X53088816Y-57084530D01*
X53114648Y-57083464D01*
X53172024Y-57082711D01*
X53172132Y-57082712D01*
X53214809Y-57082906D01*
X53249472Y-57083630D01*
X53264402Y-57084283D01*
X53278074Y-57085179D01*
X53290746Y-57086355D01*
X53302676Y-57087848D01*
X53314122Y-57089694D01*
X53325341Y-57091930D01*
X53336592Y-57094593D01*
X53348131Y-57097720D01*
X53360216Y-57101347D01*
X53373106Y-57105512D01*
X53402330Y-57115602D01*
X53422181Y-57122920D01*
X53443067Y-57131153D01*
X53464362Y-57140019D01*
X53485439Y-57149237D01*
X53505673Y-57158529D01*
X53524437Y-57167612D01*
X53541104Y-57176205D01*
X53555048Y-57184030D01*
X53580457Y-57200074D01*
X53605940Y-57218028D01*
X53631349Y-57237717D01*
X53656533Y-57258963D01*
X53681342Y-57281592D01*
X53705624Y-57305427D01*
X53729231Y-57330293D01*
X53752011Y-57356014D01*
X53773814Y-57382414D01*
X53794490Y-57409317D01*
X53813888Y-57436548D01*
X53831858Y-57463931D01*
X53848250Y-57491289D01*
X53862913Y-57518448D01*
X53875697Y-57545231D01*
X53886451Y-57571463D01*
X53904534Y-57624846D01*
X53919031Y-57678538D01*
X53929975Y-57732321D01*
X53937403Y-57785976D01*
X53941347Y-57839283D01*
X53941844Y-57892025D01*
X53938927Y-57943981D01*
X53932631Y-57994934D01*
X53922991Y-58044664D01*
X53910042Y-58092953D01*
X53893818Y-58139582D01*
X53874353Y-58184331D01*
X53851683Y-58226983D01*
X53839157Y-58247454D01*
X53825842Y-58267318D01*
X53811743Y-58286549D01*
X53796865Y-58305118D01*
X53781211Y-58322998D01*
X53764786Y-58340163D01*
X53739245Y-58364169D01*
X53712952Y-58385961D01*
X53686038Y-58405507D01*
X53658635Y-58422777D01*
X53630876Y-58437738D01*
X53602892Y-58450359D01*
X53574816Y-58460610D01*
X53546778Y-58468458D01*
X53532816Y-58471472D01*
X53518912Y-58473873D01*
X53505084Y-58475659D01*
X53491349Y-58476824D01*
X53477722Y-58477365D01*
X53464221Y-58477278D01*
X53450861Y-58476559D01*
X53437660Y-58475205D01*
X53424633Y-58473210D01*
X53411798Y-58470573D01*
X53399170Y-58467287D01*
X53386767Y-58463351D01*
X53374604Y-58458759D01*
X53362699Y-58453507D01*
X53351067Y-58447593D01*
X53339726Y-58441011D01*
X53326395Y-58432012D01*
X53314595Y-58422399D01*
X53304318Y-58412107D01*
X53299748Y-58406687D01*
X53295555Y-58401073D01*
X53291738Y-58395257D01*
X53288296Y-58389232D01*
X53285229Y-58382990D01*
X53282534Y-58376521D01*
X53280211Y-58369819D01*
X53278259Y-58362875D01*
X53275463Y-58348229D01*
X53274138Y-58332521D01*
X53274273Y-58315685D01*
X53275862Y-58297657D01*
X53278894Y-58278374D01*
X53283361Y-58257771D01*
X53289255Y-58235784D01*
X53296567Y-58212348D01*
X53305289Y-58187400D01*
X53313757Y-58163550D01*
X53317380Y-58152709D01*
X53320610Y-58142516D01*
X53323459Y-58132917D01*
X53325938Y-58123856D01*
X53328057Y-58115280D01*
X53329828Y-58107132D01*
X53331262Y-58099358D01*
X53332370Y-58091903D01*
X53333163Y-58084712D01*
X53333651Y-58077729D01*
X53333847Y-58070900D01*
X53333761Y-58064170D01*
X53333405Y-58057484D01*
X53332788Y-58050786D01*
X53331612Y-58042274D01*
X53330013Y-58034138D01*
X53327999Y-58026381D01*
X53325580Y-58019008D01*
X53322765Y-58012019D01*
X53319561Y-58005420D01*
X53315980Y-57999212D01*
X53312029Y-57993400D01*
X53307717Y-57987985D01*
X53303054Y-57982972D01*
X53298048Y-57978363D01*
X53292708Y-57974162D01*
X53287044Y-57970371D01*
X53281064Y-57966994D01*
X53274778Y-57964034D01*
X53268194Y-57961493D01*
X53261321Y-57959375D01*
X53254168Y-57957684D01*
X53246745Y-57956422D01*
X53239060Y-57955592D01*
X53231122Y-57955197D01*
X53222940Y-57955241D01*
X53214524Y-57955727D01*
X53205881Y-57956657D01*
X53197022Y-57958035D01*
X53187955Y-57959864D01*
X53178689Y-57962148D01*
X53169234Y-57964888D01*
X53149788Y-57971753D01*
X53129691Y-57980484D01*
X53105787Y-57993176D01*
X53082847Y-58008148D01*
X53060849Y-58025438D01*
X53039771Y-58045087D01*
X53019591Y-58067132D01*
X53000286Y-58091614D01*
X52981836Y-58118572D01*
X52964217Y-58148044D01*
X52947409Y-58180070D01*
X52931389Y-58214690D01*
X52916135Y-58251942D01*
X52901625Y-58291866D01*
X52887837Y-58334500D01*
X52874750Y-58379885D01*
X52862341Y-58428059D01*
X52850588Y-58479062D01*
X52833687Y-58559119D01*
X52816396Y-58645441D01*
X52799631Y-58732909D01*
X52784309Y-58816405D01*
X52771348Y-58890809D01*
X52761665Y-58951002D01*
X52756175Y-58991865D01*
X52755290Y-59003448D01*
X52755797Y-59008279D01*
X52756928Y-59008550D01*
X52759174Y-59008274D01*
X52766765Y-59006175D01*
X52778087Y-59002176D01*
X52792657Y-58996475D01*
X52809990Y-58989266D01*
X52829603Y-58980746D01*
X52851012Y-58971110D01*
X52873733Y-58960553D01*
X52938587Y-58931329D01*
X53002907Y-58905087D01*
X53066677Y-58881831D01*
X53129882Y-58861560D01*
X53192506Y-58844278D01*
X53254536Y-58829986D01*
X53315955Y-58818685D01*
X53376749Y-58810377D01*
X53436903Y-58805065D01*
X53496401Y-58802749D01*
X53555228Y-58803431D01*
X53613369Y-58807113D01*
X53670810Y-58813798D01*
X53727534Y-58823485D01*
X53783528Y-58836178D01*
X53838775Y-58851877D01*
X53867269Y-58861162D01*
X53894717Y-58870837D01*
X53921205Y-58880954D01*
X53946823Y-58891565D01*
X53971658Y-58902722D01*
X53995798Y-58914476D01*
X54019331Y-58926881D01*
X54042345Y-58939989D01*
X54064928Y-58953850D01*
X54087169Y-58968518D01*
X54109154Y-58984044D01*
X54130973Y-59000480D01*
X54152713Y-59017879D01*
X54174462Y-59036292D01*
X54196308Y-59055772D01*
X54218340Y-59076371D01*
X54233974Y-59091627D01*
X54249024Y-59106956D01*
X54263509Y-59122385D01*
X54277452Y-59137946D01*
X54290872Y-59153667D01*
X54303791Y-59169578D01*
X54316230Y-59185708D01*
X54328210Y-59202087D01*
X54339751Y-59218744D01*
X54350876Y-59235709D01*
X54361604Y-59253010D01*
X54371956Y-59270679D01*
X54381955Y-59288743D01*
X54391619Y-59307232D01*
X54400972Y-59326176D01*
X54410033Y-59345605D01*
X54431657Y-59395001D01*
X54440729Y-59417425D01*
X54448726Y-59438779D01*
X54455713Y-59459397D01*
X54461753Y-59479613D01*
X54466909Y-59499762D01*
X54471247Y-59520177D01*
X54474829Y-59541192D01*
X54477719Y-59563142D01*
X54479982Y-59586362D01*
X54481681Y-59611184D01*
X54482880Y-59637943D01*
X54483643Y-59666974D01*
X54484116Y-59733187D01*
X54483928Y-59789677D01*
X54483294Y-59833971D01*
X54482692Y-59852464D01*
X54481839Y-59869011D01*
X54480686Y-59883980D01*
X54479189Y-59897738D01*
X54477300Y-59910654D01*
X54474972Y-59923095D01*
X54472158Y-59935428D01*
X54468813Y-59948022D01*
X54464889Y-59961243D01*
X54460340Y-59975461D01*
X54449179Y-60008353D01*
X54436685Y-60042686D01*
X54423281Y-60075890D01*
X54408957Y-60107982D01*
X54393698Y-60138978D01*
X54377493Y-60168896D01*
X54360328Y-60197753D01*
X54342193Y-60225564D01*
X54323073Y-60252348D01*
X54302957Y-60278120D01*
X54281831Y-60302897D01*
X54259684Y-60326697D01*
X54236503Y-60349535D01*
X54212275Y-60371429D01*
X54186988Y-60392396D01*
X54160629Y-60412452D01*
X54133186Y-60431613D01*
X54104694Y-60449701D01*
X54076177Y-60465889D01*
X54047692Y-60480169D01*
X54019294Y-60492535D01*
X53991043Y-60502978D01*
X53962994Y-60511491D01*
X53935205Y-60518066D01*
X53907734Y-60522696D01*
X53880637Y-60525372D01*
X53853971Y-60526088D01*
X53827794Y-60524835D01*
X53802164Y-60521606D01*
X53777136Y-60516393D01*
X53752769Y-60509189D01*
X53729119Y-60499986D01*
X53706244Y-60488776D01*
X53697035Y-60483557D01*
X53688138Y-60478089D01*
X53679559Y-60472385D01*
X53671303Y-60466457D01*
X53663377Y-60460317D01*
X53655787Y-60453977D01*
X53648538Y-60447449D01*
X53641636Y-60440745D01*
X53635086Y-60433877D01*
X53628896Y-60426858D01*
X53623070Y-60419700D01*
X53617615Y-60412414D01*
X53612536Y-60405013D01*
X53607839Y-60397510D01*
X53603530Y-60389915D01*
X53599616Y-60382242D01*
X53596100Y-60374502D01*
X53592991Y-60366707D01*
X53590292Y-60358870D01*
X53588011Y-60351003D01*
X53586154Y-60343118D01*
X53584725Y-60335227D01*
X53583730Y-60327342D01*
X53583177Y-60319475D01*
X53583070Y-60311638D01*
X53583415Y-60303844D01*
X53584218Y-60296105D01*
X53585485Y-60288432D01*
X53587223Y-60280839D01*
X53589435Y-60273336D01*
X53592130Y-60265936D01*
X53595312Y-60258652D01*
X53597423Y-60254614D01*
X53600130Y-60250120D01*
X53603389Y-60245218D01*
X53607159Y-60239956D01*
X53611398Y-60234381D01*
X53616063Y-60228541D01*
X53621114Y-60222483D01*
X53626508Y-60216255D01*
X53638159Y-60203477D01*
X53650680Y-60190589D01*
X53657162Y-60184221D01*
X53663736Y-60177969D01*
X53670361Y-60171878D01*
X53676993Y-60165997D01*
X53691422Y-60153053D01*
X53704664Y-60140339D01*
X53716740Y-60127812D01*
X53727669Y-60115432D01*
X53737473Y-60103156D01*
X53746173Y-60090942D01*
X53753787Y-60078750D01*
X53760338Y-60066537D01*
X53765845Y-60054263D01*
X53770329Y-60041884D01*
X53773811Y-60029360D01*
X53776310Y-60016648D01*
X53777849Y-60003708D01*
X53778446Y-59990498D01*
X53778123Y-59976975D01*
X53776900Y-59963099D01*
X53775222Y-59951886D01*
X53772874Y-59940827D01*
X53769881Y-59929957D01*
X53766265Y-59919311D01*
X53762050Y-59908924D01*
X53757259Y-59898832D01*
X53751917Y-59889070D01*
X53746046Y-59879673D01*
X53739671Y-59870677D01*
X53732813Y-59862116D01*
X53725498Y-59854027D01*
X53717749Y-59846444D01*
X53709588Y-59839403D01*
X53705361Y-59836097D01*
X53701040Y-59832939D01*
X53696628Y-59829935D01*
X53692128Y-59827087D01*
X53687543Y-59824402D01*
X53682876Y-59821883D01*
X53671926Y-59817092D01*
X53659530Y-59813231D01*
X53645844Y-59810284D01*
X53631025Y-59808236D01*
X53615230Y-59807071D01*
X53598616Y-59806773D01*
X53581338Y-59807328D01*
X53563555Y-59808718D01*
X53545421Y-59810928D01*
X53527095Y-59813943D01*
X53508732Y-59817747D01*
X53490490Y-59822324D01*
X53472524Y-59827658D01*
X53454992Y-59833734D01*
X53438050Y-59840536D01*
X53421854Y-59848049D01*
X53397192Y-59860783D01*
X53373527Y-59873953D01*
X53350657Y-59887749D01*
X53328381Y-59902358D01*
X53306496Y-59917967D01*
X53284802Y-59934765D01*
X53263096Y-59952939D01*
X53241177Y-59972677D01*
X53218844Y-59994168D01*
X53195894Y-60017598D01*
X53172127Y-60043156D01*
X53147340Y-60071030D01*
X53121333Y-60101407D01*
X53093902Y-60134475D01*
X53033967Y-60209436D01*
X53011550Y-60237558D01*
X52988515Y-60265581D01*
X52940930Y-60320988D01*
X52891894Y-60374964D01*
X52842092Y-60426819D01*
X52792206Y-60475860D01*
X52767446Y-60499110D01*
X52742921Y-60521396D01*
X52718717Y-60542634D01*
X52694919Y-60562735D01*
X52671613Y-60581615D01*
X52648884Y-60599186D01*
X52567540Y-60660480D01*
X52732199Y-60678424D01*
X52795495Y-60685908D01*
X52856446Y-60694323D01*
X52915159Y-60703704D01*
X52971742Y-60714084D01*
X53026302Y-60725497D01*
X53078946Y-60737978D01*
X53129781Y-60751560D01*
X53178914Y-60766277D01*
X53226453Y-60782163D01*
X53272505Y-60799252D01*
X53317177Y-60817578D01*
X53360577Y-60837175D01*
X53402811Y-60858077D01*
X53443986Y-60880317D01*
X53484211Y-60903931D01*
X53523592Y-60928951D01*
X53556721Y-60951320D01*
X53588045Y-60973603D01*
X53617874Y-60996143D01*
X53646519Y-61019283D01*
X53674289Y-61043368D01*
X53701494Y-61068740D01*
X53728445Y-61095743D01*
X53755450Y-61124720D01*
X53782819Y-61156016D01*
X53810864Y-61189974D01*
X53839893Y-61226937D01*
X53870217Y-61267248D01*
X53935987Y-61359292D01*
X54010655Y-61468853D01*
X54034962Y-61504741D01*
X54059160Y-61539788D01*
X54082612Y-61573114D01*
X54104679Y-61603840D01*
X54124722Y-61631087D01*
X54142103Y-61653976D01*
X54156184Y-61671629D01*
X54161787Y-61678216D01*
X54166326Y-61683165D01*
X54172353Y-61689279D01*
X54177944Y-61694746D01*
X54183175Y-61699600D01*
X54188122Y-61703877D01*
X54192861Y-61707612D01*
X54197469Y-61710838D01*
X54202021Y-61713592D01*
X54206594Y-61715908D01*
X54211265Y-61717820D01*
X54216110Y-61719365D01*
X54221204Y-61720576D01*
X54226624Y-61721489D01*
X54232447Y-61722138D01*
X54238748Y-61722558D01*
X54245604Y-61722785D01*
X54253091Y-61722853D01*
X54260357Y-61722782D01*
X54267054Y-61722553D01*
X54273245Y-61722139D01*
X54278993Y-61721514D01*
X54284359Y-61720651D01*
X54289408Y-61719524D01*
X54291832Y-61718854D01*
X54294200Y-61718107D01*
X54296520Y-61717282D01*
X54298799Y-61716374D01*
X54301046Y-61715381D01*
X54303268Y-61714298D01*
X54305474Y-61713124D01*
X54307669Y-61711853D01*
X54312065Y-61709013D01*
X54316519Y-61705751D01*
X54321092Y-61702041D01*
X54325847Y-61697857D01*
X54330848Y-61693172D01*
X54336157Y-61687961D01*
X54343323Y-61680370D01*
X54350001Y-61672414D01*
X54356195Y-61664079D01*
X54361909Y-61655357D01*
X54367147Y-61646236D01*
X54371911Y-61636704D01*
X54376207Y-61626753D01*
X54380036Y-61616370D01*
X54383404Y-61605544D01*
X54386314Y-61594266D01*
X54388769Y-61582524D01*
X54390774Y-61570307D01*
X54392331Y-61557605D01*
X54393445Y-61544406D01*
X54394119Y-61530701D01*
X54394356Y-61516478D01*
X54394505Y-61507875D01*
X54394922Y-61499468D01*
X54395606Y-61491263D01*
X54396550Y-61483264D01*
X54397753Y-61475477D01*
X54399209Y-61467905D01*
X54400916Y-61460555D01*
X54402869Y-61453431D01*
X54405064Y-61446538D01*
X54407497Y-61439881D01*
X54410166Y-61433465D01*
X54413065Y-61427295D01*
X54416191Y-61421376D01*
X54419540Y-61415713D01*
X54423108Y-61410310D01*
X54426892Y-61405174D01*
X54430887Y-61400308D01*
X54435090Y-61395718D01*
X54439496Y-61391408D01*
X54444103Y-61387384D01*
X54448906Y-61383651D01*
X54453901Y-61380213D01*
X54459084Y-61377075D01*
X54464452Y-61374243D01*
X54470001Y-61371721D01*
X54475726Y-61369515D01*
X54481625Y-61367629D01*
X54487692Y-61366068D01*
X54493925Y-61364837D01*
X54500320Y-61363941D01*
X54506872Y-61363386D01*
X54513577Y-61363176D01*
X54516814Y-61363282D01*
X54520470Y-61363625D01*
X54524506Y-61364193D01*
X54528880Y-61364974D01*
X54533552Y-61365956D01*
X54538480Y-61367127D01*
X54548946Y-61369986D01*
X54559952Y-61373457D01*
X54571172Y-61377444D01*
X54582280Y-61381850D01*
X54592952Y-61386580D01*
X54611703Y-61396215D01*
X54629814Y-61407187D01*
X54647260Y-61419461D01*
X54664016Y-61433001D01*
X54680056Y-61447770D01*
X54695354Y-61463734D01*
X54709885Y-61480855D01*
X54723624Y-61499099D01*
X54736546Y-61518428D01*
X54748624Y-61538809D01*
X54759833Y-61560204D01*
X54770149Y-61582577D01*
X54779544Y-61605894D01*
X54787995Y-61630118D01*
X54795475Y-61655212D01*
X54801959Y-61681142D01*
X54801960Y-61681141D01*
X54806793Y-61705658D01*
X54810380Y-61731028D01*
X54812735Y-61757152D01*
X54813874Y-61783929D01*
X54813811Y-61811258D01*
X54812560Y-61839041D01*
X54810136Y-61867176D01*
X54806555Y-61895564D01*
X54801830Y-61924104D01*
X54795975Y-61952696D01*
X54789007Y-61981240D01*
X54780939Y-62009635D01*
X54771786Y-62037781D01*
X54761562Y-62065579D01*
X54750283Y-62092928D01*
X54737962Y-62119727D01*
X54719561Y-62155544D01*
X54699717Y-62190041D01*
X54678453Y-62223199D01*
X54655793Y-62254997D01*
X54631758Y-62285414D01*
X54606372Y-62314430D01*
X54579658Y-62342025D01*
X54551639Y-62368177D01*
X54522338Y-62392868D01*
X54491779Y-62416075D01*
X54459983Y-62437780D01*
X54426975Y-62457961D01*
X54392777Y-62476598D01*
X54357413Y-62493670D01*
X54320904Y-62509158D01*
X54283275Y-62523040D01*
X54257729Y-62531471D01*
X54234966Y-62538127D01*
X54224182Y-62540852D01*
X54213559Y-62543207D01*
X54202918Y-62545219D01*
X54192081Y-62546911D01*
X54180869Y-62548310D01*
X54169104Y-62549440D01*
X54156607Y-62550325D01*
X54143200Y-62550992D01*
X54112941Y-62551769D01*
X54076900Y-62551969D01*
X54041535Y-62551705D01*
X54011156Y-62550834D01*
X53997425Y-62550115D01*
X53984447Y-62549179D01*
X53972059Y-62548003D01*
X53960095Y-62546566D01*
X53948391Y-62544846D01*
X53936783Y-62542819D01*
X53925107Y-62540466D01*
X53913197Y-62537763D01*
X53900890Y-62534689D01*
X53888021Y-62531222D01*
X53859941Y-62523021D01*
X53830889Y-62513806D01*
X53803129Y-62504118D01*
X53776410Y-62493790D01*
X53750479Y-62482656D01*
X53725087Y-62470551D01*
X53699981Y-62457309D01*
X53674911Y-62442764D01*
X53649624Y-62426751D01*
X53623870Y-62409103D01*
X53597398Y-62389656D01*
X53569955Y-62368243D01*
X53541291Y-62344699D01*
X53511155Y-62318857D01*
X53479295Y-62290553D01*
X53409398Y-62225893D01*
X53378315Y-62197023D01*
X53348152Y-62170005D01*
X53318810Y-62144775D01*
X53290185Y-62121270D01*
X53262176Y-62099427D01*
X53234681Y-62079183D01*
X53207599Y-62060475D01*
X53180828Y-62043240D01*
X53154266Y-62027414D01*
X53127811Y-62012935D01*
X53101363Y-61999740D01*
X53074818Y-61987765D01*
X53048077Y-61976949D01*
X53021036Y-61967227D01*
X52993594Y-61958536D01*
X52965649Y-61950814D01*
X52950384Y-61947608D01*
X52929890Y-61944383D01*
X52876644Y-61938089D01*
X52812770Y-61932352D01*
X52745129Y-61927593D01*
X52680578Y-61924235D01*
X52625978Y-61922697D01*
X52604553Y-61922743D01*
X52588187Y-61923402D01*
X52577740Y-61924727D01*
X52575003Y-61925655D01*
X52574066Y-61926770D01*
X52574547Y-61927753D01*
X52575957Y-61929465D01*
X52581374Y-61934906D01*
X52589938Y-61942767D01*
X52601269Y-61952717D01*
X52614988Y-61964429D01*
X52630714Y-61977575D01*
X52648068Y-61991826D01*
X52666671Y-62006853D01*
X52735509Y-62064243D01*
X52766247Y-62092024D01*
X52795058Y-62119943D01*
X52822340Y-62148563D01*
X52848488Y-62178443D01*
X52873897Y-62210146D01*
X52898965Y-62244232D01*
X52924087Y-62281263D01*
X52949659Y-62321799D01*
X52976077Y-62366402D01*
X53003737Y-62415633D01*
X53064368Y-62530224D01*
X53134719Y-62670061D01*
X53187879Y-62776490D01*
X53233948Y-62866534D01*
X53274567Y-62943031D01*
X53311377Y-63008823D01*
X53328865Y-63038591D01*
X53346016Y-63066749D01*
X53363035Y-63093649D01*
X53380126Y-63119649D01*
X53397495Y-63145102D01*
X53415346Y-63170364D01*
X53453318Y-63221733D01*
X53479164Y-63254997D01*
X53504829Y-63286354D01*
X53530266Y-63315769D01*
X53555430Y-63343205D01*
X53580274Y-63368627D01*
X53604750Y-63391999D01*
X53628813Y-63413283D01*
X53652416Y-63432446D01*
X53675512Y-63449449D01*
X53698054Y-63464257D01*
X53719997Y-63476835D01*
X53741293Y-63487145D01*
X53751684Y-63491439D01*
X53761897Y-63495153D01*
X53771924Y-63498282D01*
X53781760Y-63500821D01*
X53791400Y-63502767D01*
X53800837Y-63504114D01*
X53810067Y-63504859D01*
X53819082Y-63504996D01*
X53837282Y-63503810D01*
X53845996Y-63502590D01*
X53854454Y-63500951D01*
X53862657Y-63498891D01*
X53870605Y-63496410D01*
X53878300Y-63493505D01*
X53885743Y-63490176D01*
X53892934Y-63486421D01*
X53899874Y-63482240D01*
X53906565Y-63477631D01*
X53913008Y-63472593D01*
X53919202Y-63467125D01*
X53925149Y-63461225D01*
X53930851Y-63454892D01*
X53936307Y-63448125D01*
X53941520Y-63440923D01*
X53946489Y-63433284D01*
X53955702Y-63416693D01*
X53963953Y-63398342D01*
X53971250Y-63378221D01*
X53977601Y-63356321D01*
X53983012Y-63332631D01*
X53987491Y-63307141D01*
X53991045Y-63279843D01*
X53993180Y-63261991D01*
X53995531Y-63245577D01*
X53998146Y-63230513D01*
X54001073Y-63216710D01*
X54002668Y-63210254D01*
X54004358Y-63204080D01*
X54006150Y-63198177D01*
X54008049Y-63192535D01*
X54010061Y-63187141D01*
X54012193Y-63181985D01*
X54014449Y-63177055D01*
X54016836Y-63172342D01*
X54019361Y-63167833D01*
X54022027Y-63163517D01*
X54024843Y-63159384D01*
X54027813Y-63155423D01*
X54030943Y-63151622D01*
X54034240Y-63147970D01*
X54037709Y-63144456D01*
X54041356Y-63141069D01*
X54045187Y-63137799D01*
X54049208Y-63134633D01*
X54053425Y-63131561D01*
X54057843Y-63128572D01*
X54062469Y-63125655D01*
X54067309Y-63122798D01*
X54077652Y-63117223D01*
X54084802Y-63113830D01*
X54092184Y-63110820D01*
X54099781Y-63108189D01*
X54107580Y-63105933D01*
X54115567Y-63104049D01*
X54123726Y-63102533D01*
X54140506Y-63100595D01*
X54157803Y-63100089D01*
X54175501Y-63100990D01*
X54193485Y-63103269D01*
X54211638Y-63106900D01*
X54229846Y-63111854D01*
X54247991Y-63118105D01*
X54265959Y-63125625D01*
X54283633Y-63134387D01*
X54300898Y-63144363D01*
X54317637Y-63155527D01*
X54333735Y-63167850D01*
X54349075Y-63181306D01*
X54375640Y-63209027D01*
X54399667Y-63239772D01*
X54421119Y-63273280D01*
X54439954Y-63309290D01*
X54456136Y-63347542D01*
X54469625Y-63387775D01*
X54480382Y-63429728D01*
X54488367Y-63473140D01*
X54493543Y-63517752D01*
X54495869Y-63563302D01*
X54495308Y-63609530D01*
X54491819Y-63656175D01*
X54485365Y-63702976D01*
X54475906Y-63749673D01*
X54463403Y-63796006D01*
X54447818Y-63841713D01*
X54436801Y-63868381D01*
X54423802Y-63895519D01*
X54408957Y-63922968D01*
X54392403Y-63950567D01*
X54374277Y-63978157D01*
X54354716Y-64005578D01*
X54333857Y-64032671D01*
X54311837Y-64059277D01*
X54288791Y-64085234D01*
X54264858Y-64110385D01*
X54240174Y-64134569D01*
X54214876Y-64157627D01*
X54189101Y-64179399D01*
X54162985Y-64199726D01*
X54136666Y-64218447D01*
X54110280Y-64235404D01*
X54061658Y-64262903D01*
X54012137Y-64286904D01*
X53961793Y-64307406D01*
X53910702Y-64324406D01*
X53858941Y-64337904D01*
X53806587Y-64347897D01*
X53753716Y-64354383D01*
X53700406Y-64357361D01*
X53646732Y-64356829D01*
X53592771Y-64352786D01*
X53538600Y-64345228D01*
X53484296Y-64334156D01*
X53429934Y-64319566D01*
X53375592Y-64301458D01*
X53321347Y-64279829D01*
X53267274Y-64254678D01*
X53234868Y-64237871D01*
X53203259Y-64220140D01*
X53172336Y-64201387D01*
X53141988Y-64181511D01*
X53112104Y-64160414D01*
X53082574Y-64137995D01*
X53053285Y-64114156D01*
X53024129Y-64088797D01*
X52994994Y-64061818D01*
X52965768Y-64033120D01*
X52936342Y-64002603D01*
X52906604Y-63970168D01*
X52876444Y-63935716D01*
X52845751Y-63899146D01*
X52814414Y-63860359D01*
X52782321Y-63819257D01*
X52777096Y-63812519D01*
X52771964Y-63806024D01*
X52766954Y-63799801D01*
X52762096Y-63793883D01*
X52757418Y-63788301D01*
X52752949Y-63783086D01*
X52748718Y-63778270D01*
X52744754Y-63773884D01*
X52741085Y-63769959D01*
X52737741Y-63766527D01*
X52734749Y-63763620D01*
X52732140Y-63761268D01*
X52729941Y-63759502D01*
X52729005Y-63758850D01*
X52728183Y-63758355D01*
X52727477Y-63758024D01*
X52726892Y-63757858D01*
X52726432Y-63757863D01*
X52726099Y-63758042D01*
X52725814Y-63759057D01*
X52726015Y-63760997D01*
X52726681Y-63763812D01*
X52727789Y-63767451D01*
X52731251Y-63776998D01*
X52736228Y-63789233D01*
X52742549Y-63803750D01*
X52750043Y-63820143D01*
X52758538Y-63838007D01*
X52767864Y-63856937D01*
X52786193Y-63894647D01*
X52803898Y-63933349D01*
X52837337Y-64013397D01*
X52867979Y-64096416D01*
X52895623Y-64181738D01*
X52920068Y-64268697D01*
X52941111Y-64356626D01*
X52958552Y-64444859D01*
X52972189Y-64532728D01*
X52976115Y-64566220D01*
X52979325Y-64602151D01*
X52983640Y-64679797D01*
X52985220Y-64762598D01*
X52984149Y-64847486D01*
X52980513Y-64931394D01*
X52974398Y-65011255D01*
X52965890Y-65084000D01*
X52960765Y-65116746D01*
X52955073Y-65146562D01*
X52943152Y-65198579D01*
X52929156Y-65252165D01*
X52913451Y-65306222D01*
X52896404Y-65359651D01*
X52878381Y-65411354D01*
X52859748Y-65460234D01*
X52840872Y-65505193D01*
X52822119Y-65545131D01*
X52797339Y-65592094D01*
X52770912Y-65637417D01*
X52742899Y-65681074D01*
X52713361Y-65723040D01*
X52682360Y-65763289D01*
X52649957Y-65801793D01*
X52616212Y-65838526D01*
X52581187Y-65873464D01*
X52544943Y-65906579D01*
X52507542Y-65937845D01*
X52469043Y-65967236D01*
X52429509Y-65994725D01*
X52389001Y-66020288D01*
X52347580Y-66043896D01*
X52305306Y-66065525D01*
X52262242Y-66085148D01*
X52218448Y-66102738D01*
X52173985Y-66118270D01*
X52128915Y-66131718D01*
X52083299Y-66143054D01*
X52037197Y-66152254D01*
X51990671Y-66159290D01*
X51943783Y-66164137D01*
X51896593Y-66166769D01*
X51849162Y-66167158D01*
X51801552Y-66165280D01*
X51753823Y-66161107D01*
X51706038Y-66154614D01*
X51658257Y-66145774D01*
X51610540Y-66134562D01*
X51562950Y-66120950D01*
X51515548Y-66104913D01*
X51484171Y-66092715D01*
X51453830Y-66079407D01*
X51424538Y-66064998D01*
X51396305Y-66049499D01*
X51369144Y-66032919D01*
X51343065Y-66015268D01*
X51318081Y-65996556D01*
X51294202Y-65976794D01*
X51271440Y-65955990D01*
X51249807Y-65934156D01*
X51229313Y-65911301D01*
X51209971Y-65887435D01*
X51191792Y-65862568D01*
X51174787Y-65836711D01*
X51158968Y-65809872D01*
X51144346Y-65782062D01*
X51130315Y-65753301D01*
X51124524Y-65740879D01*
X51119468Y-65729444D01*
X51115091Y-65718757D01*
X51111331Y-65708580D01*
X51108129Y-65698674D01*
X51105427Y-65688802D01*
X51103164Y-65678723D01*
X51101282Y-65668199D01*
X51099721Y-65656993D01*
X51098421Y-65644865D01*
X51097324Y-65631576D01*
X51096369Y-65616888D01*
X51094651Y-65582361D01*
X51093848Y-65551509D01*
X51094238Y-65521714D01*
X51095831Y-65492947D01*
X51098636Y-65465183D01*
X51102663Y-65438392D01*
X51107922Y-65412548D01*
X51114423Y-65387622D01*
X51122176Y-65363587D01*
X51131191Y-65340416D01*
X51141476Y-65318081D01*
X51153043Y-65296554D01*
X51165901Y-65275807D01*
X51180059Y-65255814D01*
X51195528Y-65236546D01*
X51212318Y-65217976D01*
X51230438Y-65200076D01*
X51242023Y-65189749D01*
X51253601Y-65180458D01*
X51265192Y-65172199D01*
X51276815Y-65164967D01*
X51288491Y-65158758D01*
X51300239Y-65153567D01*
X51312080Y-65149391D01*
X51324032Y-65146224D01*
X51336117Y-65144062D01*
X51348354Y-65142900D01*
X51360763Y-65142735D01*
X51373363Y-65143562D01*
X51386176Y-65145377D01*
X51399221Y-65148174D01*
X51412517Y-65151950D01*
X51426085Y-65156701D01*
X51435486Y-65160531D01*
X51444296Y-65164639D01*
X51452559Y-65169079D01*
X51460319Y-65173902D01*
X51467621Y-65179163D01*
X51474509Y-65184913D01*
X51481027Y-65191206D01*
X51487221Y-65198095D01*
X51493134Y-65205633D01*
X51498811Y-65213872D01*
X51504296Y-65222866D01*
X51509634Y-65232667D01*
X51514869Y-65243328D01*
X51520046Y-65254903D01*
X51525208Y-65267445D01*
X51530401Y-65281005D01*
X51535082Y-65292522D01*
X51540401Y-65303591D01*
X51546331Y-65314202D01*
X51552845Y-65324348D01*
X51559915Y-65334020D01*
X51567515Y-65343209D01*
X51575618Y-65351907D01*
X51584195Y-65360105D01*
X51593220Y-65367795D01*
X51602665Y-65374968D01*
X51612504Y-65381616D01*
X51622709Y-65387729D01*
X51633252Y-65393301D01*
X51644106Y-65398322D01*
X51655245Y-65402783D01*
X51666641Y-65406676D01*
X51678266Y-65409992D01*
X51690094Y-65412724D01*
X51702097Y-65414862D01*
X51714248Y-65416397D01*
X51726519Y-65417323D01*
X51738884Y-65417628D01*
X51751315Y-65417307D01*
X51763785Y-65416348D01*
X51776266Y-65414745D01*
X51788732Y-65412489D01*
X51801155Y-65409571D01*
X51813507Y-65405982D01*
X51825763Y-65401715D01*
X51837894Y-65396760D01*
X51849872Y-65391109D01*
X51861672Y-65384753D01*
X51884228Y-65370587D01*
X51905167Y-65354883D01*
X51924493Y-65337626D01*
X51942213Y-65318800D01*
X51958334Y-65298392D01*
X51972860Y-65276387D01*
X51985799Y-65252770D01*
X51997156Y-65227525D01*
X52006937Y-65200639D01*
X52015147Y-65172096D01*
X52021794Y-65141882D01*
X52026883Y-65109982D01*
X52030420Y-65076380D01*
X52032411Y-65041064D01*
X52032862Y-65004017D01*
X52031779Y-64965225D01*
X52028988Y-64925746D01*
X52024282Y-64886279D01*
X52017642Y-64846777D01*
X52009048Y-64807194D01*
X51998479Y-64767485D01*
X51985916Y-64727602D01*
X51971338Y-64687501D01*
X51954726Y-64647135D01*
X51936060Y-64606459D01*
X51915319Y-64565426D01*
X51892483Y-64523990D01*
X51867533Y-64482106D01*
X51840449Y-64439728D01*
X51811210Y-64396810D01*
X51779797Y-64353305D01*
X51746189Y-64309168D01*
X51700777Y-64250019D01*
X51655764Y-64189707D01*
X51616350Y-64135297D01*
X51600368Y-64112513D01*
X51587735Y-64093854D01*
X51562035Y-64054703D01*
X51551743Y-64039275D01*
X51542894Y-64026546D01*
X51535292Y-64016470D01*
X51531897Y-64012412D01*
X51528741Y-64008998D01*
X51525797Y-64006223D01*
X51523043Y-64004082D01*
X51520453Y-64002567D01*
X51518003Y-64001673D01*
X51515668Y-64001394D01*
X51513424Y-64001723D01*
X51511245Y-64002656D01*
X51509109Y-64004185D01*
X51506989Y-64006305D01*
X51504862Y-64009010D01*
X51502703Y-64012293D01*
X51500487Y-64016150D01*
X51495787Y-64025556D01*
X51490566Y-64037181D01*
X51477773Y-64066895D01*
X51452127Y-64122861D01*
X51423978Y-64178617D01*
X51393405Y-64234067D01*
X51360488Y-64289113D01*
X51325307Y-64343656D01*
X51287941Y-64397600D01*
X51248470Y-64450848D01*
X51206974Y-64503300D01*
X51163532Y-64554860D01*
X51118224Y-64605431D01*
X51071129Y-64654915D01*
X51022328Y-64703213D01*
X50971900Y-64750229D01*
X50919925Y-64795866D01*
X50866482Y-64840025D01*
X50811651Y-64882608D01*
X50762336Y-64918980D01*
X50713322Y-64953646D01*
X50664593Y-64986615D01*
X50616133Y-65017894D01*
X50567927Y-65047491D01*
X50519959Y-65075414D01*
X50472213Y-65101671D01*
X50424674Y-65126270D01*
X50377327Y-65149217D01*
X50330155Y-65170522D01*
X50283143Y-65190192D01*
X50236276Y-65208235D01*
X50189538Y-65224659D01*
X50142913Y-65239471D01*
X50096386Y-65252679D01*
X50049941Y-65264291D01*
X50024327Y-65269557D01*
X49996188Y-65274066D01*
X49965899Y-65277821D01*
X49933837Y-65280826D01*
X49900381Y-65283085D01*
X49865907Y-65284600D01*
X49795415Y-65285414D01*
X49725377Y-65283297D01*
X49691472Y-65281148D01*
X49658812Y-65278277D01*
X49627774Y-65274687D01*
X49598736Y-65270382D01*
X49572074Y-65265364D01*
X49548167Y-65259639D01*
X49503286Y-65246437D01*
X49460391Y-65231693D01*
X49419408Y-65215347D01*
X49380264Y-65197338D01*
X49342883Y-65177604D01*
X49307191Y-65156085D01*
X49273116Y-65132718D01*
X49240582Y-65107444D01*
X49209516Y-65080200D01*
X49179843Y-65050925D01*
X49151489Y-65019560D01*
X49124381Y-64986041D01*
X49098445Y-64950309D01*
X49073605Y-64912301D01*
X49049789Y-64871958D01*
X49026922Y-64829217D01*
X49004008Y-64785649D01*
X48981197Y-64745103D01*
X48958359Y-64707458D01*
X48935366Y-64672590D01*
X48912089Y-64640379D01*
X48888398Y-64610702D01*
X48864165Y-64583438D01*
X48839261Y-64558465D01*
X48813556Y-64535661D01*
X48786922Y-64514904D01*
X48759230Y-64496074D01*
X48730350Y-64479047D01*
X48700154Y-64463702D01*
X48668513Y-64449918D01*
X48635297Y-64437572D01*
X48600379Y-64426543D01*
X48538137Y-64408449D01*
X48516457Y-64438838D01*
X48504706Y-64454390D01*
X48492173Y-64469222D01*
X48478900Y-64483310D01*
X48464929Y-64496630D01*
X48450302Y-64509157D01*
X48435060Y-64520868D01*
X48419247Y-64531738D01*
X48402903Y-64541744D01*
X48386070Y-64550860D01*
X48368792Y-64559064D01*
X48351108Y-64566329D01*
X48333062Y-64572634D01*
X48314696Y-64577953D01*
X48296050Y-64582261D01*
X48277168Y-64585536D01*
X48258091Y-64587753D01*
X48246972Y-64588468D01*
X48235801Y-64588677D01*
X48224595Y-64588388D01*
X48213367Y-64587611D01*
X48202135Y-64586355D01*
X48190913Y-64584629D01*
X48179718Y-64582444D01*
X48168565Y-64579807D01*
X48157468Y-64576729D01*
X48146445Y-64573219D01*
X48135510Y-64569286D01*
X48124679Y-64564939D01*
X48113968Y-64560188D01*
X48103392Y-64555042D01*
X48092966Y-64549511D01*
X48082707Y-64543603D01*
X48072630Y-64537328D01*
X48062750Y-64530696D01*
X48053083Y-64523715D01*
X48043644Y-64516396D01*
X48034450Y-64508746D01*
X48025515Y-64500776D01*
X48016856Y-64492496D01*
X48008487Y-64483913D01*
X48000424Y-64475038D01*
X47992684Y-64465880D01*
X47985280Y-64456448D01*
X47978230Y-64446752D01*
X47971548Y-64436801D01*
X47965251Y-64426604D01*
X47959353Y-64416170D01*
X47953871Y-64405510D01*
X47945640Y-64388063D01*
X47942224Y-64380189D01*
X47939247Y-64372721D01*
X47936687Y-64365538D01*
X47934522Y-64358520D01*
X47932731Y-64351547D01*
X47931293Y-64344498D01*
X47930186Y-64337254D01*
X47929388Y-64329693D01*
X47928879Y-64321696D01*
X47928636Y-64313141D01*
X47928639Y-64303910D01*
X47928643Y-64303746D01*
X48864608Y-64303746D01*
X48922816Y-64342368D01*
X48944131Y-64356971D01*
X48964341Y-64371813D01*
X48983576Y-64387059D01*
X49001968Y-64402873D01*
X49019646Y-64419419D01*
X49036742Y-64436862D01*
X49053386Y-64455366D01*
X49069708Y-64475096D01*
X49085839Y-64496216D01*
X49101909Y-64518889D01*
X49118050Y-64543281D01*
X49134391Y-64569556D01*
X49151064Y-64597878D01*
X49168198Y-64628411D01*
X49204374Y-64696770D01*
X49230033Y-64743861D01*
X49257008Y-64787528D01*
X49285388Y-64827826D01*
X49315261Y-64864807D01*
X49346716Y-64898524D01*
X49379841Y-64929032D01*
X49414724Y-64956383D01*
X49451454Y-64980630D01*
X49490120Y-65001828D01*
X49530809Y-65020028D01*
X49573611Y-65035285D01*
X49618614Y-65047652D01*
X49665905Y-65057181D01*
X49715574Y-65063927D01*
X49767709Y-65067943D01*
X49822399Y-65069282D01*
X49856248Y-65069012D01*
X49886460Y-65068103D01*
X49913988Y-65066442D01*
X49927042Y-65065294D01*
X49939782Y-65063916D01*
X49952326Y-65062293D01*
X49964794Y-65060412D01*
X49977304Y-65058258D01*
X49989975Y-65055818D01*
X50016277Y-65050020D01*
X50044649Y-65042905D01*
X50096835Y-65027952D01*
X50149498Y-65010413D01*
X50202540Y-64990349D01*
X50255861Y-64967822D01*
X50309364Y-64942891D01*
X50362949Y-64915617D01*
X50416518Y-64886063D01*
X50469971Y-64854287D01*
X50523210Y-64820352D01*
X50576137Y-64784317D01*
X50628653Y-64746244D01*
X50680658Y-64706194D01*
X50732054Y-64664228D01*
X50782742Y-64620405D01*
X50832624Y-64574788D01*
X50881601Y-64527437D01*
X50918353Y-64490146D01*
X50953235Y-64453169D01*
X50986308Y-64416415D01*
X51017631Y-64379791D01*
X51047266Y-64343205D01*
X51075271Y-64306562D01*
X51101708Y-64269772D01*
X51126636Y-64232742D01*
X51150117Y-64195379D01*
X51172209Y-64157590D01*
X51192974Y-64119283D01*
X51212471Y-64080366D01*
X51230760Y-64040745D01*
X51247903Y-64000329D01*
X51263959Y-63959024D01*
X51278988Y-63916739D01*
X51278988Y-63916740D01*
X51284761Y-63898507D01*
X51290289Y-63878684D01*
X51295449Y-63857874D01*
X51300114Y-63836682D01*
X51304162Y-63815709D01*
X51307466Y-63795560D01*
X51309903Y-63776838D01*
X51311348Y-63760145D01*
X51312545Y-63736166D01*
X51312777Y-63725842D01*
X51312683Y-63716320D01*
X51312203Y-63707368D01*
X51311275Y-63698754D01*
X51309838Y-63690247D01*
X51307831Y-63681614D01*
X51305194Y-63672624D01*
X51301864Y-63663045D01*
X51297782Y-63652646D01*
X51292885Y-63641194D01*
X51280404Y-63614206D01*
X51263934Y-63580228D01*
X51240272Y-63533805D01*
X51214118Y-63485945D01*
X51186354Y-63438046D01*
X51157859Y-63391509D01*
X51129514Y-63347732D01*
X51102200Y-63308114D01*
X51089205Y-63290301D01*
X51076797Y-63274053D01*
X51065087Y-63259544D01*
X51054185Y-63246950D01*
X51046370Y-63238613D01*
X51038048Y-63230308D01*
X51029341Y-63222122D01*
X51020374Y-63214138D01*
X51011269Y-63206445D01*
X51002150Y-63199127D01*
X50993140Y-63192271D01*
X50984364Y-63185963D01*
X50975944Y-63180288D01*
X50968004Y-63175334D01*
X50960667Y-63171185D01*
X50954057Y-63167928D01*
X50948297Y-63165649D01*
X50945774Y-63164903D01*
X50943510Y-63164434D01*
X50941521Y-63164252D01*
X50939821Y-63164368D01*
X50938427Y-63164794D01*
X50937353Y-63165539D01*
X50936657Y-63166775D01*
X50935768Y-63169250D01*
X50933466Y-63177648D01*
X50930556Y-63190196D01*
X50927148Y-63206356D01*
X50919271Y-63247368D01*
X50910711Y-63296392D01*
X50900194Y-63352981D01*
X50887578Y-63409490D01*
X50872934Y-63465828D01*
X50856330Y-63521907D01*
X50837838Y-63577637D01*
X50817526Y-63632928D01*
X50771722Y-63741835D01*
X50719476Y-63847913D01*
X50661344Y-63950445D01*
X50597884Y-64048715D01*
X50529653Y-64142005D01*
X50457207Y-64229601D01*
X50381106Y-64310784D01*
X50301904Y-64384840D01*
X50261315Y-64418971D01*
X50220160Y-64451051D01*
X50178509Y-64480991D01*
X50136431Y-64508701D01*
X50093996Y-64534092D01*
X50051274Y-64557074D01*
X50008334Y-64577558D01*
X49965246Y-64595453D01*
X49922079Y-64610671D01*
X49878904Y-64623122D01*
X49841387Y-64631795D01*
X49805089Y-64638242D01*
X49769811Y-64642408D01*
X49735356Y-64644236D01*
X49701527Y-64643671D01*
X49668127Y-64640657D01*
X49634960Y-64635138D01*
X49601827Y-64627059D01*
X49568531Y-64616364D01*
X49534876Y-64602998D01*
X49500665Y-64586903D01*
X49465699Y-64568026D01*
X49429783Y-64546310D01*
X49392718Y-64521699D01*
X49354308Y-64494138D01*
X49314356Y-64463571D01*
X49286064Y-64441584D01*
X49259687Y-64421697D01*
X49235001Y-64403809D01*
X49211779Y-64387819D01*
X49189796Y-64373624D01*
X49168825Y-64361125D01*
X49148642Y-64350220D01*
X49129019Y-64340808D01*
X49109732Y-64332788D01*
X49090555Y-64326058D01*
X49071262Y-64320518D01*
X49051626Y-64316065D01*
X49031423Y-64312600D01*
X49010426Y-64310021D01*
X48988410Y-64308226D01*
X48965149Y-64307116D01*
X48864608Y-64303746D01*
X47928643Y-64303746D01*
X47928866Y-64293881D01*
X47929906Y-64270949D01*
X47931813Y-64248143D01*
X47934966Y-64226077D01*
X47937008Y-64215324D01*
X47939358Y-64204762D01*
X47942015Y-64194390D01*
X47944979Y-64184210D01*
X47948249Y-64174225D01*
X47951823Y-64164435D01*
X47955701Y-64154841D01*
X47959882Y-64145447D01*
X47964364Y-64136252D01*
X47969147Y-64127259D01*
X47974230Y-64118468D01*
X47979611Y-64109883D01*
X47985290Y-64101503D01*
X47991266Y-64093331D01*
X47997537Y-64085368D01*
X48004103Y-64077615D01*
X48010963Y-64070075D01*
X48018115Y-64062748D01*
X48025560Y-64055636D01*
X48033295Y-64048741D01*
X48041320Y-64042064D01*
X48049634Y-64035607D01*
X48058235Y-64029371D01*
X48067124Y-64023357D01*
X48076298Y-64017568D01*
X48085757Y-64012005D01*
X48105526Y-64001561D01*
X48121914Y-63994126D01*
X48138740Y-63987680D01*
X48155941Y-63982224D01*
X48173453Y-63977756D01*
X48191215Y-63974279D01*
X48209162Y-63971790D01*
X48227232Y-63970292D01*
X48245362Y-63969782D01*
X48263488Y-63970263D01*
X48281548Y-63971733D01*
X48299479Y-63974193D01*
X48317218Y-63977642D01*
X48334701Y-63982082D01*
X48351865Y-63987511D01*
X48368649Y-63993930D01*
X48384988Y-64001339D01*
X48395227Y-64006558D01*
X48405129Y-64011997D01*
X48414714Y-64017676D01*
X48424006Y-64023615D01*
X48433027Y-64029833D01*
X48441798Y-64036350D01*
X48450341Y-64043187D01*
X48458679Y-64050362D01*
X48466834Y-64057895D01*
X48474828Y-64065806D01*
X48482683Y-64074116D01*
X48490422Y-64082843D01*
X48498065Y-64092007D01*
X48505636Y-64101628D01*
X48513157Y-64111726D01*
X48520649Y-64122320D01*
X48536524Y-64145329D01*
X48647649Y-64119621D01*
X48672264Y-64114198D01*
X48699658Y-64108635D01*
X48728916Y-64103091D01*
X48759120Y-64097724D01*
X48789355Y-64092691D01*
X48818704Y-64088150D01*
X48846250Y-64084259D01*
X48871078Y-64081175D01*
X48904423Y-64077600D01*
X48932633Y-64075150D01*
X48945247Y-64074357D01*
X48957099Y-64073857D01*
X48968364Y-64073655D01*
X48979215Y-64073754D01*
X48989827Y-64074160D01*
X49000373Y-64074874D01*
X49011028Y-64075903D01*
X49021965Y-64077250D01*
X49033359Y-64078919D01*
X49045384Y-64080914D01*
X49072023Y-64085899D01*
X49093869Y-64090557D01*
X49115262Y-64095860D01*
X49136320Y-64101867D01*
X49157163Y-64108640D01*
X49177907Y-64116240D01*
X49198671Y-64124727D01*
X49219573Y-64134162D01*
X49240733Y-64144607D01*
X49262267Y-64156122D01*
X49284294Y-64168767D01*
X49306933Y-64182604D01*
X49330302Y-64197694D01*
X49354518Y-64214096D01*
X49379702Y-64231873D01*
X49433440Y-64271793D01*
X49463514Y-64294632D01*
X49490748Y-64314970D01*
X49515444Y-64332946D01*
X49537904Y-64348700D01*
X49558429Y-64362372D01*
X49577323Y-64374104D01*
X49594888Y-64384036D01*
X49611426Y-64392307D01*
X49627239Y-64399058D01*
X49634968Y-64401908D01*
X49642629Y-64404430D01*
X49650260Y-64406643D01*
X49657899Y-64408563D01*
X49673351Y-64411597D01*
X49689287Y-64413673D01*
X49706010Y-64414931D01*
X49723821Y-64415511D01*
X49743024Y-64415554D01*
X49766387Y-64415049D01*
X49777093Y-64414562D01*
X49787250Y-64413901D01*
X49796934Y-64413050D01*
X49806222Y-64411996D01*
X49815191Y-64410723D01*
X49823916Y-64409218D01*
X49832474Y-64407466D01*
X49840941Y-64405453D01*
X49849394Y-64403163D01*
X49857909Y-64400584D01*
X49866561Y-64397701D01*
X49875429Y-64394498D01*
X49884587Y-64390962D01*
X49894112Y-64387079D01*
X49959268Y-64355940D01*
X50024111Y-64317287D01*
X50088249Y-64271663D01*
X50151293Y-64219612D01*
X50212852Y-64161677D01*
X50272537Y-64098402D01*
X50329958Y-64030330D01*
X50384724Y-63958004D01*
X50436445Y-63881969D01*
X50484731Y-63802768D01*
X50529193Y-63720944D01*
X50569439Y-63637041D01*
X50605079Y-63551603D01*
X50635725Y-63465172D01*
X50660984Y-63378293D01*
X50680468Y-63291509D01*
X50682902Y-63278050D01*
X50684965Y-63265287D01*
X50686628Y-63253515D01*
X50687861Y-63243027D01*
X50688306Y-63238356D01*
X50688632Y-63234117D01*
X50688835Y-63230346D01*
X50688912Y-63227080D01*
X50688858Y-63224356D01*
X50688670Y-63222211D01*
X50688344Y-63220680D01*
X50688127Y-63220157D01*
X50687875Y-63219802D01*
X50687519Y-63219584D01*
X50686991Y-63219467D01*
X50685443Y-63219533D01*
X50683268Y-63219982D01*
X50680504Y-63220798D01*
X50673359Y-63223459D01*
X50664307Y-63227381D01*
X50653645Y-63232428D01*
X50641674Y-63238464D01*
X50628692Y-63245353D01*
X50614997Y-63252959D01*
X50538740Y-63295115D01*
X50463314Y-63334523D01*
X50388622Y-63371211D01*
X50314571Y-63405209D01*
X50241066Y-63436546D01*
X50168011Y-63465251D01*
X50095313Y-63491353D01*
X50022875Y-63514881D01*
X49950604Y-63535865D01*
X49878405Y-63554334D01*
X49806182Y-63570317D01*
X49733841Y-63583842D01*
X49661287Y-63594940D01*
X49588425Y-63603639D01*
X49515161Y-63609969D01*
X49441399Y-63613959D01*
X49371042Y-63615787D01*
X49302152Y-63615808D01*
X49234543Y-63613988D01*
X49168033Y-63610288D01*
X49102435Y-63604673D01*
X49037565Y-63597106D01*
X48973240Y-63587552D01*
X48909275Y-63575972D01*
X48845484Y-63562332D01*
X48781684Y-63546594D01*
X48717691Y-63528722D01*
X48653319Y-63508680D01*
X48588384Y-63486432D01*
X48522702Y-63461940D01*
X48456088Y-63435169D01*
X48388358Y-63406082D01*
X48298914Y-63364497D01*
X48212932Y-63320443D01*
X48130348Y-63273859D01*
X48051096Y-63224683D01*
X47975111Y-63172854D01*
X47902328Y-63118309D01*
X47832682Y-63060987D01*
X47766108Y-63000827D01*
X47702540Y-62937767D01*
X47641915Y-62871745D01*
X47584166Y-62802700D01*
X47529228Y-62730570D01*
X47477037Y-62655293D01*
X47427528Y-62576809D01*
X47380634Y-62495054D01*
X47336292Y-62409969D01*
X47306156Y-62346835D01*
X47278068Y-62282916D01*
X47252015Y-62218145D01*
X47227982Y-62152453D01*
X47205955Y-62085774D01*
X47185919Y-62018039D01*
X47167860Y-61949181D01*
X47151763Y-61879133D01*
X47137614Y-61807826D01*
X47125399Y-61735194D01*
X47115103Y-61661168D01*
X47106711Y-61585681D01*
X47100209Y-61508665D01*
X47095583Y-61430053D01*
X47092818Y-61349777D01*
X47091980Y-61275041D01*
X47314529Y-61275041D01*
X47315184Y-61357458D01*
X47317179Y-61434484D01*
X47320517Y-61501477D01*
X47325198Y-61553798D01*
X47340498Y-61659934D01*
X47359933Y-61763795D01*
X47383450Y-61865279D01*
X47410995Y-61964285D01*
X47442516Y-62060710D01*
X47477959Y-62154452D01*
X47517271Y-62245408D01*
X47560400Y-62333477D01*
X47607292Y-62418557D01*
X47657894Y-62500545D01*
X47712153Y-62579339D01*
X47770015Y-62654838D01*
X47831429Y-62726938D01*
X47896340Y-62795538D01*
X47964695Y-62860536D01*
X48036442Y-62921830D01*
X48107881Y-62977208D01*
X48181023Y-63029138D01*
X48255821Y-63077601D01*
X48332225Y-63122581D01*
X48410186Y-63164061D01*
X48489657Y-63202024D01*
X48570589Y-63236452D01*
X48652931Y-63267328D01*
X48736637Y-63294636D01*
X48821657Y-63318358D01*
X48907942Y-63338478D01*
X48995444Y-63354978D01*
X49084114Y-63367841D01*
X49173903Y-63377049D01*
X49264763Y-63382587D01*
X49356644Y-63384437D01*
X49430440Y-63383297D01*
X49503097Y-63379848D01*
X49574767Y-63374049D01*
X49645600Y-63365855D01*
X49715748Y-63355224D01*
X49785362Y-63342114D01*
X49854592Y-63326482D01*
X49923591Y-63308285D01*
X49992510Y-63287480D01*
X50061498Y-63264025D01*
X50130708Y-63237876D01*
X50200291Y-63208992D01*
X50270398Y-63177329D01*
X50341179Y-63142845D01*
X50412787Y-63105496D01*
X50485371Y-63065241D01*
X50512985Y-63049705D01*
X50541796Y-63033896D01*
X50570956Y-63018254D01*
X50599617Y-63003219D01*
X50626929Y-62989231D01*
X50652045Y-62976731D01*
X50674116Y-62966157D01*
X50692292Y-62957950D01*
X50716606Y-62947730D01*
X50727364Y-62943506D01*
X50737472Y-62939824D01*
X50747146Y-62936645D01*
X50756600Y-62933933D01*
X50766046Y-62931651D01*
X50775699Y-62929762D01*
X50785772Y-62928228D01*
X50796480Y-62927013D01*
X50808036Y-62926080D01*
X50820654Y-62925390D01*
X50849931Y-62924597D01*
X50886022Y-62924336D01*
X50923094Y-62924383D01*
X50938611Y-62924579D01*
X50941521Y-62924656D01*
X50952419Y-62924946D01*
X50964745Y-62925527D01*
X50975817Y-62926363D01*
X50985862Y-62927498D01*
X50995109Y-62928974D01*
X51003783Y-62930833D01*
X51012114Y-62933117D01*
X51020329Y-62935868D01*
X51028654Y-62939130D01*
X51037319Y-62942944D01*
X51046550Y-62947352D01*
X51067620Y-62958123D01*
X51094515Y-62973001D01*
X51120332Y-62989101D01*
X51145346Y-63006773D01*
X51169829Y-63026366D01*
X51194054Y-63048228D01*
X51218295Y-63072709D01*
X51242825Y-63100158D01*
X51267916Y-63130924D01*
X51293843Y-63165356D01*
X51320878Y-63203803D01*
X51349294Y-63246614D01*
X51379365Y-63294138D01*
X51445563Y-63404723D01*
X51521658Y-63538350D01*
X51578964Y-63640139D01*
X51628106Y-63725885D01*
X51671271Y-63799061D01*
X51710644Y-63863139D01*
X51748411Y-63921590D01*
X51786759Y-63977888D01*
X51827873Y-64035504D01*
X51873940Y-64097912D01*
X51941857Y-64190530D01*
X52000809Y-64274759D01*
X52027189Y-64314187D01*
X52051645Y-64352069D01*
X52074284Y-64388587D01*
X52095211Y-64423925D01*
X52114533Y-64458268D01*
X52132356Y-64491797D01*
X52148786Y-64524698D01*
X52163928Y-64557153D01*
X52177890Y-64589346D01*
X52190775Y-64621460D01*
X52202692Y-64653679D01*
X52213745Y-64686186D01*
X52224793Y-64722107D01*
X52234505Y-64757891D01*
X52242892Y-64793500D01*
X52249966Y-64828895D01*
X52255737Y-64864037D01*
X52260216Y-64898888D01*
X52263416Y-64933409D01*
X52265345Y-64967560D01*
X52266017Y-65001304D01*
X52265441Y-65034600D01*
X52263630Y-65067411D01*
X52260593Y-65099697D01*
X52256343Y-65131420D01*
X52250889Y-65162540D01*
X52244245Y-65193020D01*
X52236419Y-65222819D01*
X52227424Y-65251900D01*
X52217271Y-65280223D01*
X52205971Y-65307750D01*
X52193534Y-65334441D01*
X52179972Y-65360259D01*
X52165296Y-65385163D01*
X52149518Y-65409115D01*
X52132647Y-65432077D01*
X52114696Y-65454010D01*
X52095676Y-65474874D01*
X52075596Y-65494631D01*
X52054470Y-65513241D01*
X52032307Y-65530668D01*
X52009119Y-65546870D01*
X51984916Y-65561810D01*
X51959711Y-65575448D01*
X51938869Y-65585426D01*
X51917797Y-65594453D01*
X51896537Y-65602537D01*
X51875132Y-65609686D01*
X51853625Y-65615909D01*
X51832057Y-65621214D01*
X51810470Y-65625610D01*
X51788908Y-65629104D01*
X51767412Y-65631705D01*
X51746025Y-65633421D01*
X51724789Y-65634260D01*
X51703747Y-65634231D01*
X51682940Y-65633341D01*
X51662411Y-65631600D01*
X51642203Y-65629015D01*
X51622358Y-65625595D01*
X51602917Y-65621347D01*
X51583924Y-65616281D01*
X51565421Y-65610405D01*
X51547449Y-65603725D01*
X51530053Y-65596252D01*
X51513272Y-65587993D01*
X51497151Y-65578957D01*
X51481731Y-65569151D01*
X51467055Y-65558584D01*
X51453165Y-65547265D01*
X51440103Y-65535201D01*
X51427912Y-65522400D01*
X51416634Y-65508872D01*
X51406311Y-65494624D01*
X51396986Y-65479665D01*
X51388701Y-65464002D01*
X51386297Y-65459184D01*
X51383851Y-65454569D01*
X51381381Y-65450178D01*
X51378904Y-65446031D01*
X51376438Y-65442149D01*
X51373999Y-65438554D01*
X51371605Y-65435267D01*
X51369274Y-65432308D01*
X51367022Y-65429698D01*
X51365931Y-65428531D01*
X51364867Y-65427460D01*
X51363831Y-65426486D01*
X51362826Y-65425613D01*
X51361854Y-65424843D01*
X51360917Y-65424179D01*
X51360017Y-65423623D01*
X51359156Y-65423178D01*
X51358337Y-65422847D01*
X51357562Y-65422632D01*
X51356833Y-65422537D01*
X51356151Y-65422562D01*
X51355520Y-65422712D01*
X51354942Y-65422989D01*
X51351027Y-65426023D01*
X51347179Y-65430198D01*
X51343423Y-65435428D01*
X51339784Y-65441624D01*
X51336288Y-65448700D01*
X51332961Y-65456568D01*
X51329829Y-65465142D01*
X51326917Y-65474333D01*
X51324252Y-65484054D01*
X51321858Y-65494219D01*
X51319762Y-65504740D01*
X51317989Y-65515529D01*
X51316566Y-65526500D01*
X51315517Y-65537565D01*
X51314869Y-65548636D01*
X51314647Y-65559627D01*
X51315137Y-65575860D01*
X51316592Y-65591967D01*
X51318995Y-65607931D01*
X51322326Y-65623734D01*
X51326567Y-65639359D01*
X51331700Y-65654789D01*
X51337705Y-65670006D01*
X51344565Y-65684994D01*
X51352259Y-65699735D01*
X51360771Y-65714212D01*
X51370080Y-65728407D01*
X51380168Y-65742304D01*
X51402608Y-65769132D01*
X51427941Y-65794558D01*
X51456018Y-65818445D01*
X51486688Y-65840654D01*
X51519803Y-65861048D01*
X51555212Y-65879488D01*
X51592768Y-65895837D01*
X51632320Y-65909956D01*
X51673718Y-65921707D01*
X51716814Y-65930953D01*
X51756049Y-65936876D01*
X51795940Y-65940598D01*
X51836340Y-65942153D01*
X51877107Y-65941576D01*
X51918093Y-65938901D01*
X51959154Y-65934165D01*
X52000144Y-65927401D01*
X52040920Y-65918645D01*
X52081334Y-65907930D01*
X52121243Y-65895293D01*
X52160502Y-65880767D01*
X52198964Y-65864388D01*
X52236485Y-65846190D01*
X52272919Y-65826209D01*
X52308122Y-65804478D01*
X52341949Y-65781034D01*
X52355490Y-65770609D01*
X52369993Y-65758555D01*
X52385277Y-65745068D01*
X52401159Y-65730347D01*
X52417457Y-65714591D01*
X52433991Y-65697997D01*
X52467036Y-65663092D01*
X52498840Y-65627218D01*
X52513822Y-65609414D01*
X52527949Y-65591962D01*
X52541039Y-65575062D01*
X52552911Y-65558911D01*
X52563382Y-65543708D01*
X52572270Y-65529651D01*
X52604890Y-65471357D01*
X52634235Y-65410926D01*
X52660292Y-65348474D01*
X52683050Y-65284119D01*
X52702495Y-65217977D01*
X52718614Y-65150166D01*
X52731396Y-65080802D01*
X52740826Y-65010003D01*
X52746893Y-64937885D01*
X52749584Y-64864566D01*
X52748886Y-64790163D01*
X52744786Y-64714793D01*
X52737272Y-64638572D01*
X52726332Y-64561619D01*
X52711951Y-64484049D01*
X52694118Y-64405981D01*
X52672478Y-64327626D01*
X52646305Y-64247308D01*
X52615794Y-64165351D01*
X52581137Y-64082079D01*
X52542530Y-63997815D01*
X52500165Y-63912885D01*
X52454235Y-63827611D01*
X52404936Y-63742318D01*
X52352459Y-63657330D01*
X52297000Y-63572970D01*
X52238751Y-63489563D01*
X52177906Y-63407433D01*
X52114659Y-63326903D01*
X52049204Y-63248298D01*
X51981733Y-63171942D01*
X51912441Y-63098158D01*
X51882652Y-63067103D01*
X51855457Y-63038088D01*
X51830796Y-63011019D01*
X51808606Y-62985803D01*
X51788827Y-62962346D01*
X51771396Y-62940553D01*
X51756252Y-62920330D01*
X51743334Y-62901583D01*
X51737690Y-62892735D01*
X51732579Y-62884220D01*
X51727994Y-62876027D01*
X51723927Y-62868144D01*
X51720369Y-62860560D01*
X51717315Y-62853263D01*
X51714755Y-62846241D01*
X51712682Y-62839483D01*
X51711088Y-62832976D01*
X51709966Y-62826709D01*
X51709308Y-62820670D01*
X51709106Y-62814848D01*
X51709352Y-62809230D01*
X51710040Y-62803805D01*
X51711160Y-62798561D01*
X51712706Y-62793487D01*
X51713865Y-62790549D01*
X51715288Y-62787552D01*
X51716956Y-62784516D01*
X51718848Y-62781463D01*
X51720944Y-62778416D01*
X51723224Y-62775394D01*
X51725669Y-62772421D01*
X51728258Y-62769517D01*
X51730971Y-62766705D01*
X51733788Y-62764005D01*
X51736689Y-62761440D01*
X51739654Y-62759031D01*
X51742664Y-62756799D01*
X51745697Y-62754766D01*
X51748735Y-62752955D01*
X51751757Y-62751385D01*
X51759698Y-62748032D01*
X51767729Y-62745598D01*
X51775942Y-62744120D01*
X51784426Y-62743636D01*
X51793275Y-62744184D01*
X51802580Y-62745800D01*
X51812431Y-62748523D01*
X51822921Y-62752390D01*
X51834142Y-62757438D01*
X51846184Y-62763706D01*
X51859140Y-62771231D01*
X51873100Y-62780051D01*
X51888157Y-62790202D01*
X51904401Y-62801723D01*
X51921925Y-62814651D01*
X51940820Y-62829025D01*
X52071162Y-62927365D01*
X52260679Y-63068380D01*
X52400254Y-63172360D01*
X52513553Y-63258875D01*
X52562000Y-63297070D01*
X52605862Y-63332684D01*
X52645798Y-63366312D01*
X52682469Y-63398548D01*
X52716537Y-63429987D01*
X52748662Y-63461225D01*
X52779506Y-63492856D01*
X52809728Y-63525476D01*
X52839991Y-63559678D01*
X52870954Y-63596058D01*
X52937628Y-63677733D01*
X52966862Y-63713638D01*
X52995371Y-63747453D01*
X53023273Y-63779275D01*
X53050683Y-63809204D01*
X53077718Y-63837339D01*
X53104495Y-63863780D01*
X53131130Y-63888624D01*
X53157740Y-63911971D01*
X53184441Y-63933920D01*
X53211350Y-63954570D01*
X53238582Y-63974020D01*
X53266256Y-63992369D01*
X53294487Y-64009716D01*
X53323392Y-64026160D01*
X53353087Y-64041800D01*
X53383689Y-64056734D01*
X53422286Y-64074049D01*
X53459660Y-64089089D01*
X53495957Y-64101855D01*
X53531324Y-64112350D01*
X53565908Y-64120573D01*
X53599855Y-64126527D01*
X53633312Y-64130212D01*
X53666426Y-64131630D01*
X53699342Y-64130782D01*
X53732209Y-64127670D01*
X53765171Y-64122294D01*
X53798377Y-64114656D01*
X53831972Y-64104758D01*
X53866104Y-64092600D01*
X53900918Y-64078183D01*
X53936562Y-64061510D01*
X53973891Y-64041634D01*
X54009340Y-64019789D01*
X54042836Y-63996085D01*
X54074306Y-63970629D01*
X54103677Y-63943531D01*
X54130877Y-63914898D01*
X54155832Y-63884841D01*
X54178470Y-63853467D01*
X54198717Y-63820885D01*
X54216501Y-63787204D01*
X54231749Y-63752533D01*
X54244388Y-63716979D01*
X54254345Y-63680653D01*
X54261548Y-63643662D01*
X54265923Y-63606115D01*
X54267397Y-63568121D01*
X54267034Y-63553808D01*
X54265985Y-63538638D01*
X54264318Y-63522857D01*
X54262097Y-63506710D01*
X54259386Y-63490444D01*
X54256252Y-63474303D01*
X54252759Y-63458534D01*
X54248972Y-63443381D01*
X54244956Y-63429092D01*
X54240777Y-63415910D01*
X54236500Y-63404083D01*
X54232189Y-63393855D01*
X54227910Y-63385472D01*
X54225803Y-63382050D01*
X54223728Y-63379181D01*
X54221694Y-63376896D01*
X54219708Y-63375226D01*
X54217779Y-63374201D01*
X54215915Y-63373853D01*
X54215507Y-63373913D01*
X54215073Y-63374094D01*
X54214129Y-63374801D01*
X54213092Y-63375950D01*
X54211973Y-63377518D01*
X54210782Y-63379481D01*
X54209529Y-63381814D01*
X54208224Y-63384495D01*
X54206878Y-63387499D01*
X54204104Y-63394381D01*
X54201289Y-63402270D01*
X54198514Y-63410976D01*
X54195863Y-63420307D01*
X54192243Y-63432415D01*
X54187693Y-63445258D01*
X54182290Y-63458707D01*
X54176113Y-63472633D01*
X54169238Y-63486907D01*
X54161743Y-63501399D01*
X54153707Y-63515981D01*
X54145205Y-63530523D01*
X54136317Y-63544897D01*
X54127120Y-63558973D01*
X54117692Y-63572622D01*
X54108109Y-63585715D01*
X54098450Y-63598123D01*
X54088792Y-63609717D01*
X54079214Y-63620367D01*
X54069792Y-63629946D01*
X54058287Y-63640475D01*
X54046078Y-63650536D01*
X54033210Y-63660111D01*
X54019731Y-63669178D01*
X54005687Y-63677721D01*
X53991123Y-63685717D01*
X53976086Y-63693150D01*
X53960623Y-63699998D01*
X53944779Y-63706243D01*
X53928601Y-63711866D01*
X53912135Y-63716847D01*
X53895427Y-63721167D01*
X53878523Y-63724806D01*
X53861471Y-63727745D01*
X53844315Y-63729964D01*
X53827103Y-63731446D01*
X53809232Y-63732208D01*
X53791390Y-63732199D01*
X53773573Y-63731418D01*
X53755781Y-63729863D01*
X53738013Y-63727535D01*
X53720267Y-63724432D01*
X53702541Y-63720552D01*
X53684835Y-63715897D01*
X53649475Y-63704251D01*
X53614175Y-63689489D01*
X53578926Y-63671602D01*
X53543715Y-63650583D01*
X53508531Y-63626426D01*
X53473364Y-63599123D01*
X53438203Y-63568667D01*
X53403036Y-63535051D01*
X53367852Y-63498268D01*
X53332641Y-63458311D01*
X53297392Y-63415174D01*
X53262092Y-63368847D01*
X53225939Y-63318676D01*
X53191473Y-63268352D01*
X53157827Y-63216420D01*
X53124134Y-63161425D01*
X53089524Y-63101913D01*
X53053132Y-63036430D01*
X53014088Y-62963520D01*
X52971526Y-62881728D01*
X52923621Y-62790095D01*
X52901716Y-62749512D01*
X52880908Y-62712020D01*
X52860994Y-62677319D01*
X52841775Y-62645109D01*
X52823048Y-62615093D01*
X52804612Y-62586970D01*
X52786265Y-62560441D01*
X52767808Y-62535208D01*
X52749037Y-62510972D01*
X52729752Y-62487432D01*
X52709752Y-62464290D01*
X52688835Y-62441247D01*
X52666799Y-62418003D01*
X52643444Y-62394260D01*
X52597139Y-62349678D01*
X52548767Y-62306569D01*
X52498029Y-62264712D01*
X52444625Y-62223886D01*
X52388255Y-62183870D01*
X52328621Y-62144444D01*
X52265421Y-62105387D01*
X52198356Y-62066479D01*
X52153888Y-62041263D01*
X52114123Y-62018297D01*
X52078862Y-61997401D01*
X52047904Y-61978392D01*
X52033976Y-61969539D01*
X52021049Y-61961090D01*
X52009099Y-61953023D01*
X51998099Y-61945314D01*
X51988025Y-61937941D01*
X51978852Y-61930881D01*
X51970555Y-61924112D01*
X51963109Y-61917611D01*
X51956490Y-61911356D01*
X51950671Y-61905323D01*
X51945628Y-61899491D01*
X51941337Y-61893836D01*
X51937772Y-61888336D01*
X51934908Y-61882967D01*
X51932720Y-61877709D01*
X51931183Y-61872537D01*
X51930273Y-61867429D01*
X51929964Y-61862363D01*
X51930231Y-61857316D01*
X51931049Y-61852265D01*
X51932394Y-61847188D01*
X51934240Y-61842061D01*
X51936562Y-61836863D01*
X51939336Y-61831570D01*
X51944151Y-61823704D01*
X51949635Y-61816118D01*
X51955788Y-61808815D01*
X51962608Y-61801793D01*
X51970093Y-61795055D01*
X51978244Y-61788601D01*
X51987057Y-61782432D01*
X51996532Y-61776548D01*
X52006666Y-61770952D01*
X52017460Y-61765642D01*
X52028911Y-61760621D01*
X52041017Y-61755889D01*
X52053778Y-61751447D01*
X52067192Y-61747296D01*
X52081258Y-61743436D01*
X52095974Y-61739868D01*
X52141212Y-61730456D01*
X52190132Y-61721887D01*
X52242119Y-61714185D01*
X52296560Y-61707377D01*
X52410352Y-61696549D01*
X52526601Y-61689609D01*
X52640399Y-61686768D01*
X52746840Y-61688234D01*
X52795769Y-61690647D01*
X52841017Y-61694215D01*
X52881973Y-61698964D01*
X52918023Y-61704920D01*
X52966847Y-61715025D01*
X53012539Y-61725612D01*
X53055522Y-61736912D01*
X53096219Y-61749152D01*
X53135053Y-61762563D01*
X53172447Y-61777374D01*
X53208824Y-61793814D01*
X53244607Y-61812111D01*
X53280220Y-61832497D01*
X53316086Y-61855199D01*
X53352628Y-61880447D01*
X53390268Y-61908471D01*
X53429430Y-61939498D01*
X53470538Y-61973760D01*
X53514014Y-62011485D01*
X53560281Y-62052902D01*
X53616920Y-62103568D01*
X53642392Y-62125746D01*
X53666230Y-62146009D01*
X53688633Y-62164496D01*
X53709801Y-62181347D01*
X53729932Y-62196704D01*
X53749226Y-62210707D01*
X53767880Y-62223496D01*
X53786095Y-62235212D01*
X53804069Y-62245996D01*
X53822001Y-62255986D01*
X53840089Y-62265325D01*
X53858534Y-62274153D01*
X53877533Y-62282609D01*
X53897286Y-62290835D01*
X53930599Y-62302851D01*
X53964300Y-62312183D01*
X53998293Y-62318852D01*
X54032487Y-62322879D01*
X54066787Y-62324285D01*
X54101099Y-62323091D01*
X54135329Y-62319318D01*
X54169384Y-62312987D01*
X54203170Y-62304119D01*
X54236593Y-62292736D01*
X54269559Y-62278857D01*
X54301975Y-62262504D01*
X54333747Y-62243699D01*
X54364781Y-62222461D01*
X54394983Y-62198813D01*
X54424260Y-62172775D01*
X54439452Y-62158044D01*
X54453859Y-62143331D01*
X54467491Y-62128618D01*
X54480360Y-62113889D01*
X54492476Y-62099126D01*
X54503849Y-62084312D01*
X54514492Y-62069431D01*
X54524414Y-62054466D01*
X54533626Y-62039398D01*
X54542140Y-62024212D01*
X54549966Y-62008891D01*
X54557115Y-61993416D01*
X54563598Y-61977772D01*
X54569425Y-61961941D01*
X54574609Y-61945906D01*
X54579158Y-61929650D01*
X54579158Y-61929651D01*
X54582925Y-61913125D01*
X54586145Y-61895027D01*
X54588821Y-61875721D01*
X54590959Y-61855571D01*
X54592562Y-61834942D01*
X54593636Y-61814198D01*
X54594184Y-61793703D01*
X54594211Y-61773822D01*
X54593721Y-61754918D01*
X54592719Y-61737356D01*
X54591208Y-61721500D01*
X54589193Y-61707714D01*
X54586679Y-61696363D01*
X54585237Y-61691715D01*
X54583670Y-61687811D01*
X54581982Y-61684699D01*
X54580171Y-61682422D01*
X54578238Y-61681028D01*
X54576185Y-61680561D01*
X54575792Y-61680625D01*
X54575353Y-61680812D01*
X54574346Y-61681540D01*
X54573176Y-61682723D01*
X54571858Y-61684334D01*
X54570405Y-61686349D01*
X54568830Y-61688745D01*
X54565373Y-61694578D01*
X54561595Y-61701639D01*
X54557606Y-61709730D01*
X54553517Y-61718657D01*
X54549437Y-61728225D01*
X54539684Y-61749508D01*
X54528268Y-61770094D01*
X54515294Y-61789907D01*
X54500868Y-61808871D01*
X54485096Y-61826910D01*
X54468083Y-61843946D01*
X54449936Y-61859903D01*
X54430760Y-61874706D01*
X54410662Y-61888276D01*
X54389747Y-61900539D01*
X54368120Y-61911417D01*
X54345889Y-61920833D01*
X54323159Y-61928712D01*
X54300035Y-61934977D01*
X54276623Y-61939552D01*
X54253030Y-61942359D01*
X54224336Y-61943782D01*
X54197123Y-61943167D01*
X54171121Y-61940305D01*
X54146061Y-61934981D01*
X54121675Y-61926985D01*
X54109649Y-61921918D01*
X54097691Y-61916103D01*
X54073843Y-61902125D01*
X54049859Y-61884838D01*
X54025471Y-61864029D01*
X54000409Y-61839488D01*
X53974405Y-61811000D01*
X53947188Y-61778356D01*
X53918490Y-61741342D01*
X53888042Y-61699746D01*
X53855573Y-61653357D01*
X53820815Y-61601962D01*
X53793794Y-61561862D01*
X53765897Y-61521227D01*
X53737927Y-61481177D01*
X53710687Y-61442831D01*
X53684980Y-61407310D01*
X53661608Y-61375735D01*
X53641374Y-61349223D01*
X53625082Y-61328897D01*
X53593514Y-61292983D01*
X53560009Y-61258669D01*
X53524545Y-61225946D01*
X53487101Y-61194801D01*
X53447655Y-61165223D01*
X53406186Y-61137202D01*
X53362673Y-61110726D01*
X53317093Y-61085784D01*
X53269426Y-61062365D01*
X53219649Y-61040458D01*
X53167742Y-61020051D01*
X53113682Y-61001134D01*
X53057449Y-60983695D01*
X52999020Y-60967723D01*
X52938375Y-60953206D01*
X52875491Y-60940135D01*
X52815209Y-60930228D01*
X52743850Y-60921328D01*
X52664985Y-60913666D01*
X52582183Y-60907472D01*
X52499016Y-60902976D01*
X52419053Y-60900407D01*
X52345865Y-60899996D01*
X52283022Y-60901973D01*
X52203754Y-60906072D01*
X52168186Y-60907531D01*
X52135211Y-60908592D01*
X52104740Y-60909253D01*
X52076685Y-60909510D01*
X52050956Y-60909361D01*
X52027464Y-60908802D01*
X52006122Y-60907830D01*
X51986839Y-60906443D01*
X51969528Y-60904637D01*
X51954100Y-60902409D01*
X51940465Y-60899756D01*
X51928536Y-60896675D01*
X51918222Y-60893164D01*
X51909437Y-60889219D01*
X51899605Y-60883832D01*
X51890616Y-60878275D01*
X51886437Y-60875433D01*
X51882469Y-60872549D01*
X51878712Y-60869623D01*
X51875166Y-60866656D01*
X51871831Y-60863646D01*
X51868706Y-60860594D01*
X51865793Y-60857501D01*
X51863091Y-60854367D01*
X51860600Y-60851191D01*
X51858320Y-60847974D01*
X51856252Y-60844716D01*
X51854395Y-60841417D01*
X51852749Y-60838077D01*
X51851315Y-60834697D01*
X51850092Y-60831275D01*
X51849081Y-60827814D01*
X51848282Y-60824311D01*
X51847694Y-60820769D01*
X51847318Y-60817186D01*
X51847154Y-60813564D01*
X51847202Y-60809901D01*
X51847462Y-60806199D01*
X51847935Y-60802457D01*
X51848619Y-60798676D01*
X51849515Y-60794855D01*
X51850624Y-60790995D01*
X51851944Y-60787095D01*
X51853478Y-60783157D01*
X51856928Y-60775747D01*
X51861172Y-60768484D01*
X51866407Y-60761236D01*
X51872827Y-60753873D01*
X51880630Y-60746262D01*
X51890011Y-60738273D01*
X51901166Y-60729775D01*
X51914290Y-60720635D01*
X51929580Y-60710723D01*
X51947230Y-60699907D01*
X51990399Y-60675039D01*
X52045363Y-60644981D01*
X52113688Y-60608682D01*
X52171414Y-60577769D01*
X52225798Y-60547495D01*
X52277311Y-60517482D01*
X52326426Y-60487353D01*
X52373615Y-60456730D01*
X52419349Y-60425236D01*
X52464101Y-60392495D01*
X52508341Y-60358127D01*
X52552543Y-60321756D01*
X52597177Y-60283005D01*
X52642716Y-60241496D01*
X52689631Y-60196851D01*
X52738394Y-60148694D01*
X52789478Y-60096647D01*
X52900493Y-59979373D01*
X52929505Y-59948500D01*
X52957555Y-59919367D01*
X52984730Y-59891901D01*
X53011118Y-59866032D01*
X53036806Y-59841687D01*
X53061883Y-59818795D01*
X53086436Y-59797283D01*
X53110552Y-59777081D01*
X53134320Y-59758117D01*
X53157826Y-59740318D01*
X53181159Y-59723614D01*
X53204407Y-59707931D01*
X53227657Y-59693200D01*
X53250996Y-59679347D01*
X53274513Y-59666302D01*
X53298295Y-59653992D01*
X53321898Y-59642447D01*
X53344468Y-59631942D01*
X53366138Y-59622448D01*
X53387042Y-59613932D01*
X53407312Y-59606363D01*
X53427082Y-59599709D01*
X53446485Y-59593940D01*
X53465656Y-59589023D01*
X53484726Y-59584927D01*
X53503830Y-59581621D01*
X53523101Y-59579073D01*
X53542672Y-59577253D01*
X53562677Y-59576127D01*
X53583249Y-59575666D01*
X53604522Y-59575837D01*
X53626628Y-59576610D01*
X53653215Y-59578129D01*
X53665171Y-59579048D01*
X53676353Y-59580098D01*
X53686848Y-59581298D01*
X53696743Y-59582667D01*
X53706128Y-59584224D01*
X53715089Y-59585987D01*
X53723715Y-59587974D01*
X53732093Y-59590206D01*
X53740311Y-59592699D01*
X53748457Y-59595474D01*
X53756618Y-59598549D01*
X53764883Y-59601942D01*
X53773340Y-59605673D01*
X53782075Y-59609759D01*
X53803271Y-59620836D01*
X53823391Y-59633175D01*
X53842423Y-59646713D01*
X53860360Y-59661382D01*
X53877191Y-59677118D01*
X53892906Y-59693853D01*
X53907496Y-59711523D01*
X53920952Y-59730060D01*
X53933263Y-59749400D01*
X53944419Y-59769477D01*
X53954412Y-59790224D01*
X53963231Y-59811576D01*
X53970867Y-59833466D01*
X53977310Y-59855830D01*
X53982550Y-59878600D01*
X53986579Y-59901712D01*
X53989385Y-59925098D01*
X53990959Y-59948694D01*
X53991292Y-59972434D01*
X53990374Y-59996251D01*
X53988195Y-60020080D01*
X53984746Y-60043854D01*
X53980017Y-60067509D01*
X53973998Y-60090977D01*
X53966679Y-60114193D01*
X53958051Y-60137092D01*
X53948105Y-60159607D01*
X53936830Y-60181673D01*
X53924216Y-60203222D01*
X53910255Y-60224191D01*
X53894937Y-60244512D01*
X53878251Y-60264121D01*
X53839095Y-60307461D01*
X53875976Y-60300080D01*
X53900073Y-60294334D01*
X53923885Y-60286823D01*
X53947354Y-60277596D01*
X53970422Y-60266704D01*
X53993032Y-60254196D01*
X54015126Y-60240122D01*
X54036649Y-60224530D01*
X54057541Y-60207471D01*
X54077746Y-60188994D01*
X54097207Y-60169148D01*
X54115866Y-60147984D01*
X54133666Y-60125551D01*
X54150550Y-60101897D01*
X54166459Y-60077074D01*
X54181338Y-60051130D01*
X54195128Y-60024116D01*
X54208075Y-59995664D01*
X54219681Y-59967005D01*
X54229946Y-59938146D01*
X54238869Y-59909093D01*
X54246449Y-59879854D01*
X54252686Y-59850437D01*
X54257579Y-59820847D01*
X54261127Y-59791093D01*
X54263329Y-59761181D01*
X54264185Y-59731118D01*
X54263695Y-59700912D01*
X54261857Y-59670570D01*
X54258671Y-59640098D01*
X54254136Y-59609505D01*
X54248251Y-59578796D01*
X54241017Y-59547979D01*
X54227885Y-59503482D01*
X54211671Y-59460215D01*
X54192493Y-59418296D01*
X54170471Y-59377839D01*
X54145723Y-59338960D01*
X54118369Y-59301776D01*
X54088527Y-59266402D01*
X54056317Y-59232954D01*
X54021857Y-59201547D01*
X53985266Y-59172298D01*
X53946664Y-59145322D01*
X53906169Y-59120735D01*
X53863901Y-59098652D01*
X53819979Y-59079190D01*
X53774521Y-59062464D01*
X53727646Y-59048590D01*
X53708146Y-59044158D01*
X53686126Y-59040328D01*
X53661910Y-59037099D01*
X53635819Y-59034471D01*
X53579301Y-59031013D01*
X53519149Y-59029948D01*
X53457940Y-59031272D01*
X53398249Y-59034979D01*
X53369779Y-59037724D01*
X53342654Y-59041063D01*
X53317197Y-59044995D01*
X53293730Y-59049518D01*
X53249515Y-59059946D01*
X53204077Y-59072406D01*
X53157583Y-59086817D01*
X53110201Y-59103098D01*
X53062100Y-59121169D01*
X53013448Y-59140949D01*
X52964413Y-59162356D01*
X52915162Y-59185311D01*
X52865865Y-59209732D01*
X52816688Y-59235538D01*
X52767801Y-59262649D01*
X52719371Y-59290984D01*
X52671566Y-59320462D01*
X52624555Y-59351003D01*
X52578506Y-59382524D01*
X52533586Y-59414947D01*
X52461246Y-59467848D01*
X52390327Y-59518252D01*
X52321025Y-59566047D01*
X52253538Y-59611126D01*
X52188062Y-59653379D01*
X52124795Y-59692697D01*
X52063934Y-59728971D01*
X52005676Y-59762091D01*
X51950218Y-59791949D01*
X51897757Y-59818435D01*
X51848490Y-59841441D01*
X51802615Y-59860856D01*
X51760328Y-59876572D01*
X51721826Y-59888480D01*
X51687308Y-59896471D01*
X51656969Y-59900434D01*
X51646235Y-59901135D01*
X51636689Y-59901675D01*
X51628235Y-59902029D01*
X51620777Y-59902169D01*
X51617392Y-59902152D01*
X51614220Y-59902071D01*
X51611248Y-59901924D01*
X51608466Y-59901707D01*
X51605861Y-59901418D01*
X51603420Y-59901052D01*
X51601133Y-59900606D01*
X51598986Y-59900078D01*
X51596969Y-59899463D01*
X51595068Y-59898759D01*
X51593272Y-59897962D01*
X51591569Y-59897069D01*
X51589948Y-59896077D01*
X51588395Y-59894982D01*
X51586898Y-59893781D01*
X51585447Y-59892471D01*
X51584029Y-59891048D01*
X51582631Y-59889510D01*
X51581243Y-59887852D01*
X51579851Y-59886072D01*
X51577010Y-59882131D01*
X51574013Y-59877661D01*
X51566935Y-59865380D01*
X51562109Y-59853271D01*
X51560595Y-59847220D01*
X51559710Y-59841139D01*
X51559474Y-59835003D01*
X51559910Y-59828788D01*
X51561040Y-59822470D01*
X51562885Y-59816025D01*
X51565467Y-59809427D01*
X51568808Y-59802653D01*
X51577853Y-59788478D01*
X51590194Y-59773304D01*
X51606006Y-59756938D01*
X51625462Y-59739183D01*
X51648737Y-59719845D01*
X51676004Y-59698729D01*
X51707437Y-59675640D01*
X51743212Y-59650382D01*
X51828478Y-59592583D01*
X51875156Y-59561155D01*
X51918453Y-59531176D01*
X51958638Y-59502389D01*
X51995977Y-59474537D01*
X52030737Y-59447361D01*
X52063187Y-59420604D01*
X52093593Y-59394008D01*
X52122223Y-59367315D01*
X52149345Y-59340268D01*
X52175225Y-59312609D01*
X52200131Y-59284081D01*
X52224330Y-59254425D01*
X52248091Y-59223383D01*
X52271679Y-59190699D01*
X52295363Y-59156114D01*
X52319409Y-59119371D01*
X52357257Y-59058133D01*
X52391267Y-58997534D01*
X52422963Y-58933887D01*
X52453873Y-58863504D01*
X52485522Y-58782697D01*
X52519435Y-58687780D01*
X52557139Y-58575064D01*
X52600159Y-58440862D01*
X52615958Y-58392639D01*
X52632376Y-58346004D01*
X52649406Y-58300970D01*
X52667040Y-58257551D01*
X52685271Y-58215761D01*
X52704089Y-58175614D01*
X52723488Y-58137126D01*
X52743458Y-58100308D01*
X52763993Y-58065176D01*
X52785085Y-58031744D01*
X52806724Y-58000026D01*
X52828905Y-57970036D01*
X52851618Y-57941788D01*
X52874855Y-57915296D01*
X52898609Y-57890574D01*
X52922872Y-57867636D01*
X52940416Y-57852386D01*
X52958131Y-57838017D01*
X52975998Y-57824531D01*
X52993995Y-57811929D01*
X53012103Y-57800214D01*
X53030302Y-57789387D01*
X53048571Y-57779449D01*
X53066891Y-57770401D01*
X53085241Y-57762247D01*
X53103602Y-57754986D01*
X53121952Y-57748622D01*
X53140273Y-57743154D01*
X53158544Y-57738586D01*
X53176744Y-57734917D01*
X53194854Y-57732151D01*
X53212854Y-57730289D01*
X53230723Y-57729331D01*
X53248441Y-57729281D01*
X53265989Y-57730138D01*
X53283346Y-57731906D01*
X53300492Y-57734585D01*
X53317407Y-57738177D01*
X53334070Y-57742684D01*
X53350463Y-57748107D01*
X53366564Y-57754448D01*
X53382353Y-57761709D01*
X53397811Y-57769890D01*
X53412917Y-57778994D01*
X53427651Y-57789022D01*
X53441993Y-57799976D01*
X53455923Y-57811857D01*
X53469421Y-57824668D01*
X53484215Y-57840774D01*
X53497705Y-57858148D01*
X53509872Y-57876687D01*
X53520696Y-57896288D01*
X53530156Y-57916849D01*
X53538232Y-57938266D01*
X53544905Y-57960438D01*
X53550153Y-57983261D01*
X53553958Y-58006633D01*
X53556298Y-58030452D01*
X53557154Y-58054614D01*
X53556506Y-58079016D01*
X53554333Y-58103558D01*
X53550615Y-58128134D01*
X53545333Y-58152644D01*
X53538466Y-58176984D01*
X53534174Y-58190765D01*
X53530276Y-58203726D01*
X53526847Y-58215576D01*
X53523966Y-58226023D01*
X53521710Y-58234776D01*
X53520159Y-58241545D01*
X53519671Y-58244094D01*
X53519389Y-58246038D01*
X53519321Y-58247340D01*
X53519371Y-58247739D01*
X53519478Y-58247963D01*
X53519682Y-58248047D01*
X53520020Y-58248027D01*
X53521080Y-58247687D01*
X53522632Y-58246961D01*
X53524646Y-58245869D01*
X53529949Y-58242660D01*
X53536764Y-58238212D01*
X53544864Y-58232676D01*
X53554023Y-58226204D01*
X53564015Y-58218946D01*
X53574613Y-58211055D01*
X53581918Y-58205406D01*
X53588853Y-58199728D01*
X53595458Y-58193970D01*
X53601773Y-58188081D01*
X53607838Y-58182010D01*
X53613692Y-58175704D01*
X53619376Y-58169112D01*
X53624930Y-58162183D01*
X53630393Y-58154866D01*
X53635804Y-58147107D01*
X53641205Y-58138857D01*
X53646635Y-58130063D01*
X53652133Y-58120675D01*
X53657740Y-58110639D01*
X53669438Y-58088422D01*
X53711769Y-58005339D01*
X53710999Y-57877076D01*
X53710564Y-57840906D01*
X53709644Y-57810238D01*
X53708964Y-57796652D01*
X53708115Y-57784063D01*
X53707082Y-57772345D01*
X53705849Y-57761373D01*
X53704400Y-57751020D01*
X53702720Y-57741161D01*
X53700792Y-57731669D01*
X53698600Y-57722419D01*
X53696129Y-57713284D01*
X53693363Y-57704139D01*
X53690286Y-57694857D01*
X53686883Y-57685313D01*
X53674057Y-57653396D01*
X53659427Y-57622433D01*
X53643066Y-57592491D01*
X53625043Y-57563636D01*
X53605430Y-57535936D01*
X53584297Y-57509456D01*
X53561717Y-57484264D01*
X53537759Y-57460426D01*
X53512495Y-57438010D01*
X53485996Y-57417081D01*
X53458333Y-57397707D01*
X53429576Y-57379954D01*
X53399798Y-57363889D01*
X53369068Y-57349578D01*
X53337458Y-57337090D01*
X53305039Y-57326489D01*
X53280734Y-57320289D01*
X53255128Y-57315537D01*
X53228383Y-57312212D01*
X53200664Y-57310291D01*
X53172132Y-57309751D01*
X53142951Y-57310570D01*
X53113285Y-57312726D01*
X53083296Y-57316197D01*
X53053147Y-57320960D01*
X53023002Y-57326993D01*
X52993024Y-57334273D01*
X52963375Y-57342779D01*
X52934220Y-57352487D01*
X52905720Y-57363376D01*
X52878040Y-57375423D01*
X52851342Y-57388606D01*
X52818718Y-57406510D01*
X52787085Y-57425460D01*
X52756293Y-57445610D01*
X52726192Y-57467115D01*
X52696631Y-57490128D01*
X52667460Y-57514802D01*
X52638528Y-57541293D01*
X52609684Y-57569753D01*
X52580779Y-57600337D01*
X52551661Y-57633198D01*
X52522180Y-57668490D01*
X52492186Y-57706368D01*
X52461528Y-57746985D01*
X52430055Y-57790494D01*
X52397618Y-57837051D01*
X52364066Y-57886808D01*
X52288821Y-58002673D01*
X52210280Y-58131595D01*
X52105312Y-58312646D01*
X51950788Y-58584896D01*
X51872293Y-58721697D01*
X51800785Y-58841664D01*
X51767194Y-58895995D01*
X51734800Y-58946908D01*
X51703421Y-58994669D01*
X51672874Y-59039539D01*
X51642976Y-59081784D01*
X51613543Y-59121667D01*
X51584393Y-59159451D01*
X51555343Y-59195400D01*
X51526210Y-59229779D01*
X51496810Y-59262850D01*
X51466961Y-59294878D01*
X51436480Y-59326126D01*
X51406860Y-59355114D01*
X51378036Y-59381848D01*
X51349935Y-59406367D01*
X51322488Y-59428704D01*
X51295624Y-59448898D01*
X51269271Y-59466983D01*
X51243359Y-59482996D01*
X51217817Y-59496974D01*
X51192574Y-59508952D01*
X51167560Y-59518967D01*
X51142704Y-59527054D01*
X51117935Y-59533250D01*
X51093182Y-59537592D01*
X51068375Y-59540115D01*
X51043442Y-59540855D01*
X51018314Y-59539849D01*
X50995751Y-59537866D01*
X50974204Y-59535214D01*
X50953241Y-59531692D01*
X50932429Y-59527097D01*
X50911333Y-59521225D01*
X50889522Y-59513875D01*
X50866562Y-59504843D01*
X50842020Y-59493926D01*
X50815464Y-59480923D01*
X50786459Y-59465629D01*
X50719373Y-59427362D01*
X50637299Y-59377504D01*
X50536772Y-59314432D01*
X50440096Y-59254915D01*
X50394081Y-59227947D01*
X50349373Y-59202731D01*
X50305791Y-59179187D01*
X50263153Y-59157233D01*
X50221278Y-59136788D01*
X50179986Y-59117773D01*
X50139095Y-59100105D01*
X50098423Y-59083705D01*
X50057789Y-59068490D01*
X50017013Y-59054380D01*
X49975912Y-59041295D01*
X49934307Y-59029153D01*
X49892015Y-59017874D01*
X49848855Y-59007377D01*
X49820132Y-59001364D01*
X49788118Y-58995845D01*
X49715932Y-58986359D01*
X49635726Y-58979067D01*
X49550933Y-58974119D01*
X49464985Y-58971663D01*
X49381312Y-58971848D01*
X49303346Y-58974822D01*
X49267575Y-58977402D01*
X49234518Y-58980735D01*
X49157149Y-58991255D01*
X49080758Y-59004482D01*
X49005343Y-59020415D01*
X48930901Y-59039056D01*
X48857430Y-59060406D01*
X48784928Y-59084466D01*
X48713393Y-59111236D01*
X48642822Y-59140718D01*
X48573214Y-59172913D01*
X48504565Y-59207821D01*
X48436875Y-59245444D01*
X48370141Y-59285783D01*
X48304360Y-59328838D01*
X48239530Y-59374611D01*
X48175650Y-59423102D01*
X48112717Y-59474312D01*
X48066116Y-59514379D01*
X48021521Y-59554476D01*
X47978833Y-59594731D01*
X47937952Y-59635270D01*
X47898778Y-59676219D01*
X47861213Y-59717706D01*
X47825158Y-59759858D01*
X47790513Y-59802800D01*
X47757178Y-59846660D01*
X47725056Y-59891565D01*
X47694045Y-59937641D01*
X47664048Y-59985015D01*
X47634964Y-60033814D01*
X47606695Y-60084164D01*
X47579142Y-60136192D01*
X47552205Y-60190025D01*
X47531065Y-60234857D01*
X47510700Y-60280863D01*
X47491143Y-60327931D01*
X47472427Y-60375945D01*
X47437648Y-60474353D01*
X47406623Y-60575174D01*
X47379615Y-60677489D01*
X47356885Y-60780384D01*
X47338695Y-60882943D01*
X47331385Y-60933810D01*
X47325307Y-60984249D01*
X47320605Y-61041835D01*
X47317241Y-61112589D01*
X47315215Y-61191871D01*
X47314529Y-61275041D01*
X47091980Y-61275041D01*
X47091899Y-61267770D01*
X47092813Y-61187668D01*
X47095566Y-61108979D01*
X47100171Y-61031636D01*
X47106643Y-60955572D01*
X47114996Y-60880718D01*
X47125245Y-60807008D01*
X47137404Y-60734372D01*
X47151487Y-60662744D01*
X47167508Y-60592055D01*
X47185483Y-60522238D01*
X47205425Y-60453225D01*
X47227348Y-60384949D01*
X47251267Y-60317341D01*
X47277196Y-60250334D01*
X47305150Y-60183860D01*
X47335143Y-60117851D01*
X47366955Y-60053209D01*
X47401247Y-59988916D01*
X47437888Y-59925133D01*
X47476746Y-59862022D01*
X47517689Y-59799744D01*
X47560588Y-59738461D01*
X47605310Y-59678334D01*
X47651725Y-59619525D01*
X47699700Y-59562196D01*
X47749105Y-59506507D01*
X47799808Y-59452621D01*
X47851678Y-59400699D01*
X47904584Y-59350902D01*
X47958395Y-59303392D01*
X48012979Y-59258331D01*
X48068205Y-59215880D01*
X48149541Y-59157836D01*
X48231641Y-59103579D01*
X48314522Y-59053103D01*
X48398202Y-59006403D01*
X48482697Y-58963472D01*
X48568025Y-58924304D01*
X48654202Y-58888895D01*
X48741246Y-58857238D01*
X48829174Y-58829327D01*
X48918002Y-58805156D01*
X49007749Y-58784720D01*
X49098432Y-58768013D01*
X49190066Y-58755028D01*
X49282670Y-58745761D01*
X49376261Y-58740204D01*
X49470856Y-58738354D01*
X49548911Y-58739459D01*
X49624251Y-58742878D01*
X49697361Y-58748767D01*
X49768730Y-58757282D01*
X49838843Y-58768579D01*
X49908188Y-58782813D01*
X49977251Y-58800140D01*
X50046520Y-58820716D01*
X50116481Y-58844697D01*
X50187622Y-58872239D01*
X50260429Y-58903497D01*
X50335389Y-58938628D01*
X50412990Y-58977787D01*
X50493717Y-59021130D01*
X50578058Y-59068813D01*
X50666501Y-59120992D01*
X50705771Y-59144316D01*
X50742947Y-59165869D01*
X50777177Y-59185192D01*
X50807607Y-59201829D01*
X50833386Y-59215324D01*
X50844265Y-59220750D01*
X50853662Y-59225219D01*
X50861469Y-59228674D01*
X50867581Y-59231058D01*
X50871891Y-59232314D01*
X50873337Y-59232500D01*
X50874293Y-59232384D01*
X50880165Y-59227971D01*
X50888219Y-59218650D01*
X50898203Y-59204891D01*
X50909862Y-59187163D01*
X50937192Y-59141685D01*
X50968181Y-59085975D01*
X51000799Y-59023793D01*
X51033018Y-58958900D01*
X51062809Y-58895057D01*
X51088143Y-58836024D01*
X51104746Y-58793329D01*
X51119950Y-58750725D01*
X51133762Y-58708270D01*
X51146189Y-58666021D01*
X51157239Y-58624036D01*
X51166918Y-58582371D01*
X51175233Y-58541084D01*
X51182192Y-58500232D01*
X51187801Y-58459872D01*
X51192068Y-58420061D01*
X51194999Y-58380857D01*
X51196602Y-58342317D01*
X51196884Y-58304497D01*
X51195851Y-58267456D01*
X51193511Y-58231250D01*
X51189870Y-58195936D01*
X51184937Y-58161572D01*
X51178717Y-58128216D01*
X51171218Y-58095923D01*
X51162447Y-58064751D01*
X51152411Y-58034758D01*
X51141117Y-58006001D01*
X51128572Y-57978536D01*
X51114783Y-57952422D01*
X51099757Y-57927715D01*
X51083501Y-57904473D01*
X51066022Y-57882752D01*
X51047328Y-57862610D01*
X51027424Y-57844104D01*
X51006319Y-57827291D01*
X50984020Y-57812229D01*
X50960532Y-57798975D01*
X50945497Y-57791945D01*
X50929479Y-57785706D01*
X50912621Y-57780265D01*
X50895070Y-57775630D01*
X50876970Y-57771807D01*
X50858466Y-57768804D01*
X50839702Y-57766628D01*
X50820824Y-57765285D01*
X50801975Y-57764783D01*
X50783301Y-57765129D01*
X50764947Y-57766330D01*
X50747057Y-57768393D01*
X50729775Y-57771325D01*
X50713248Y-57775133D01*
X50697619Y-57779825D01*
X50683033Y-57785407D01*
X50671089Y-57790746D01*
X50659946Y-57796189D01*
X50649492Y-57801852D01*
X50639611Y-57807852D01*
X50630191Y-57814307D01*
X50621117Y-57821334D01*
X50612277Y-57829051D01*
X50603555Y-57837573D01*
X50594839Y-57847020D01*
X50586015Y-57857507D01*
X50576968Y-57869152D01*
X50567586Y-57882073D01*
X50557753Y-57896386D01*
X50547358Y-57912208D01*
X50524421Y-57948852D01*
X50513472Y-57966347D01*
X50502780Y-57982579D01*
X50492290Y-57997598D01*
X50481947Y-58011453D01*
X50471694Y-58024195D01*
X50461475Y-58035872D01*
X50451235Y-58046535D01*
X50440918Y-58056232D01*
X50430468Y-58065014D01*
X50419830Y-58072931D01*
X50408948Y-58080032D01*
X50397765Y-58086366D01*
X50386227Y-58091983D01*
X50374277Y-58096933D01*
X50361860Y-58101265D01*
X50348920Y-58105030D01*
X50337046Y-58107750D01*
X50324966Y-58109703D01*
X50312743Y-58110904D01*
X50300443Y-58111368D01*
X50288128Y-58111108D01*
X50275863Y-58110140D01*
X50263711Y-58108477D01*
X50251736Y-58106134D01*
X50240002Y-58103126D01*
X50228573Y-58099466D01*
X50217513Y-58095170D01*
X50206886Y-58090251D01*
X50196755Y-58084724D01*
X50187184Y-58078604D01*
X50178238Y-58071905D01*
X50169980Y-58064641D01*
X50156402Y-58049878D01*
X50143419Y-58032247D01*
X50131103Y-58012031D01*
X50119524Y-57989511D01*
X50108752Y-57964969D01*
X50098859Y-57938687D01*
X50089915Y-57910945D01*
X50081991Y-57882026D01*
X50075158Y-57852211D01*
X50069486Y-57821782D01*
X50065047Y-57791020D01*
X50061910Y-57760207D01*
X50060148Y-57729626D01*
X50059830Y-57699556D01*
X50060532Y-57682381D01*
X50291936Y-57682381D01*
X50292377Y-57706561D01*
X50294101Y-57731286D01*
X50297095Y-57756598D01*
X50299715Y-57774137D01*
X50302475Y-57790815D01*
X50305292Y-57806244D01*
X50308082Y-57820037D01*
X50310764Y-57831806D01*
X50312037Y-57836810D01*
X50313253Y-57841163D01*
X50314399Y-57844817D01*
X50315466Y-57847721D01*
X50316444Y-57849830D01*
X50316896Y-57850570D01*
X50317322Y-57851093D01*
X50317778Y-57851414D01*
X50318319Y-57851555D01*
X50318942Y-57851521D01*
X50319646Y-57851315D01*
X50321280Y-57850401D01*
X50323200Y-57848846D01*
X50325384Y-57846680D01*
X50327809Y-57843933D01*
X50330454Y-57840636D01*
X50333296Y-57836820D01*
X50336313Y-57832515D01*
X50339482Y-57827752D01*
X50346192Y-57816976D01*
X50353249Y-57804735D01*
X50360474Y-57791277D01*
X50376898Y-57762175D01*
X50395205Y-57734504D01*
X50415292Y-57708325D01*
X50437056Y-57683700D01*
X50460394Y-57660691D01*
X50485206Y-57639359D01*
X50511387Y-57619765D01*
X50538835Y-57601973D01*
X50567449Y-57586042D01*
X50597124Y-57572036D01*
X50627759Y-57560015D01*
X50659252Y-57550041D01*
X50691498Y-57542177D01*
X50724397Y-57536483D01*
X50757846Y-57533021D01*
X50791742Y-57531854D01*
X50806445Y-57532206D01*
X50822259Y-57533236D01*
X50839024Y-57534907D01*
X50856579Y-57537180D01*
X50874765Y-57540018D01*
X50893420Y-57543384D01*
X50912386Y-57547238D01*
X50931500Y-57551544D01*
X50969536Y-57561358D01*
X50988137Y-57566790D01*
X51006246Y-57572523D01*
X51023703Y-57578517D01*
X51040348Y-57584736D01*
X51056020Y-57591141D01*
X51070559Y-57597694D01*
X51096327Y-57611197D01*
X51121752Y-57626995D01*
X51146739Y-57644961D01*
X51171190Y-57664966D01*
X51195009Y-57686884D01*
X51218100Y-57710587D01*
X51240366Y-57735947D01*
X51261711Y-57762835D01*
X51282039Y-57791126D01*
X51301253Y-57820690D01*
X51319256Y-57851401D01*
X51335953Y-57883130D01*
X51351246Y-57915749D01*
X51365039Y-57949132D01*
X51377237Y-57983150D01*
X51387741Y-58017676D01*
X51398131Y-58058526D01*
X51406922Y-58100279D01*
X51414116Y-58142883D01*
X51419714Y-58186285D01*
X51423717Y-58230434D01*
X51426129Y-58275278D01*
X51426950Y-58320764D01*
X51426182Y-58366842D01*
X51423828Y-58413458D01*
X51419888Y-58460562D01*
X51414365Y-58508100D01*
X51407260Y-58556022D01*
X51398575Y-58604275D01*
X51388312Y-58652807D01*
X51376472Y-58701566D01*
X51363058Y-58750500D01*
X51348829Y-58795445D01*
X51330580Y-58846690D01*
X51309335Y-58901812D01*
X51286118Y-58958387D01*
X51261952Y-59013988D01*
X51237864Y-59066192D01*
X51214875Y-59112573D01*
X51194012Y-59150708D01*
X51186607Y-59163543D01*
X51179926Y-59175517D01*
X51174100Y-59186368D01*
X51171547Y-59191291D01*
X51169257Y-59195834D01*
X51167246Y-59199966D01*
X51165529Y-59203653D01*
X51164123Y-59206862D01*
X51163044Y-59209562D01*
X51162309Y-59211718D01*
X51161934Y-59213299D01*
X51161886Y-59213864D01*
X51161934Y-59214272D01*
X51162080Y-59214520D01*
X51162327Y-59214603D01*
X51166098Y-59213408D01*
X51172294Y-59209969D01*
X51180649Y-59204505D01*
X51190895Y-59197233D01*
X51215999Y-59178143D01*
X51245476Y-59154447D01*
X51277197Y-59127895D01*
X51309033Y-59100235D01*
X51338853Y-59073216D01*
X51364528Y-59048586D01*
X51387102Y-59025058D01*
X51410895Y-58998369D01*
X51461624Y-58936271D01*
X51515686Y-58863827D01*
X51572053Y-58782566D01*
X51629696Y-58694021D01*
X51687588Y-58599724D01*
X51744699Y-58501206D01*
X51800000Y-58400000D01*
X51858702Y-58289188D01*
X51861295Y-58167167D01*
X51861613Y-58136904D01*
X51861229Y-58107839D01*
X51860106Y-58079814D01*
X51858207Y-58052671D01*
X51855496Y-58026252D01*
X51851936Y-58000399D01*
X51847489Y-57974954D01*
X51842120Y-57949759D01*
X51835791Y-57924656D01*
X51828465Y-57899486D01*
X51820107Y-57874093D01*
X51810679Y-57848317D01*
X51800144Y-57822000D01*
X51788466Y-57794986D01*
X51775608Y-57767114D01*
X51761534Y-57738229D01*
X51722465Y-57666051D01*
X51679651Y-57598372D01*
X51633308Y-57535316D01*
X51583650Y-57477005D01*
X51530893Y-57423563D01*
X51475251Y-57375113D01*
X51416940Y-57331778D01*
X51356175Y-57293681D01*
X51293172Y-57260945D01*
X51228144Y-57233694D01*
X51161308Y-57212050D01*
X51092879Y-57196136D01*
X51023071Y-57186076D01*
X50987717Y-57183280D01*
X50952100Y-57181994D01*
X50916246Y-57182232D01*
X50880181Y-57184011D01*
X50843933Y-57187345D01*
X50807529Y-57192251D01*
X50779808Y-57197287D01*
X50751694Y-57203758D01*
X50723354Y-57211580D01*
X50694951Y-57220667D01*
X50666650Y-57230934D01*
X50638616Y-57242298D01*
X50611014Y-57254672D01*
X50584008Y-57267972D01*
X50557762Y-57282113D01*
X50532442Y-57297011D01*
X50508212Y-57312580D01*
X50485237Y-57328736D01*
X50463681Y-57345394D01*
X50443709Y-57362469D01*
X50425485Y-57379876D01*
X50409174Y-57397530D01*
X50391692Y-57418638D01*
X50375670Y-57439718D01*
X50361096Y-57460816D01*
X50347955Y-57481975D01*
X50336234Y-57503238D01*
X50325919Y-57524650D01*
X50316997Y-57546254D01*
X50309453Y-57568095D01*
X50303274Y-57590216D01*
X50298447Y-57612661D01*
X50294957Y-57635475D01*
X50292792Y-57658700D01*
X50291936Y-57682381D01*
X50060532Y-57682381D01*
X50061027Y-57670281D01*
X50063811Y-57642081D01*
X50068387Y-57610868D01*
X50073828Y-57580906D01*
X50080189Y-57552082D01*
X50087528Y-57524285D01*
X50095901Y-57497405D01*
X50105363Y-57471330D01*
X50115972Y-57445949D01*
X50127783Y-57421151D01*
X50140852Y-57396826D01*
X50155237Y-57372861D01*
X50170992Y-57349146D01*
X50188176Y-57325569D01*
X50206843Y-57302020D01*
X50227050Y-57278387D01*
X50248853Y-57254559D01*
X50272309Y-57230425D01*
X50308517Y-57196032D01*
X50346084Y-57163964D01*
X50384990Y-57134227D01*
X50425212Y-57106832D01*
X50466728Y-57081784D01*
X50509515Y-57059094D01*
X50553552Y-57038769D01*
X50598816Y-57020816D01*
X50645285Y-57005245D01*
X50692937Y-56992063D01*
X50741749Y-56981279D01*
X50791699Y-56972899D01*
X50842766Y-56966934D01*
X50894926Y-56963390D01*
X50948159Y-56962276D01*
X50952100Y-56962372D01*
G37*
D11*
X16273866Y-49380951D02*
X16273866Y-48619047D01*
X46688152Y-18352381D02*
X47497676Y-18352381D01*
X47497676Y-18352381D02*
X47592914Y-18400000D01*
X47592914Y-18400000D02*
X47640533Y-18447619D01*
X47640533Y-18447619D02*
X47688152Y-18542857D01*
X47688152Y-18542857D02*
X47688152Y-18685714D01*
X47688152Y-18685714D02*
X47640533Y-18780952D01*
X47307200Y-18352381D02*
X47354819Y-18447619D01*
X47354819Y-18447619D02*
X47354819Y-18638095D01*
X47354819Y-18638095D02*
X47307200Y-18733333D01*
X47307200Y-18733333D02*
X47259580Y-18780952D01*
X47259580Y-18780952D02*
X47164342Y-18828571D01*
X47164342Y-18828571D02*
X46878628Y-18828571D01*
X46878628Y-18828571D02*
X46783390Y-18780952D01*
X46783390Y-18780952D02*
X46735771Y-18733333D01*
X46735771Y-18733333D02*
X46688152Y-18638095D01*
X46688152Y-18638095D02*
X46688152Y-18447619D01*
X46688152Y-18447619D02*
X46735771Y-18352381D01*
X47354819Y-17447619D02*
X46831009Y-17447619D01*
X46831009Y-17447619D02*
X46735771Y-17495238D01*
X46735771Y-17495238D02*
X46688152Y-17590476D01*
X46688152Y-17590476D02*
X46688152Y-17780952D01*
X46688152Y-17780952D02*
X46735771Y-17876190D01*
X47307200Y-17447619D02*
X47354819Y-17542857D01*
X47354819Y-17542857D02*
X47354819Y-17780952D01*
X47354819Y-17780952D02*
X47307200Y-17876190D01*
X47307200Y-17876190D02*
X47211961Y-17923809D01*
X47211961Y-17923809D02*
X47116723Y-17923809D01*
X47116723Y-17923809D02*
X47021485Y-17876190D01*
X47021485Y-17876190D02*
X46973866Y-17780952D01*
X46973866Y-17780952D02*
X46973866Y-17542857D01*
X46973866Y-17542857D02*
X46926247Y-17447619D01*
X46688152Y-17114285D02*
X46688152Y-16733333D01*
X46354819Y-16971428D02*
X47211961Y-16971428D01*
X47211961Y-16971428D02*
X47307200Y-16923809D01*
X47307200Y-16923809D02*
X47354819Y-16828571D01*
X47354819Y-16828571D02*
X47354819Y-16733333D01*
X47307200Y-16019047D02*
X47354819Y-16114285D01*
X47354819Y-16114285D02*
X47354819Y-16304761D01*
X47354819Y-16304761D02*
X47307200Y-16399999D01*
X47307200Y-16399999D02*
X47211961Y-16447618D01*
X47211961Y-16447618D02*
X46831009Y-16447618D01*
X46831009Y-16447618D02*
X46735771Y-16399999D01*
X46735771Y-16399999D02*
X46688152Y-16304761D01*
X46688152Y-16304761D02*
X46688152Y-16114285D01*
X46688152Y-16114285D02*
X46735771Y-16019047D01*
X46735771Y-16019047D02*
X46831009Y-15971428D01*
X46831009Y-15971428D02*
X46926247Y-15971428D01*
X46926247Y-15971428D02*
X47021485Y-16447618D01*
X20907200Y-45004762D02*
X20954819Y-45100000D01*
X20954819Y-45100000D02*
X20954819Y-45290476D01*
X20954819Y-45290476D02*
X20907200Y-45385714D01*
X20907200Y-45385714D02*
X20811961Y-45433333D01*
X20811961Y-45433333D02*
X20431009Y-45433333D01*
X20431009Y-45433333D02*
X20335771Y-45385714D01*
X20335771Y-45385714D02*
X20288152Y-45290476D01*
X20288152Y-45290476D02*
X20288152Y-45100000D01*
X20288152Y-45100000D02*
X20335771Y-45004762D01*
X20335771Y-45004762D02*
X20431009Y-44957143D01*
X20431009Y-44957143D02*
X20526247Y-44957143D01*
X20526247Y-44957143D02*
X20621485Y-45433333D01*
X20288152Y-44528571D02*
X21288152Y-44528571D01*
X20335771Y-44528571D02*
X20288152Y-44433333D01*
X20288152Y-44433333D02*
X20288152Y-44242857D01*
X20288152Y-44242857D02*
X20335771Y-44147619D01*
X20335771Y-44147619D02*
X20383390Y-44100000D01*
X20383390Y-44100000D02*
X20478628Y-44052381D01*
X20478628Y-44052381D02*
X20764342Y-44052381D01*
X20764342Y-44052381D02*
X20859580Y-44100000D01*
X20859580Y-44100000D02*
X20907200Y-44147619D01*
X20907200Y-44147619D02*
X20954819Y-44242857D01*
X20954819Y-44242857D02*
X20954819Y-44433333D01*
X20954819Y-44433333D02*
X20907200Y-44528571D01*
X20954819Y-43195238D02*
X20431009Y-43195238D01*
X20431009Y-43195238D02*
X20335771Y-43242857D01*
X20335771Y-43242857D02*
X20288152Y-43338095D01*
X20288152Y-43338095D02*
X20288152Y-43528571D01*
X20288152Y-43528571D02*
X20335771Y-43623809D01*
X20907200Y-43195238D02*
X20954819Y-43290476D01*
X20954819Y-43290476D02*
X20954819Y-43528571D01*
X20954819Y-43528571D02*
X20907200Y-43623809D01*
X20907200Y-43623809D02*
X20811961Y-43671428D01*
X20811961Y-43671428D02*
X20716723Y-43671428D01*
X20716723Y-43671428D02*
X20621485Y-43623809D01*
X20621485Y-43623809D02*
X20573866Y-43528571D01*
X20573866Y-43528571D02*
X20573866Y-43290476D01*
X20573866Y-43290476D02*
X20526247Y-43195238D01*
X20288152Y-42719047D02*
X21288152Y-42719047D01*
X20335771Y-42719047D02*
X20288152Y-42623809D01*
X20288152Y-42623809D02*
X20288152Y-42433333D01*
X20288152Y-42433333D02*
X20335771Y-42338095D01*
X20335771Y-42338095D02*
X20383390Y-42290476D01*
X20383390Y-42290476D02*
X20478628Y-42242857D01*
X20478628Y-42242857D02*
X20764342Y-42242857D01*
X20764342Y-42242857D02*
X20859580Y-42290476D01*
X20859580Y-42290476D02*
X20907200Y-42338095D01*
X20907200Y-42338095D02*
X20954819Y-42433333D01*
X20954819Y-42433333D02*
X20954819Y-42623809D01*
X20954819Y-42623809D02*
X20907200Y-42719047D01*
X20907200Y-41433333D02*
X20954819Y-41528571D01*
X20954819Y-41528571D02*
X20954819Y-41719047D01*
X20954819Y-41719047D02*
X20907200Y-41814285D01*
X20907200Y-41814285D02*
X20811961Y-41861904D01*
X20811961Y-41861904D02*
X20431009Y-41861904D01*
X20431009Y-41861904D02*
X20335771Y-41814285D01*
X20335771Y-41814285D02*
X20288152Y-41719047D01*
X20288152Y-41719047D02*
X20288152Y-41528571D01*
X20288152Y-41528571D02*
X20335771Y-41433333D01*
X20335771Y-41433333D02*
X20431009Y-41385714D01*
X20431009Y-41385714D02*
X20526247Y-41385714D01*
X20526247Y-41385714D02*
X20621485Y-41861904D01*
X20954819Y-40957142D02*
X20288152Y-40957142D01*
X20478628Y-40957142D02*
X20383390Y-40909523D01*
X20383390Y-40909523D02*
X20335771Y-40861904D01*
X20335771Y-40861904D02*
X20288152Y-40766666D01*
X20288152Y-40766666D02*
X20288152Y-40671428D01*
D12*
X59342533Y-30161904D02*
X59342533Y-28638095D01*
D11*
X52507200Y-19042857D02*
X52554819Y-19138095D01*
X52554819Y-19138095D02*
X52554819Y-19328571D01*
X52554819Y-19328571D02*
X52507200Y-19423809D01*
X52507200Y-19423809D02*
X52459580Y-19471428D01*
X52459580Y-19471428D02*
X52364342Y-19519047D01*
X52364342Y-19519047D02*
X52078628Y-19519047D01*
X52078628Y-19519047D02*
X51983390Y-19471428D01*
X51983390Y-19471428D02*
X51935771Y-19423809D01*
X51935771Y-19423809D02*
X51888152Y-19328571D01*
X51888152Y-19328571D02*
X51888152Y-19138095D01*
X51888152Y-19138095D02*
X51935771Y-19042857D01*
X52554819Y-18471428D02*
X52507200Y-18566666D01*
X52507200Y-18566666D02*
X52459580Y-18614285D01*
X52459580Y-18614285D02*
X52364342Y-18661904D01*
X52364342Y-18661904D02*
X52078628Y-18661904D01*
X52078628Y-18661904D02*
X51983390Y-18614285D01*
X51983390Y-18614285D02*
X51935771Y-18566666D01*
X51935771Y-18566666D02*
X51888152Y-18471428D01*
X51888152Y-18471428D02*
X51888152Y-18328571D01*
X51888152Y-18328571D02*
X51935771Y-18233333D01*
X51935771Y-18233333D02*
X51983390Y-18185714D01*
X51983390Y-18185714D02*
X52078628Y-18138095D01*
X52078628Y-18138095D02*
X52364342Y-18138095D01*
X52364342Y-18138095D02*
X52459580Y-18185714D01*
X52459580Y-18185714D02*
X52507200Y-18233333D01*
X52507200Y-18233333D02*
X52554819Y-18328571D01*
X52554819Y-18328571D02*
X52554819Y-18471428D01*
X51888152Y-17709523D02*
X52554819Y-17709523D01*
X51983390Y-17709523D02*
X51935771Y-17661904D01*
X51935771Y-17661904D02*
X51888152Y-17566666D01*
X51888152Y-17566666D02*
X51888152Y-17423809D01*
X51888152Y-17423809D02*
X51935771Y-17328571D01*
X51935771Y-17328571D02*
X52031009Y-17280952D01*
X52031009Y-17280952D02*
X52554819Y-17280952D01*
X51888152Y-16947618D02*
X51888152Y-16566666D01*
X52554819Y-16804761D02*
X51697676Y-16804761D01*
X51697676Y-16804761D02*
X51602438Y-16757142D01*
X51602438Y-16757142D02*
X51554819Y-16661904D01*
X51554819Y-16661904D02*
X51554819Y-16566666D01*
X52554819Y-16233332D02*
X51888152Y-16233332D01*
X51554819Y-16233332D02*
X51602438Y-16280951D01*
X51602438Y-16280951D02*
X51650057Y-16233332D01*
X51650057Y-16233332D02*
X51602438Y-16185713D01*
X51602438Y-16185713D02*
X51554819Y-16233332D01*
X51554819Y-16233332D02*
X51650057Y-16233332D01*
X51888152Y-15328571D02*
X52697676Y-15328571D01*
X52697676Y-15328571D02*
X52792914Y-15376190D01*
X52792914Y-15376190D02*
X52840533Y-15423809D01*
X52840533Y-15423809D02*
X52888152Y-15519047D01*
X52888152Y-15519047D02*
X52888152Y-15661904D01*
X52888152Y-15661904D02*
X52840533Y-15757142D01*
X52507200Y-15328571D02*
X52554819Y-15423809D01*
X52554819Y-15423809D02*
X52554819Y-15614285D01*
X52554819Y-15614285D02*
X52507200Y-15709523D01*
X52507200Y-15709523D02*
X52459580Y-15757142D01*
X52459580Y-15757142D02*
X52364342Y-15804761D01*
X52364342Y-15804761D02*
X52078628Y-15804761D01*
X52078628Y-15804761D02*
X51983390Y-15757142D01*
X51983390Y-15757142D02*
X51935771Y-15709523D01*
X51935771Y-15709523D02*
X51888152Y-15614285D01*
X51888152Y-15614285D02*
X51888152Y-15423809D01*
X51888152Y-15423809D02*
X51935771Y-15328571D01*
X49388152Y-19471428D02*
X50388152Y-19471428D01*
X49435771Y-19471428D02*
X49388152Y-19376190D01*
X49388152Y-19376190D02*
X49388152Y-19185714D01*
X49388152Y-19185714D02*
X49435771Y-19090476D01*
X49435771Y-19090476D02*
X49483390Y-19042857D01*
X49483390Y-19042857D02*
X49578628Y-18995238D01*
X49578628Y-18995238D02*
X49864342Y-18995238D01*
X49864342Y-18995238D02*
X49959580Y-19042857D01*
X49959580Y-19042857D02*
X50007200Y-19090476D01*
X50007200Y-19090476D02*
X50054819Y-19185714D01*
X50054819Y-19185714D02*
X50054819Y-19376190D01*
X50054819Y-19376190D02*
X50007200Y-19471428D01*
X50054819Y-18566666D02*
X49054819Y-18566666D01*
X49435771Y-18566666D02*
X49388152Y-18471428D01*
X49388152Y-18471428D02*
X49388152Y-18280952D01*
X49388152Y-18280952D02*
X49435771Y-18185714D01*
X49435771Y-18185714D02*
X49483390Y-18138095D01*
X49483390Y-18138095D02*
X49578628Y-18090476D01*
X49578628Y-18090476D02*
X49864342Y-18090476D01*
X49864342Y-18090476D02*
X49959580Y-18138095D01*
X49959580Y-18138095D02*
X50007200Y-18185714D01*
X50007200Y-18185714D02*
X50054819Y-18280952D01*
X50054819Y-18280952D02*
X50054819Y-18471428D01*
X50054819Y-18471428D02*
X50007200Y-18566666D01*
X49054819Y-16709523D02*
X49054819Y-16519047D01*
X49054819Y-16519047D02*
X49102438Y-16423809D01*
X49102438Y-16423809D02*
X49197676Y-16328571D01*
X49197676Y-16328571D02*
X49388152Y-16280952D01*
X49388152Y-16280952D02*
X49721485Y-16280952D01*
X49721485Y-16280952D02*
X49911961Y-16328571D01*
X49911961Y-16328571D02*
X50007200Y-16423809D01*
X50007200Y-16423809D02*
X50054819Y-16519047D01*
X50054819Y-16519047D02*
X50054819Y-16709523D01*
X50054819Y-16709523D02*
X50007200Y-16804761D01*
X50007200Y-16804761D02*
X49911961Y-16899999D01*
X49911961Y-16899999D02*
X49721485Y-16947618D01*
X49721485Y-16947618D02*
X49388152Y-16947618D01*
X49388152Y-16947618D02*
X49197676Y-16899999D01*
X49197676Y-16899999D02*
X49102438Y-16804761D01*
X49102438Y-16804761D02*
X49054819Y-16709523D01*
X50054819Y-15280952D02*
X49578628Y-15614285D01*
X50054819Y-15852380D02*
X49054819Y-15852380D01*
X49054819Y-15852380D02*
X49054819Y-15471428D01*
X49054819Y-15471428D02*
X49102438Y-15376190D01*
X49102438Y-15376190D02*
X49150057Y-15328571D01*
X49150057Y-15328571D02*
X49245295Y-15280952D01*
X49245295Y-15280952D02*
X49388152Y-15280952D01*
X49388152Y-15280952D02*
X49483390Y-15328571D01*
X49483390Y-15328571D02*
X49531009Y-15376190D01*
X49531009Y-15376190D02*
X49578628Y-15471428D01*
X49578628Y-15471428D02*
X49578628Y-15852380D01*
X16273866Y-61880951D02*
X16273866Y-61119047D01*
X16273866Y-55580951D02*
X16273866Y-54819047D01*
X54154819Y-19023809D02*
X55154819Y-18690476D01*
X55154819Y-18690476D02*
X54154819Y-18357143D01*
X55154819Y-18023809D02*
X54154819Y-18023809D01*
X54535771Y-18023809D02*
X54488152Y-17928571D01*
X54488152Y-17928571D02*
X54488152Y-17738095D01*
X54488152Y-17738095D02*
X54535771Y-17642857D01*
X54535771Y-17642857D02*
X54583390Y-17595238D01*
X54583390Y-17595238D02*
X54678628Y-17547619D01*
X54678628Y-17547619D02*
X54964342Y-17547619D01*
X54964342Y-17547619D02*
X55059580Y-17595238D01*
X55059580Y-17595238D02*
X55107200Y-17642857D01*
X55107200Y-17642857D02*
X55154819Y-17738095D01*
X55154819Y-17738095D02*
X55154819Y-17928571D01*
X55154819Y-17928571D02*
X55107200Y-18023809D01*
X55154819Y-16690476D02*
X54631009Y-16690476D01*
X54631009Y-16690476D02*
X54535771Y-16738095D01*
X54535771Y-16738095D02*
X54488152Y-16833333D01*
X54488152Y-16833333D02*
X54488152Y-17023809D01*
X54488152Y-17023809D02*
X54535771Y-17119047D01*
X55107200Y-16690476D02*
X55154819Y-16785714D01*
X55154819Y-16785714D02*
X55154819Y-17023809D01*
X55154819Y-17023809D02*
X55107200Y-17119047D01*
X55107200Y-17119047D02*
X55011961Y-17166666D01*
X55011961Y-17166666D02*
X54916723Y-17166666D01*
X54916723Y-17166666D02*
X54821485Y-17119047D01*
X54821485Y-17119047D02*
X54773866Y-17023809D01*
X54773866Y-17023809D02*
X54773866Y-16785714D01*
X54773866Y-16785714D02*
X54726247Y-16690476D01*
X54488152Y-16357142D02*
X54488152Y-15976190D01*
X54154819Y-16214285D02*
X55011961Y-16214285D01*
X55011961Y-16214285D02*
X55107200Y-16166666D01*
X55107200Y-16166666D02*
X55154819Y-16071428D01*
X55154819Y-16071428D02*
X55154819Y-15976190D01*
X60400057Y-51245238D02*
X60352438Y-51197619D01*
X60352438Y-51197619D02*
X60304819Y-51102381D01*
X60304819Y-51102381D02*
X60304819Y-50864286D01*
X60304819Y-50864286D02*
X60352438Y-50769048D01*
X60352438Y-50769048D02*
X60400057Y-50721429D01*
X60400057Y-50721429D02*
X60495295Y-50673810D01*
X60495295Y-50673810D02*
X60590533Y-50673810D01*
X60590533Y-50673810D02*
X60733390Y-50721429D01*
X60733390Y-50721429D02*
X61304819Y-51292857D01*
X61304819Y-51292857D02*
X61304819Y-50673810D01*
X60304819Y-50340476D02*
X60304819Y-49721429D01*
X60304819Y-49721429D02*
X60685771Y-50054762D01*
X60685771Y-50054762D02*
X60685771Y-49911905D01*
X60685771Y-49911905D02*
X60733390Y-49816667D01*
X60733390Y-49816667D02*
X60781009Y-49769048D01*
X60781009Y-49769048D02*
X60876247Y-49721429D01*
X60876247Y-49721429D02*
X61114342Y-49721429D01*
X61114342Y-49721429D02*
X61209580Y-49769048D01*
X61209580Y-49769048D02*
X61257200Y-49816667D01*
X61257200Y-49816667D02*
X61304819Y-49911905D01*
X61304819Y-49911905D02*
X61304819Y-50197619D01*
X61304819Y-50197619D02*
X61257200Y-50292857D01*
X61257200Y-50292857D02*
X61209580Y-50340476D01*
X61209580Y-49292857D02*
X61257200Y-49245238D01*
X61257200Y-49245238D02*
X61304819Y-49292857D01*
X61304819Y-49292857D02*
X61257200Y-49340476D01*
X61257200Y-49340476D02*
X61209580Y-49292857D01*
X61209580Y-49292857D02*
X61304819Y-49292857D01*
X61257200Y-48102381D02*
X61304819Y-47959524D01*
X61304819Y-47959524D02*
X61304819Y-47721429D01*
X61304819Y-47721429D02*
X61257200Y-47626191D01*
X61257200Y-47626191D02*
X61209580Y-47578572D01*
X61209580Y-47578572D02*
X61114342Y-47530953D01*
X61114342Y-47530953D02*
X61019104Y-47530953D01*
X61019104Y-47530953D02*
X60923866Y-47578572D01*
X60923866Y-47578572D02*
X60876247Y-47626191D01*
X60876247Y-47626191D02*
X60828628Y-47721429D01*
X60828628Y-47721429D02*
X60781009Y-47911905D01*
X60781009Y-47911905D02*
X60733390Y-48007143D01*
X60733390Y-48007143D02*
X60685771Y-48054762D01*
X60685771Y-48054762D02*
X60590533Y-48102381D01*
X60590533Y-48102381D02*
X60495295Y-48102381D01*
X60495295Y-48102381D02*
X60400057Y-48054762D01*
X60400057Y-48054762D02*
X60352438Y-48007143D01*
X60352438Y-48007143D02*
X60304819Y-47911905D01*
X60304819Y-47911905D02*
X60304819Y-47673810D01*
X60304819Y-47673810D02*
X60352438Y-47530953D01*
X61257200Y-46721429D02*
X61304819Y-46816667D01*
X61304819Y-46816667D02*
X61304819Y-47007143D01*
X61304819Y-47007143D02*
X61257200Y-47102381D01*
X61257200Y-47102381D02*
X61161961Y-47150000D01*
X61161961Y-47150000D02*
X60781009Y-47150000D01*
X60781009Y-47150000D02*
X60685771Y-47102381D01*
X60685771Y-47102381D02*
X60638152Y-47007143D01*
X60638152Y-47007143D02*
X60638152Y-46816667D01*
X60638152Y-46816667D02*
X60685771Y-46721429D01*
X60685771Y-46721429D02*
X60781009Y-46673810D01*
X60781009Y-46673810D02*
X60876247Y-46673810D01*
X60876247Y-46673810D02*
X60971485Y-47150000D01*
X60638152Y-46245238D02*
X61638152Y-46245238D01*
X60685771Y-46245238D02*
X60638152Y-46150000D01*
X60638152Y-46150000D02*
X60638152Y-45959524D01*
X60638152Y-45959524D02*
X60685771Y-45864286D01*
X60685771Y-45864286D02*
X60733390Y-45816667D01*
X60733390Y-45816667D02*
X60828628Y-45769048D01*
X60828628Y-45769048D02*
X61114342Y-45769048D01*
X61114342Y-45769048D02*
X61209580Y-45816667D01*
X61209580Y-45816667D02*
X61257200Y-45864286D01*
X61257200Y-45864286D02*
X61304819Y-45959524D01*
X61304819Y-45959524D02*
X61304819Y-46150000D01*
X61304819Y-46150000D02*
X61257200Y-46245238D01*
X60638152Y-45483333D02*
X60638152Y-45102381D01*
X60304819Y-45340476D02*
X61161961Y-45340476D01*
X61161961Y-45340476D02*
X61257200Y-45292857D01*
X61257200Y-45292857D02*
X61304819Y-45197619D01*
X61304819Y-45197619D02*
X61304819Y-45102381D01*
X61257200Y-44388095D02*
X61304819Y-44483333D01*
X61304819Y-44483333D02*
X61304819Y-44673809D01*
X61304819Y-44673809D02*
X61257200Y-44769047D01*
X61257200Y-44769047D02*
X61161961Y-44816666D01*
X61161961Y-44816666D02*
X60781009Y-44816666D01*
X60781009Y-44816666D02*
X60685771Y-44769047D01*
X60685771Y-44769047D02*
X60638152Y-44673809D01*
X60638152Y-44673809D02*
X60638152Y-44483333D01*
X60638152Y-44483333D02*
X60685771Y-44388095D01*
X60685771Y-44388095D02*
X60781009Y-44340476D01*
X60781009Y-44340476D02*
X60876247Y-44340476D01*
X60876247Y-44340476D02*
X60971485Y-44816666D01*
X61304819Y-43911904D02*
X60638152Y-43911904D01*
X60733390Y-43911904D02*
X60685771Y-43864285D01*
X60685771Y-43864285D02*
X60638152Y-43769047D01*
X60638152Y-43769047D02*
X60638152Y-43626190D01*
X60638152Y-43626190D02*
X60685771Y-43530952D01*
X60685771Y-43530952D02*
X60781009Y-43483333D01*
X60781009Y-43483333D02*
X61304819Y-43483333D01*
X60781009Y-43483333D02*
X60685771Y-43435714D01*
X60685771Y-43435714D02*
X60638152Y-43340476D01*
X60638152Y-43340476D02*
X60638152Y-43197619D01*
X60638152Y-43197619D02*
X60685771Y-43102380D01*
X60685771Y-43102380D02*
X60781009Y-43054761D01*
X60781009Y-43054761D02*
X61304819Y-43054761D01*
X61304819Y-42578571D02*
X60304819Y-42578571D01*
X60685771Y-42578571D02*
X60638152Y-42483333D01*
X60638152Y-42483333D02*
X60638152Y-42292857D01*
X60638152Y-42292857D02*
X60685771Y-42197619D01*
X60685771Y-42197619D02*
X60733390Y-42150000D01*
X60733390Y-42150000D02*
X60828628Y-42102381D01*
X60828628Y-42102381D02*
X61114342Y-42102381D01*
X61114342Y-42102381D02*
X61209580Y-42150000D01*
X61209580Y-42150000D02*
X61257200Y-42197619D01*
X61257200Y-42197619D02*
X61304819Y-42292857D01*
X61304819Y-42292857D02*
X61304819Y-42483333D01*
X61304819Y-42483333D02*
X61257200Y-42578571D01*
X61257200Y-41292857D02*
X61304819Y-41388095D01*
X61304819Y-41388095D02*
X61304819Y-41578571D01*
X61304819Y-41578571D02*
X61257200Y-41673809D01*
X61257200Y-41673809D02*
X61161961Y-41721428D01*
X61161961Y-41721428D02*
X60781009Y-41721428D01*
X60781009Y-41721428D02*
X60685771Y-41673809D01*
X60685771Y-41673809D02*
X60638152Y-41578571D01*
X60638152Y-41578571D02*
X60638152Y-41388095D01*
X60638152Y-41388095D02*
X60685771Y-41292857D01*
X60685771Y-41292857D02*
X60781009Y-41245238D01*
X60781009Y-41245238D02*
X60876247Y-41245238D01*
X60876247Y-41245238D02*
X60971485Y-41721428D01*
X61304819Y-40816666D02*
X60638152Y-40816666D01*
X60828628Y-40816666D02*
X60733390Y-40769047D01*
X60733390Y-40769047D02*
X60685771Y-40721428D01*
X60685771Y-40721428D02*
X60638152Y-40626190D01*
X60638152Y-40626190D02*
X60638152Y-40530952D01*
X60400057Y-39483332D02*
X60352438Y-39435713D01*
X60352438Y-39435713D02*
X60304819Y-39340475D01*
X60304819Y-39340475D02*
X60304819Y-39102380D01*
X60304819Y-39102380D02*
X60352438Y-39007142D01*
X60352438Y-39007142D02*
X60400057Y-38959523D01*
X60400057Y-38959523D02*
X60495295Y-38911904D01*
X60495295Y-38911904D02*
X60590533Y-38911904D01*
X60590533Y-38911904D02*
X60733390Y-38959523D01*
X60733390Y-38959523D02*
X61304819Y-39530951D01*
X61304819Y-39530951D02*
X61304819Y-38911904D01*
X60304819Y-38292856D02*
X60304819Y-38197618D01*
X60304819Y-38197618D02*
X60352438Y-38102380D01*
X60352438Y-38102380D02*
X60400057Y-38054761D01*
X60400057Y-38054761D02*
X60495295Y-38007142D01*
X60495295Y-38007142D02*
X60685771Y-37959523D01*
X60685771Y-37959523D02*
X60923866Y-37959523D01*
X60923866Y-37959523D02*
X61114342Y-38007142D01*
X61114342Y-38007142D02*
X61209580Y-38054761D01*
X61209580Y-38054761D02*
X61257200Y-38102380D01*
X61257200Y-38102380D02*
X61304819Y-38197618D01*
X61304819Y-38197618D02*
X61304819Y-38292856D01*
X61304819Y-38292856D02*
X61257200Y-38388094D01*
X61257200Y-38388094D02*
X61209580Y-38435713D01*
X61209580Y-38435713D02*
X61114342Y-38483332D01*
X61114342Y-38483332D02*
X60923866Y-38530951D01*
X60923866Y-38530951D02*
X60685771Y-38530951D01*
X60685771Y-38530951D02*
X60495295Y-38483332D01*
X60495295Y-38483332D02*
X60400057Y-38435713D01*
X60400057Y-38435713D02*
X60352438Y-38388094D01*
X60352438Y-38388094D02*
X60304819Y-38292856D01*
X60400057Y-37578570D02*
X60352438Y-37530951D01*
X60352438Y-37530951D02*
X60304819Y-37435713D01*
X60304819Y-37435713D02*
X60304819Y-37197618D01*
X60304819Y-37197618D02*
X60352438Y-37102380D01*
X60352438Y-37102380D02*
X60400057Y-37054761D01*
X60400057Y-37054761D02*
X60495295Y-37007142D01*
X60495295Y-37007142D02*
X60590533Y-37007142D01*
X60590533Y-37007142D02*
X60733390Y-37054761D01*
X60733390Y-37054761D02*
X61304819Y-37626189D01*
X61304819Y-37626189D02*
X61304819Y-37007142D01*
X60304819Y-36102380D02*
X60304819Y-36578570D01*
X60304819Y-36578570D02*
X60781009Y-36626189D01*
X60781009Y-36626189D02*
X60733390Y-36578570D01*
X60733390Y-36578570D02*
X60685771Y-36483332D01*
X60685771Y-36483332D02*
X60685771Y-36245237D01*
X60685771Y-36245237D02*
X60733390Y-36149999D01*
X60733390Y-36149999D02*
X60781009Y-36102380D01*
X60781009Y-36102380D02*
X60876247Y-36054761D01*
X60876247Y-36054761D02*
X61114342Y-36054761D01*
X61114342Y-36054761D02*
X61209580Y-36102380D01*
X61209580Y-36102380D02*
X61257200Y-36149999D01*
X61257200Y-36149999D02*
X61304819Y-36245237D01*
X61304819Y-36245237D02*
X61304819Y-36483332D01*
X61304819Y-36483332D02*
X61257200Y-36578570D01*
X61257200Y-36578570D02*
X61209580Y-36626189D01*
X58354819Y-56619048D02*
X57354819Y-56619048D01*
X57735771Y-56619048D02*
X57688152Y-56523810D01*
X57688152Y-56523810D02*
X57688152Y-56333334D01*
X57688152Y-56333334D02*
X57735771Y-56238096D01*
X57735771Y-56238096D02*
X57783390Y-56190477D01*
X57783390Y-56190477D02*
X57878628Y-56142858D01*
X57878628Y-56142858D02*
X58164342Y-56142858D01*
X58164342Y-56142858D02*
X58259580Y-56190477D01*
X58259580Y-56190477D02*
X58307200Y-56238096D01*
X58307200Y-56238096D02*
X58354819Y-56333334D01*
X58354819Y-56333334D02*
X58354819Y-56523810D01*
X58354819Y-56523810D02*
X58307200Y-56619048D01*
X58354819Y-55285715D02*
X57831009Y-55285715D01*
X57831009Y-55285715D02*
X57735771Y-55333334D01*
X57735771Y-55333334D02*
X57688152Y-55428572D01*
X57688152Y-55428572D02*
X57688152Y-55619048D01*
X57688152Y-55619048D02*
X57735771Y-55714286D01*
X58307200Y-55285715D02*
X58354819Y-55380953D01*
X58354819Y-55380953D02*
X58354819Y-55619048D01*
X58354819Y-55619048D02*
X58307200Y-55714286D01*
X58307200Y-55714286D02*
X58211961Y-55761905D01*
X58211961Y-55761905D02*
X58116723Y-55761905D01*
X58116723Y-55761905D02*
X58021485Y-55714286D01*
X58021485Y-55714286D02*
X57973866Y-55619048D01*
X57973866Y-55619048D02*
X57973866Y-55380953D01*
X57973866Y-55380953D02*
X57926247Y-55285715D01*
X57688152Y-54952381D02*
X57688152Y-54571429D01*
X57354819Y-54809524D02*
X58211961Y-54809524D01*
X58211961Y-54809524D02*
X58307200Y-54761905D01*
X58307200Y-54761905D02*
X58354819Y-54666667D01*
X58354819Y-54666667D02*
X58354819Y-54571429D01*
X57688152Y-54380952D02*
X57688152Y-54000000D01*
X57354819Y-54238095D02*
X58211961Y-54238095D01*
X58211961Y-54238095D02*
X58307200Y-54190476D01*
X58307200Y-54190476D02*
X58354819Y-54095238D01*
X58354819Y-54095238D02*
X58354819Y-54000000D01*
X58307200Y-53285714D02*
X58354819Y-53380952D01*
X58354819Y-53380952D02*
X58354819Y-53571428D01*
X58354819Y-53571428D02*
X58307200Y-53666666D01*
X58307200Y-53666666D02*
X58211961Y-53714285D01*
X58211961Y-53714285D02*
X57831009Y-53714285D01*
X57831009Y-53714285D02*
X57735771Y-53666666D01*
X57735771Y-53666666D02*
X57688152Y-53571428D01*
X57688152Y-53571428D02*
X57688152Y-53380952D01*
X57688152Y-53380952D02*
X57735771Y-53285714D01*
X57735771Y-53285714D02*
X57831009Y-53238095D01*
X57831009Y-53238095D02*
X57926247Y-53238095D01*
X57926247Y-53238095D02*
X58021485Y-53714285D01*
X58354819Y-52809523D02*
X57688152Y-52809523D01*
X57878628Y-52809523D02*
X57783390Y-52761904D01*
X57783390Y-52761904D02*
X57735771Y-52714285D01*
X57735771Y-52714285D02*
X57688152Y-52619047D01*
X57688152Y-52619047D02*
X57688152Y-52523809D01*
X57688152Y-52285713D02*
X58354819Y-52047618D01*
X57688152Y-51809523D02*
X58354819Y-52047618D01*
X58354819Y-52047618D02*
X58592914Y-52142856D01*
X58592914Y-52142856D02*
X58640533Y-52190475D01*
X58640533Y-52190475D02*
X58688152Y-52285713D01*
X58354819Y-50095237D02*
X57878628Y-50428570D01*
X58354819Y-50666665D02*
X57354819Y-50666665D01*
X57354819Y-50666665D02*
X57354819Y-50285713D01*
X57354819Y-50285713D02*
X57402438Y-50190475D01*
X57402438Y-50190475D02*
X57450057Y-50142856D01*
X57450057Y-50142856D02*
X57545295Y-50095237D01*
X57545295Y-50095237D02*
X57688152Y-50095237D01*
X57688152Y-50095237D02*
X57783390Y-50142856D01*
X57783390Y-50142856D02*
X57831009Y-50190475D01*
X57831009Y-50190475D02*
X57878628Y-50285713D01*
X57878628Y-50285713D02*
X57878628Y-50666665D01*
X57354819Y-49809522D02*
X57354819Y-49238094D01*
X58354819Y-49523808D02*
X57354819Y-49523808D01*
X58259580Y-48333332D02*
X58307200Y-48380951D01*
X58307200Y-48380951D02*
X58354819Y-48523808D01*
X58354819Y-48523808D02*
X58354819Y-48619046D01*
X58354819Y-48619046D02*
X58307200Y-48761903D01*
X58307200Y-48761903D02*
X58211961Y-48857141D01*
X58211961Y-48857141D02*
X58116723Y-48904760D01*
X58116723Y-48904760D02*
X57926247Y-48952379D01*
X57926247Y-48952379D02*
X57783390Y-48952379D01*
X57783390Y-48952379D02*
X57592914Y-48904760D01*
X57592914Y-48904760D02*
X57497676Y-48857141D01*
X57497676Y-48857141D02*
X57402438Y-48761903D01*
X57402438Y-48761903D02*
X57354819Y-48619046D01*
X57354819Y-48619046D02*
X57354819Y-48523808D01*
X57354819Y-48523808D02*
X57402438Y-48380951D01*
X57402438Y-48380951D02*
X57450057Y-48333332D01*
D12*
X59342533Y-22261904D02*
X59342533Y-20738095D01*
X60104438Y-21499999D02*
X58580628Y-21499999D01*
D11*
X55780952Y-69173866D02*
X56542857Y-69173866D01*
X58257142Y-69554819D02*
X57780952Y-69554819D01*
X57780952Y-69554819D02*
X57780952Y-68554819D01*
X58590476Y-69031009D02*
X58923809Y-69031009D01*
X59066666Y-69554819D02*
X58590476Y-69554819D01*
X58590476Y-69554819D02*
X58590476Y-68554819D01*
X58590476Y-68554819D02*
X59066666Y-68554819D01*
X59495238Y-69554819D02*
X59495238Y-68554819D01*
X59495238Y-68554819D02*
X59733333Y-68554819D01*
X59733333Y-68554819D02*
X59876190Y-68602438D01*
X59876190Y-68602438D02*
X59971428Y-68697676D01*
X59971428Y-68697676D02*
X60019047Y-68792914D01*
X60019047Y-68792914D02*
X60066666Y-68983390D01*
X60066666Y-68983390D02*
X60066666Y-69126247D01*
X60066666Y-69126247D02*
X60019047Y-69316723D01*
X60019047Y-69316723D02*
X59971428Y-69411961D01*
X59971428Y-69411961D02*
X59876190Y-69507200D01*
X59876190Y-69507200D02*
X59733333Y-69554819D01*
X59733333Y-69554819D02*
X59495238Y-69554819D01*
X61257143Y-69173866D02*
X62019048Y-69173866D01*
X61638095Y-69554819D02*
X61638095Y-68792914D01*
X61138152Y-26614286D02*
X62138152Y-26614286D01*
X61185771Y-26614286D02*
X61138152Y-26519048D01*
X61138152Y-26519048D02*
X61138152Y-26328572D01*
X61138152Y-26328572D02*
X61185771Y-26233334D01*
X61185771Y-26233334D02*
X61233390Y-26185715D01*
X61233390Y-26185715D02*
X61328628Y-26138096D01*
X61328628Y-26138096D02*
X61614342Y-26138096D01*
X61614342Y-26138096D02*
X61709580Y-26185715D01*
X61709580Y-26185715D02*
X61757200Y-26233334D01*
X61757200Y-26233334D02*
X61804819Y-26328572D01*
X61804819Y-26328572D02*
X61804819Y-26519048D01*
X61804819Y-26519048D02*
X61757200Y-26614286D01*
X61804819Y-25566667D02*
X61757200Y-25661905D01*
X61757200Y-25661905D02*
X61709580Y-25709524D01*
X61709580Y-25709524D02*
X61614342Y-25757143D01*
X61614342Y-25757143D02*
X61328628Y-25757143D01*
X61328628Y-25757143D02*
X61233390Y-25709524D01*
X61233390Y-25709524D02*
X61185771Y-25661905D01*
X61185771Y-25661905D02*
X61138152Y-25566667D01*
X61138152Y-25566667D02*
X61138152Y-25423810D01*
X61138152Y-25423810D02*
X61185771Y-25328572D01*
X61185771Y-25328572D02*
X61233390Y-25280953D01*
X61233390Y-25280953D02*
X61328628Y-25233334D01*
X61328628Y-25233334D02*
X61614342Y-25233334D01*
X61614342Y-25233334D02*
X61709580Y-25280953D01*
X61709580Y-25280953D02*
X61757200Y-25328572D01*
X61757200Y-25328572D02*
X61804819Y-25423810D01*
X61804819Y-25423810D02*
X61804819Y-25566667D01*
X61138152Y-24900000D02*
X61804819Y-24709524D01*
X61804819Y-24709524D02*
X61328628Y-24519048D01*
X61328628Y-24519048D02*
X61804819Y-24328572D01*
X61804819Y-24328572D02*
X61138152Y-24138096D01*
X61757200Y-23376191D02*
X61804819Y-23471429D01*
X61804819Y-23471429D02*
X61804819Y-23661905D01*
X61804819Y-23661905D02*
X61757200Y-23757143D01*
X61757200Y-23757143D02*
X61661961Y-23804762D01*
X61661961Y-23804762D02*
X61281009Y-23804762D01*
X61281009Y-23804762D02*
X61185771Y-23757143D01*
X61185771Y-23757143D02*
X61138152Y-23661905D01*
X61138152Y-23661905D02*
X61138152Y-23471429D01*
X61138152Y-23471429D02*
X61185771Y-23376191D01*
X61185771Y-23376191D02*
X61281009Y-23328572D01*
X61281009Y-23328572D02*
X61376247Y-23328572D01*
X61376247Y-23328572D02*
X61471485Y-23804762D01*
X61804819Y-22900000D02*
X61138152Y-22900000D01*
X61328628Y-22900000D02*
X61233390Y-22852381D01*
X61233390Y-22852381D02*
X61185771Y-22804762D01*
X61185771Y-22804762D02*
X61138152Y-22709524D01*
X61138152Y-22709524D02*
X61138152Y-22614286D01*
X61757200Y-21566666D02*
X61804819Y-21471428D01*
X61804819Y-21471428D02*
X61804819Y-21280952D01*
X61804819Y-21280952D02*
X61757200Y-21185714D01*
X61757200Y-21185714D02*
X61661961Y-21138095D01*
X61661961Y-21138095D02*
X61614342Y-21138095D01*
X61614342Y-21138095D02*
X61519104Y-21185714D01*
X61519104Y-21185714D02*
X61471485Y-21280952D01*
X61471485Y-21280952D02*
X61471485Y-21423809D01*
X61471485Y-21423809D02*
X61423866Y-21519047D01*
X61423866Y-21519047D02*
X61328628Y-21566666D01*
X61328628Y-21566666D02*
X61281009Y-21566666D01*
X61281009Y-21566666D02*
X61185771Y-21519047D01*
X61185771Y-21519047D02*
X61138152Y-21423809D01*
X61138152Y-21423809D02*
X61138152Y-21280952D01*
X61138152Y-21280952D02*
X61185771Y-21185714D01*
X61138152Y-20280952D02*
X61804819Y-20280952D01*
X61138152Y-20709523D02*
X61661961Y-20709523D01*
X61661961Y-20709523D02*
X61757200Y-20661904D01*
X61757200Y-20661904D02*
X61804819Y-20566666D01*
X61804819Y-20566666D02*
X61804819Y-20423809D01*
X61804819Y-20423809D02*
X61757200Y-20328571D01*
X61757200Y-20328571D02*
X61709580Y-20280952D01*
X61138152Y-19804761D02*
X62138152Y-19804761D01*
X61185771Y-19804761D02*
X61138152Y-19709523D01*
X61138152Y-19709523D02*
X61138152Y-19519047D01*
X61138152Y-19519047D02*
X61185771Y-19423809D01*
X61185771Y-19423809D02*
X61233390Y-19376190D01*
X61233390Y-19376190D02*
X61328628Y-19328571D01*
X61328628Y-19328571D02*
X61614342Y-19328571D01*
X61614342Y-19328571D02*
X61709580Y-19376190D01*
X61709580Y-19376190D02*
X61757200Y-19423809D01*
X61757200Y-19423809D02*
X61804819Y-19519047D01*
X61804819Y-19519047D02*
X61804819Y-19709523D01*
X61804819Y-19709523D02*
X61757200Y-19804761D01*
X61138152Y-18899999D02*
X62138152Y-18899999D01*
X61185771Y-18899999D02*
X61138152Y-18804761D01*
X61138152Y-18804761D02*
X61138152Y-18614285D01*
X61138152Y-18614285D02*
X61185771Y-18519047D01*
X61185771Y-18519047D02*
X61233390Y-18471428D01*
X61233390Y-18471428D02*
X61328628Y-18423809D01*
X61328628Y-18423809D02*
X61614342Y-18423809D01*
X61614342Y-18423809D02*
X61709580Y-18471428D01*
X61709580Y-18471428D02*
X61757200Y-18519047D01*
X61757200Y-18519047D02*
X61804819Y-18614285D01*
X61804819Y-18614285D02*
X61804819Y-18804761D01*
X61804819Y-18804761D02*
X61757200Y-18899999D01*
X61804819Y-17852380D02*
X61757200Y-17947618D01*
X61757200Y-17947618D02*
X61661961Y-17995237D01*
X61661961Y-17995237D02*
X60804819Y-17995237D01*
X61138152Y-17566665D02*
X61804819Y-17328570D01*
X61138152Y-17090475D02*
X61804819Y-17328570D01*
X61804819Y-17328570D02*
X62042914Y-17423808D01*
X62042914Y-17423808D02*
X62090533Y-17471427D01*
X62090533Y-17471427D02*
X62138152Y-17566665D01*
X19954819Y-25033333D02*
X20669104Y-25033333D01*
X20669104Y-25033333D02*
X20811961Y-25080952D01*
X20811961Y-25080952D02*
X20907200Y-25176190D01*
X20907200Y-25176190D02*
X20954819Y-25319047D01*
X20954819Y-25319047D02*
X20954819Y-25414285D01*
X20288152Y-24128571D02*
X20954819Y-24128571D01*
X19907200Y-24366666D02*
X20621485Y-24604761D01*
X20621485Y-24604761D02*
X20621485Y-23985714D01*
X19854819Y-57033333D02*
X20569104Y-57033333D01*
X20569104Y-57033333D02*
X20711961Y-57080952D01*
X20711961Y-57080952D02*
X20807200Y-57176190D01*
X20807200Y-57176190D02*
X20854819Y-57319047D01*
X20854819Y-57319047D02*
X20854819Y-57414285D01*
X19854819Y-56080952D02*
X19854819Y-56557142D01*
X19854819Y-56557142D02*
X20331009Y-56604761D01*
X20331009Y-56604761D02*
X20283390Y-56557142D01*
X20283390Y-56557142D02*
X20235771Y-56461904D01*
X20235771Y-56461904D02*
X20235771Y-56223809D01*
X20235771Y-56223809D02*
X20283390Y-56128571D01*
X20283390Y-56128571D02*
X20331009Y-56080952D01*
X20331009Y-56080952D02*
X20426247Y-56033333D01*
X20426247Y-56033333D02*
X20664342Y-56033333D01*
X20664342Y-56033333D02*
X20759580Y-56080952D01*
X20759580Y-56080952D02*
X20807200Y-56128571D01*
X20807200Y-56128571D02*
X20854819Y-56223809D01*
X20854819Y-56223809D02*
X20854819Y-56461904D01*
X20854819Y-56461904D02*
X20807200Y-56557142D01*
X20807200Y-56557142D02*
X20759580Y-56604761D01*
X20054819Y-62933333D02*
X20769104Y-62933333D01*
X20769104Y-62933333D02*
X20911961Y-62980952D01*
X20911961Y-62980952D02*
X21007200Y-63076190D01*
X21007200Y-63076190D02*
X21054819Y-63219047D01*
X21054819Y-63219047D02*
X21054819Y-63314285D01*
X20150057Y-62504761D02*
X20102438Y-62457142D01*
X20102438Y-62457142D02*
X20054819Y-62361904D01*
X20054819Y-62361904D02*
X20054819Y-62123809D01*
X20054819Y-62123809D02*
X20102438Y-62028571D01*
X20102438Y-62028571D02*
X20150057Y-61980952D01*
X20150057Y-61980952D02*
X20245295Y-61933333D01*
X20245295Y-61933333D02*
X20340533Y-61933333D01*
X20340533Y-61933333D02*
X20483390Y-61980952D01*
X20483390Y-61980952D02*
X21054819Y-62552380D01*
X21054819Y-62552380D02*
X21054819Y-61933333D01*
D13*
%TO.C,battery_RTC1*%
X49250000Y-36850000D02*
X47900000Y-38000000D01*
X49250000Y-49950000D02*
X47900000Y-48800000D01*
X54850000Y-36850000D02*
X56500000Y-38500000D01*
X56500000Y-38500000D02*
X56500000Y-40400000D01*
X56500000Y-48300000D02*
X54850000Y-49950000D01*
X56500000Y-48300000D02*
X56500000Y-46400000D01*
X47402393Y-40895902D02*
G75*
G02*
X47900000Y-38000000I2297607J1095902D01*
G01*
X47900000Y-48800000D02*
G75*
G02*
X47403541Y-45901694I1800000J1800000D01*
G01*
%TO.C,J1*%
X16670000Y-32440000D02*
X18000000Y-32440000D01*
X16670000Y-33770000D02*
X16670000Y-32440000D01*
X16670000Y-35040000D02*
X16670000Y-52880000D01*
X16670000Y-35040000D02*
X19330000Y-35040000D01*
X16670000Y-52880000D02*
X19330000Y-52880000D01*
X19330000Y-35040000D02*
X19330000Y-52880000D01*
D14*
%TO.C,pico1*%
X21280000Y-17280000D02*
X27780000Y-17280000D01*
X21280000Y-17530000D02*
X21280000Y-17280000D01*
X21280000Y-68280000D02*
X21280000Y-68030000D01*
X27780000Y-15980000D02*
X35780000Y-15980000D01*
X27780000Y-17280000D02*
X27780000Y-15980000D01*
X28120000Y-68280000D02*
X21280000Y-68280000D01*
X35780000Y-15980000D02*
X35780000Y-17280000D01*
X35780000Y-17280000D02*
X42280000Y-17280000D01*
X42280000Y-17280000D02*
X42280000Y-17530000D01*
X42280000Y-68280000D02*
X35440000Y-68280000D01*
X42280000Y-68280000D02*
X42280000Y-68030000D01*
D15*
X19740000Y-18650000D02*
G75*
G02*
X19440000Y-18650000I-150000J0D01*
G01*
X19440000Y-18650000D02*
G75*
G02*
X19740000Y-18650000I150000J0D01*
G01*
D13*
%TO.C,J4*%
X16670000Y-22045000D02*
X18000000Y-22045000D01*
X16670000Y-23375000D02*
X16670000Y-22045000D01*
X16670000Y-24645000D02*
X16670000Y-27245000D01*
X16670000Y-24645000D02*
X19330000Y-24645000D01*
X16670000Y-27245000D02*
X19330000Y-27245000D01*
X19330000Y-24645000D02*
X19330000Y-27245000D01*
%TO.C,J5*%
X16670000Y-53945000D02*
X18000000Y-53945000D01*
X16670000Y-55275000D02*
X16670000Y-53945000D01*
X16670000Y-56545000D02*
X16670000Y-59145000D01*
X16670000Y-56545000D02*
X19330000Y-56545000D01*
X16670000Y-59145000D02*
X19330000Y-59145000D01*
X19330000Y-56545000D02*
X19330000Y-59145000D01*
%TO.C,SW1*%
X44530000Y-31290000D02*
X44530000Y-29906000D01*
X44530000Y-31290000D02*
X45913000Y-31290000D01*
X44770000Y-21150000D02*
X46390000Y-21150000D01*
X44770000Y-31050000D02*
X44770000Y-21150000D01*
X44770000Y-31050000D02*
X46390000Y-31050000D01*
X46555000Y-24070000D02*
X46555000Y-28130000D01*
X46555000Y-26776667D02*
X47825000Y-26776667D01*
X46555000Y-28130000D02*
X47825000Y-28130000D01*
X46675000Y-28130000D02*
X46675000Y-26776667D01*
X46795000Y-28130000D02*
X46795000Y-26776667D01*
X46915000Y-28130000D02*
X46915000Y-26776667D01*
X47035000Y-28130000D02*
X47035000Y-26776667D01*
X47155000Y-28130000D02*
X47155000Y-26776667D01*
X47275000Y-28130000D02*
X47275000Y-26776667D01*
X47395000Y-28130000D02*
X47395000Y-26776667D01*
X47515000Y-28130000D02*
X47515000Y-26776667D01*
X47635000Y-28130000D02*
X47635000Y-26776667D01*
X47755000Y-28130000D02*
X47755000Y-26776667D01*
X47825000Y-24070000D02*
X46555000Y-24070000D01*
X47825000Y-28130000D02*
X47825000Y-24070000D01*
X47990000Y-21150000D02*
X48930000Y-21150000D01*
X47990000Y-31050000D02*
X48930000Y-31050000D01*
X49095000Y-24070000D02*
X49095000Y-28130000D01*
X49095000Y-26776667D02*
X50365000Y-26776667D01*
X49095000Y-28130000D02*
X50365000Y-28130000D01*
X49215000Y-28130000D02*
X49215000Y-26776667D01*
X49335000Y-28130000D02*
X49335000Y-26776667D01*
X49455000Y-28130000D02*
X49455000Y-26776667D01*
X49575000Y-28130000D02*
X49575000Y-26776667D01*
X49695000Y-28130000D02*
X49695000Y-26776667D01*
X49815000Y-28130000D02*
X49815000Y-26776667D01*
X49935000Y-28130000D02*
X49935000Y-26776667D01*
X50055000Y-28130000D02*
X50055000Y-26776667D01*
X50175000Y-28130000D02*
X50175000Y-26776667D01*
X50295000Y-28130000D02*
X50295000Y-26776667D01*
X50365000Y-24070000D02*
X49095000Y-24070000D01*
X50365000Y-28130000D02*
X50365000Y-24070000D01*
X50530000Y-21150000D02*
X51470000Y-21150000D01*
X50530000Y-31050000D02*
X51470000Y-31050000D01*
X51635000Y-24070000D02*
X51635000Y-28130000D01*
X51635000Y-26776667D02*
X52905000Y-26776667D01*
X51635000Y-28130000D02*
X52905000Y-28130000D01*
X51755000Y-28130000D02*
X51755000Y-26776667D01*
X51875000Y-28130000D02*
X51875000Y-26776667D01*
X51995000Y-28130000D02*
X51995000Y-26776667D01*
X52115000Y-28130000D02*
X52115000Y-26776667D01*
X52235000Y-28130000D02*
X52235000Y-26776667D01*
X52355000Y-28130000D02*
X52355000Y-26776667D01*
X52475000Y-28130000D02*
X52475000Y-26776667D01*
X52595000Y-28130000D02*
X52595000Y-26776667D01*
X52715000Y-28130000D02*
X52715000Y-26776667D01*
X52835000Y-28130000D02*
X52835000Y-26776667D01*
X52905000Y-24070000D02*
X51635000Y-24070000D01*
X52905000Y-28130000D02*
X52905000Y-24070000D01*
X53070000Y-21150000D02*
X54010000Y-21150000D01*
X53070000Y-31050000D02*
X54010000Y-31050000D01*
X54175000Y-24070000D02*
X54175000Y-28130000D01*
X54175000Y-26776667D02*
X55445000Y-26776667D01*
X54175000Y-28130000D02*
X55445000Y-28130000D01*
X54295000Y-28130000D02*
X54295000Y-26776667D01*
X54415000Y-28130000D02*
X54415000Y-26776667D01*
X54535000Y-28130000D02*
X54535000Y-26776667D01*
X54655000Y-28130000D02*
X54655000Y-26776667D01*
X54775000Y-28130000D02*
X54775000Y-26776667D01*
X54895000Y-28130000D02*
X54895000Y-26776667D01*
X55015000Y-28130000D02*
X55015000Y-26776667D01*
X55135000Y-28130000D02*
X55135000Y-26776667D01*
X55255000Y-28130000D02*
X55255000Y-26776667D01*
X55375000Y-28130000D02*
X55375000Y-26776667D01*
X55445000Y-24070000D02*
X54175000Y-24070000D01*
X55445000Y-28130000D02*
X55445000Y-24070000D01*
X55610000Y-21150000D02*
X57230000Y-21150000D01*
X55610000Y-31050000D02*
X57230000Y-31050000D01*
X57230000Y-31050000D02*
X57230000Y-21150000D01*
%TO.C,J2*%
X16670000Y-60145000D02*
X18000000Y-60145000D01*
X16670000Y-61475000D02*
X16670000Y-60145000D01*
X16670000Y-62745000D02*
X16670000Y-65345000D01*
X16670000Y-62745000D02*
X19330000Y-62745000D01*
X16670000Y-65345000D02*
X19330000Y-65345000D01*
X19330000Y-62745000D02*
X19330000Y-65345000D01*
%TO.C,J3*%
X58020000Y-25380000D02*
X58020000Y-22780000D01*
X60680000Y-22780000D02*
X58020000Y-22780000D01*
X60680000Y-25380000D02*
X58020000Y-25380000D01*
X60680000Y-25380000D02*
X60680000Y-22780000D01*
X60680000Y-26650000D02*
X60680000Y-27980000D01*
X60680000Y-27980000D02*
X59350000Y-27980000D01*
%TO.C,J7*%
X56520000Y-67730000D02*
X56520000Y-66400000D01*
X57850000Y-67730000D02*
X56520000Y-67730000D01*
X59120000Y-65070000D02*
X61720000Y-65070000D01*
X59120000Y-67730000D02*
X59120000Y-65070000D01*
X59120000Y-67730000D02*
X61720000Y-67730000D01*
X61720000Y-67730000D02*
X61720000Y-65070000D01*
%TD*%
M02*
