%TF.GenerationSoftware,KiCad,Pcbnew,9.0.3+dfsg-1*%
%TF.CreationDate,2026-01-20T19:32:03+01:00*%
%TF.ProjectId,inki,696e6b69-2e6b-4696-9361-645f70636258,rev?*%
%TF.SameCoordinates,Original*%
%TF.FileFunction,Soldermask,Top*%
%TF.FilePolarity,Negative*%
%FSLAX46Y46*%
G04 Gerber Fmt 4.6, Leading zero omitted, Abs format (unit mm)*
G04 Created by KiCad (PCBNEW 9.0.3+dfsg-1) date 2026-01-20 19:32:03*
%MOMM*%
%LPD*%
G01*
G04 APERTURE LIST*
G04 Aperture macros list*
%AMRoundRect*
0 Rectangle with rounded corners*
0 $1 Rounding radius*
0 $2 $3 $4 $5 $6 $7 $8 $9 X,Y pos of 4 corners*
0 Add a 4 corners polygon primitive as box body*
4,1,4,$2,$3,$4,$5,$6,$7,$8,$9,$2,$3,0*
0 Add four circle primitives for the rounded corners*
1,1,$1+$1,$2,$3*
1,1,$1+$1,$4,$5*
1,1,$1+$1,$6,$7*
1,1,$1+$1,$8,$9*
0 Add four rect primitives between the rounded corners*
20,1,$1+$1,$2,$3,$4,$5,0*
20,1,$1+$1,$4,$5,$6,$7,0*
20,1,$1+$1,$6,$7,$8,$9,0*
20,1,$1+$1,$8,$9,$2,$3,0*%
G04 Aperture macros list end*
%ADD10R,5.100000X2.500000*%
%ADD11C,10.200000*%
%ADD12R,1.700000X1.700000*%
%ADD13O,1.700000X1.700000*%
%ADD14C,1.600000*%
%ADD15RoundRect,0.200000X-0.600000X-0.600000X0.600000X-0.600000X0.600000X0.600000X-0.600000X0.600000X0*%
%ADD16R,1.120000X2.440000*%
G04 APERTURE END LIST*
D10*
%TO.C,battery_RTC1*%
X52100000Y-35800000D03*
X52100000Y-51000000D03*
D11*
X52100000Y-43400000D03*
%TD*%
D12*
%TO.C,J1*%
X18000000Y-33770000D03*
D13*
X18000000Y-36310000D03*
X18000000Y-38850000D03*
X18000000Y-41390000D03*
X18000000Y-43930000D03*
X18000000Y-46470000D03*
X18000000Y-49010000D03*
X18000000Y-51550000D03*
%TD*%
D14*
%TO.C,pico1*%
X22890000Y-18650000D03*
X22890000Y-21190000D03*
D15*
X22890000Y-23730000D03*
D14*
X22890000Y-26270000D03*
X22890000Y-28810000D03*
X22890000Y-31350000D03*
X22890000Y-33890000D03*
D15*
X22890000Y-36430000D03*
D14*
X22890000Y-38970000D03*
X22890000Y-41510000D03*
X22890000Y-44050000D03*
X22890000Y-46590000D03*
D15*
X22890000Y-49130000D03*
D14*
X22890000Y-51670000D03*
X22890000Y-54210000D03*
X22931881Y-56750000D03*
X22890000Y-59290000D03*
D15*
X22890000Y-61830000D03*
D14*
X22890000Y-64370000D03*
X22890000Y-66910000D03*
X40670000Y-66910000D03*
X40670000Y-64370000D03*
D15*
X40670000Y-61830000D03*
D14*
X40670000Y-59290000D03*
X40670000Y-56750000D03*
X40670000Y-54210000D03*
X40670000Y-51670000D03*
D15*
X40670000Y-49130000D03*
D14*
X40670000Y-46590000D03*
X40670000Y-44050000D03*
X40670000Y-41510000D03*
X40670000Y-38970000D03*
D15*
X40670000Y-36430000D03*
D14*
X40670000Y-33890000D03*
X40670000Y-31350000D03*
X40670000Y-28810000D03*
X40670000Y-26270000D03*
D15*
X40670000Y-23730000D03*
D14*
X40670000Y-21190000D03*
X40670000Y-18650000D03*
%TD*%
D12*
%TO.C,J4*%
X18000000Y-23375000D03*
D13*
X18000000Y-25915000D03*
%TD*%
D12*
%TO.C,J5*%
X18000000Y-55275000D03*
D13*
X18000000Y-57815000D03*
%TD*%
D16*
%TO.C,SW1*%
X47190000Y-30405000D03*
X49730000Y-30405000D03*
X52270000Y-30405000D03*
X54810000Y-30405000D03*
X54810000Y-21795000D03*
X52270000Y-21795000D03*
X49730000Y-21795000D03*
X47190000Y-21795000D03*
%TD*%
D12*
%TO.C,J2*%
X18000000Y-61475000D03*
D13*
X18000000Y-64015000D03*
%TD*%
D12*
%TO.C,J3*%
X59350000Y-26650000D03*
D13*
X59350000Y-24110000D03*
%TD*%
D12*
%TO.C,J7*%
X57850000Y-66400000D03*
D13*
X60390000Y-66400000D03*
%TD*%
M02*
