M48
; DRILL file {KiCad 9.0.3+dfsg-1} date 2026-01-20T19:32:06+0100
; FORMAT={-:-/ absolute / metric / decimal}
; #@! TF.CreationDate,2026-01-20T19:32:06+01:00
; #@! TF.GenerationSoftware,Kicad,Pcbnew,9.0.3+dfsg-1
; #@! TF.FileFunction,Plated,1,2,PTH
FMAT,2
METRIC
; #@! TA.AperFunction,Plated,PTH,ViaDrill
T1C0.300
; #@! TA.AperFunction,Plated,PTH,ComponentDrill
T2C1.000
; #@! TA.AperFunction,Plated,PTH,ViaDrill
T3C2.500
%
G90
G05
T1
X17.6Y-18.9
X17.6Y-18.9
X20.5Y-68.2
X20.8Y-31.3
X25.2Y-33.1
X26.1Y-20.2
X26.7Y-55.2
X27.5Y-64.1
X29.3Y-20.8
X29.5Y-32.2
X29.6Y-30.2
X31.3Y-34.9
X31.6Y-20.4
X31.6Y-49.4
X32.1Y-64.5
X32.9Y-68.1
X33.4Y-25.5
X33.4Y-62.85
X35.5Y-55.25
X35.6Y-37.7
X36.3Y-50.0
X36.35Y-61.15
X38.13Y-42.56
X38.9Y-62.1
X42.33Y-45.87
X43.27Y-41.75
X43.5Y-66.2
X43.7Y-54.5
X44.1Y-21.19
X44.3Y-52.5
X44.48Y-49.9
X45.35Y-23.15
X46.18Y-45.75
X46.35Y-46.9
X47.3Y-50.2
X47.5Y-34.0
X48.195Y-59.005
X48.195Y-64.7
X48.3Y-37.1
X48.5Y-26.2
X49.7Y-32.4
X50.125Y-52.925
X51.15Y-39.65
X52.05Y-54.125
X52.825Y-43.4
X54.4Y-28.4
X56.3Y-53.3
X57.4Y-51.9
X61.1Y-64.5
T2
X18.0Y-23.375
X18.0Y-25.915
X18.0Y-33.77
X18.0Y-36.31
X18.0Y-38.85
X18.0Y-41.39
X18.0Y-43.93
X18.0Y-46.47
X18.0Y-49.01
X18.0Y-51.55
X18.0Y-55.275
X18.0Y-57.815
X18.0Y-61.475
X18.0Y-64.015
X22.89Y-18.65
X22.89Y-21.19
X22.89Y-23.73
X22.89Y-26.27
X22.89Y-28.81
X22.89Y-31.35
X22.89Y-33.89
X22.89Y-36.43
X22.89Y-38.97
X22.89Y-41.51
X22.89Y-44.05
X22.89Y-46.59
X22.89Y-49.13
X22.89Y-51.67
X22.89Y-54.21
X22.89Y-59.29
X22.89Y-61.83
X22.89Y-64.37
X22.89Y-66.91
X22.932Y-56.75
X40.67Y-18.65
X40.67Y-21.19
X40.67Y-23.73
X40.67Y-26.27
X40.67Y-28.81
X40.67Y-31.35
X40.67Y-33.89
X40.67Y-36.43
X40.67Y-38.97
X40.67Y-41.51
X40.67Y-44.05
X40.67Y-46.59
X40.67Y-49.13
X40.67Y-51.67
X40.67Y-54.21
X40.67Y-56.75
X40.67Y-59.29
X40.67Y-61.83
X40.67Y-64.37
X40.67Y-66.91
X57.85Y-66.4
X59.35Y-24.11
X59.35Y-26.65
X60.39Y-66.4
T3
X17.6Y-18.9
X17.9Y-67.75
X59.1Y-18.65
X60.35Y-59.15
M30
