%TF.GenerationSoftware,KiCad,Pcbnew,9.0.3+dfsg-1*%
%TF.CreationDate,2026-01-20T19:32:03+01:00*%
%TF.ProjectId,inki,696e6b69-2e6b-4696-9361-645f70636258,rev?*%
%TF.SameCoordinates,Original*%
%TF.FileFunction,Soldermask,Bot*%
%TF.FilePolarity,Negative*%
%FSLAX46Y46*%
G04 Gerber Fmt 4.6, Leading zero omitted, Abs format (unit mm)*
G04 Created by KiCad (PCBNEW 9.0.3+dfsg-1) date 2026-01-20 19:32:03*
%MOMM*%
%LPD*%
G01*
G04 APERTURE LIST*
G04 Aperture macros list*
%AMRoundRect*
0 Rectangle with rounded corners*
0 $1 Rounding radius*
0 $2 $3 $4 $5 $6 $7 $8 $9 X,Y pos of 4 corners*
0 Add a 4 corners polygon primitive as box body*
4,1,4,$2,$3,$4,$5,$6,$7,$8,$9,$2,$3,0*
0 Add four circle primitives for the rounded corners*
1,1,$1+$1,$2,$3*
1,1,$1+$1,$4,$5*
1,1,$1+$1,$6,$7*
1,1,$1+$1,$8,$9*
0 Add four rect primitives between the rounded corners*
20,1,$1+$1,$2,$3,$4,$5,0*
20,1,$1+$1,$4,$5,$6,$7,0*
20,1,$1+$1,$6,$7,$8,$9,0*
20,1,$1+$1,$8,$9,$2,$3,0*%
G04 Aperture macros list end*
%ADD10C,0.100000*%
%ADD11R,1.700000X1.700000*%
%ADD12O,1.700000X1.700000*%
%ADD13C,1.600000*%
%ADD14RoundRect,0.200000X-0.600000X-0.600000X0.600000X-0.600000X0.600000X0.600000X-0.600000X0.600000X0*%
%ADD15R,0.325000X0.300000*%
%ADD16R,0.300000X0.325000*%
%ADD17RoundRect,0.250000X0.350000X0.450000X-0.350000X0.450000X-0.350000X-0.450000X0.350000X-0.450000X0*%
%ADD18RoundRect,0.250000X0.450000X-0.350000X0.450000X0.350000X-0.450000X0.350000X-0.450000X-0.350000X0*%
%ADD19RoundRect,0.250000X-0.250000X-0.250000X0.250000X-0.250000X0.250000X0.250000X-0.250000X0.250000X0*%
%ADD20RoundRect,0.250000X-0.475000X0.250000X-0.475000X-0.250000X0.475000X-0.250000X0.475000X0.250000X0*%
%ADD21RoundRect,0.250000X0.475000X-0.250000X0.475000X0.250000X-0.475000X0.250000X-0.475000X-0.250000X0*%
%ADD22RoundRect,0.250000X-0.250000X-0.475000X0.250000X-0.475000X0.250000X0.475000X-0.250000X0.475000X0*%
%ADD23RoundRect,0.200000X0.200000X-0.750000X0.200000X0.750000X-0.200000X0.750000X-0.200000X-0.750000X0*%
%ADD24RoundRect,0.250000X-0.350000X-0.450000X0.350000X-0.450000X0.350000X0.450000X-0.350000X0.450000X0*%
%ADD25RoundRect,0.150000X0.150000X-0.587500X0.150000X0.587500X-0.150000X0.587500X-0.150000X-0.587500X0*%
%ADD26RoundRect,0.250000X0.250000X0.475000X-0.250000X0.475000X-0.250000X-0.475000X0.250000X-0.475000X0*%
%ADD27RoundRect,0.250000X0.250000X0.250000X-0.250000X0.250000X-0.250000X-0.250000X0.250000X-0.250000X0*%
%ADD28RoundRect,0.162500X-0.162500X0.312500X-0.162500X-0.312500X0.162500X-0.312500X0.162500X0.312500X0*%
%ADD29RoundRect,0.250000X-0.250000X0.250000X-0.250000X-0.250000X0.250000X-0.250000X0.250000X0.250000X0*%
%ADD30RoundRect,0.150000X-0.150000X0.875000X-0.150000X-0.875000X0.150000X-0.875000X0.150000X0.875000X0*%
%ADD31RoundRect,0.250000X-0.450000X0.350000X-0.450000X-0.350000X0.450000X-0.350000X0.450000X0.350000X0*%
%ADD32RoundRect,0.200000X-0.750000X-0.200000X0.750000X-0.200000X0.750000X0.200000X-0.750000X0.200000X0*%
%ADD33RoundRect,0.150000X-0.150000X0.587500X-0.150000X-0.587500X0.150000X-0.587500X0.150000X0.587500X0*%
G04 APERTURE END LIST*
%TO.C,U2*%
D10*
X52975000Y-40362500D02*
X51000000Y-40362500D01*
X51000000Y-42387500D01*
X52975000Y-42387500D01*
X52975000Y-40362500D01*
G36*
X52975000Y-40362500D02*
G01*
X51000000Y-40362500D01*
X51000000Y-42387500D01*
X52975000Y-42387500D01*
X52975000Y-40362500D01*
G37*
%TD*%
D11*
%TO.C,J1*%
X18000000Y-33770000D03*
D12*
X18000000Y-36310000D03*
X18000000Y-38850000D03*
X18000000Y-41390000D03*
X18000000Y-43930000D03*
X18000000Y-46470000D03*
X18000000Y-49010000D03*
X18000000Y-51550000D03*
%TD*%
D13*
%TO.C,pico1*%
X22890000Y-18650000D03*
X22890000Y-21190000D03*
D14*
X22890000Y-23730000D03*
D13*
X22890000Y-26270000D03*
X22890000Y-28810000D03*
X22890000Y-31350000D03*
X22890000Y-33890000D03*
D14*
X22890000Y-36430000D03*
D13*
X22890000Y-38970000D03*
X22890000Y-41510000D03*
X22890000Y-44050000D03*
X22890000Y-46590000D03*
D14*
X22890000Y-49130000D03*
D13*
X22890000Y-51670000D03*
X22890000Y-54210000D03*
X22931881Y-56750000D03*
X22890000Y-59290000D03*
D14*
X22890000Y-61830000D03*
D13*
X22890000Y-64370000D03*
X22890000Y-66910000D03*
X40670000Y-66910000D03*
X40670000Y-64370000D03*
D14*
X40670000Y-61830000D03*
D13*
X40670000Y-59290000D03*
X40670000Y-56750000D03*
X40670000Y-54210000D03*
X40670000Y-51670000D03*
D14*
X40670000Y-49130000D03*
D13*
X40670000Y-46590000D03*
X40670000Y-44050000D03*
X40670000Y-41510000D03*
X40670000Y-38970000D03*
D14*
X40670000Y-36430000D03*
D13*
X40670000Y-33890000D03*
X40670000Y-31350000D03*
X40670000Y-28810000D03*
X40670000Y-26270000D03*
D14*
X40670000Y-23730000D03*
D13*
X40670000Y-21190000D03*
X40670000Y-18650000D03*
%TD*%
D11*
%TO.C,J4*%
X18000000Y-23375000D03*
D12*
X18000000Y-25915000D03*
%TD*%
D11*
%TO.C,J5*%
X18000000Y-55275000D03*
D12*
X18000000Y-57815000D03*
%TD*%
D11*
%TO.C,J2*%
X18000000Y-61475000D03*
D12*
X18000000Y-64015000D03*
%TD*%
D11*
%TO.C,J3*%
X59350000Y-26650000D03*
D12*
X59350000Y-24110000D03*
%TD*%
D11*
%TO.C,J7*%
X57850000Y-66400000D03*
D12*
X60390000Y-66400000D03*
%TD*%
D15*
%TO.C,U2*%
X52762500Y-41112500D03*
X52762500Y-41612500D03*
D16*
X52500000Y-42125000D03*
X52000000Y-42125000D03*
X51500000Y-42125000D03*
X51237500Y-41612500D03*
X51237500Y-41112500D03*
X51500000Y-40600500D03*
X52000000Y-40600000D03*
X52500000Y-40600000D03*
%TD*%
D17*
%TO.C,R6*%
X61350000Y-63150000D03*
X59350000Y-63150000D03*
%TD*%
D18*
%TO.C,R16*%
X57600000Y-46300000D03*
X57600000Y-44300000D03*
%TD*%
D19*
%TO.C,D1*%
X56050000Y-51900000D03*
X58550000Y-51900000D03*
%TD*%
D20*
%TO.C,C3*%
X57100000Y-61450000D03*
X57100000Y-63350000D03*
%TD*%
D21*
%TO.C,C4*%
X30000000Y-23850000D03*
X30000000Y-21950000D03*
%TD*%
D22*
%TO.C,C5*%
X29050000Y-38350000D03*
X30950000Y-38350000D03*
%TD*%
D23*
%TO.C,Q1*%
X28250000Y-31300000D03*
X26350000Y-31300000D03*
X27300000Y-28300000D03*
%TD*%
D17*
%TO.C,R19*%
X33400000Y-30100000D03*
X31400000Y-30100000D03*
%TD*%
D24*
%TO.C,R12*%
X25000000Y-39700000D03*
X27000000Y-39700000D03*
%TD*%
D17*
%TO.C,R20*%
X33400000Y-32100000D03*
X31400000Y-32100000D03*
%TD*%
D25*
%TO.C,Q2*%
X30825000Y-43717500D03*
X28925000Y-43717500D03*
X29875000Y-41842500D03*
%TD*%
D19*
%TO.C,D7*%
X25050000Y-21700000D03*
X27550000Y-21700000D03*
%TD*%
D26*
%TO.C,C6*%
X52950000Y-38500000D03*
X51050000Y-38500000D03*
%TD*%
D18*
%TO.C,R10*%
X27300000Y-60500000D03*
X27300000Y-58500000D03*
%TD*%
D20*
%TO.C,C7*%
X25400000Y-47950000D03*
X25400000Y-49850000D03*
%TD*%
D17*
%TO.C,R18*%
X28000000Y-18300000D03*
X26000000Y-18300000D03*
%TD*%
D27*
%TO.C,D3*%
X30450000Y-50000000D03*
X27950000Y-50000000D03*
%TD*%
D24*
%TO.C,R1*%
X34400000Y-65600000D03*
X36400000Y-65600000D03*
%TD*%
D28*
%TO.C,U3*%
X44380000Y-43370000D03*
X45280000Y-43370000D03*
X46180000Y-43370000D03*
X47080000Y-43370000D03*
X47080000Y-44670000D03*
X46180000Y-44670000D03*
X45280000Y-44670000D03*
X44380000Y-44670000D03*
%TD*%
D24*
%TO.C,R2*%
X26200000Y-34900000D03*
X28200000Y-34900000D03*
%TD*%
D29*
%TO.C,D5*%
X19200000Y-28800000D03*
X19200000Y-31300000D03*
%TD*%
D19*
%TO.C,D4*%
X32650000Y-50000000D03*
X35150000Y-50000000D03*
%TD*%
D30*
%TO.C,U1*%
X45655000Y-57180000D03*
X46925000Y-57180000D03*
X48195000Y-57180000D03*
X49465000Y-57180000D03*
X50735000Y-57180000D03*
X52005000Y-57180000D03*
X53275000Y-57180000D03*
X54545000Y-57180000D03*
X54545000Y-66480000D03*
X53275000Y-66480000D03*
X52005000Y-66480000D03*
X50735000Y-66480000D03*
X49465000Y-66480000D03*
X48195000Y-66480000D03*
X46925000Y-66480000D03*
X45655000Y-66480000D03*
%TD*%
D31*
%TO.C,R4*%
X46400000Y-51400000D03*
X46400000Y-53400000D03*
%TD*%
D24*
%TO.C,R11*%
X25200000Y-25900000D03*
X27200000Y-25900000D03*
%TD*%
D21*
%TO.C,C1*%
X35850000Y-59350000D03*
X35850000Y-57450000D03*
%TD*%
D27*
%TO.C,D2*%
X58550000Y-49800000D03*
X56050000Y-49800000D03*
%TD*%
D31*
%TO.C,R13*%
X25400000Y-44100000D03*
X25400000Y-46100000D03*
%TD*%
D19*
%TO.C,D8*%
X25050000Y-23700000D03*
X27550000Y-23700000D03*
%TD*%
D31*
%TO.C,R3*%
X48700000Y-51400000D03*
X48700000Y-53400000D03*
%TD*%
D22*
%TO.C,C8*%
X43130000Y-47530000D03*
X45030000Y-47530000D03*
%TD*%
D31*
%TO.C,R7*%
X59100000Y-30700000D03*
X59100000Y-32700000D03*
%TD*%
D29*
%TO.C,D6*%
X17100000Y-28800000D03*
X17100000Y-31300000D03*
%TD*%
D17*
%TO.C,R14*%
X36400000Y-67700000D03*
X34400000Y-67700000D03*
%TD*%
%TO.C,R17*%
X28000000Y-15900000D03*
X26000000Y-15900000D03*
%TD*%
D31*
%TO.C,R8*%
X59000000Y-35400000D03*
X59000000Y-37400000D03*
%TD*%
D17*
%TO.C,R9*%
X29970000Y-46590000D03*
X27970000Y-46590000D03*
%TD*%
D32*
%TO.C,Q3*%
X29200000Y-66850000D03*
X29200000Y-64950000D03*
X32200000Y-65900000D03*
%TD*%
D33*
%TO.C,Q4*%
X25250000Y-65262500D03*
X27150000Y-65262500D03*
X26200000Y-67137500D03*
%TD*%
D24*
%TO.C,R21*%
X25700000Y-62600000D03*
X27700000Y-62600000D03*
%TD*%
D17*
%TO.C,R5*%
X35040000Y-46590000D03*
X33040000Y-46590000D03*
%TD*%
D21*
%TO.C,C2*%
X30100000Y-60550000D03*
X30100000Y-58650000D03*
%TD*%
D17*
%TO.C,R15*%
X40900000Y-69000000D03*
X38900000Y-69000000D03*
%TD*%
D18*
%TO.C,R22*%
X20500000Y-66400000D03*
X20500000Y-64400000D03*
%TD*%
M02*
